<?xml version="1.0" standalone="no"?>
<!DOCTYPE svg PUBLIC "-//W3C//DTD SVG 1.1//EN" "http://www.w3.org/Graphics/SVG/1.1/DTD/svg11.dtd" >
<svg xmlns="http://www.w3.org/2000/svg">
<metadata>Generated by IcoMoon</metadata>
<defs>
<font id="icomoon" horiz-adv-x="1024">
<font-face units-per-em="1024" ascent="960" descent="-64" />
<missing-glyph horiz-adv-x="1024" />
<glyph unicode="&#x20;" horiz-adv-x="512" d="" />
<glyph unicode="&#xe900;" glyph-name="custom-line" d="M81.92 741.888h860.16v-59.392h-860.16v59.392zM0 213.504h1024v-59.392h-1024v59.392zM0 477.696h129.024v-59.392h-129.024v59.392zM447.488 477.696h129.024v-59.392h-129.024v59.392zM894.976 477.696h129.024v-59.392h-129.024v59.392z" />
<glyph unicode="&#xe901;" glyph-name="custom-listmenu" d="M129.024 62.976h-95.232c-18.432 0-33.792-14.336-33.792-32.768s15.36-33.792 33.792-33.792h96.256c18.432 0 33.792 15.36 33.792 33.792-2.048 18.432-16.384 32.768-34.816 32.768zM129.024 341.504h-95.232c-18.432 0-33.792-14.336-33.792-32.768s15.36-33.792 33.792-33.792h96.256c18.432 0 33.792 15.36 33.792 33.792-2.048 18.432-16.384 32.768-34.816 32.768zM991.232 621.056h-704.512c-18.432 0-32.768-14.336-32.768-33.792-1.024-18.432 14.336-33.792 32.768-33.792h703.488c18.432 0 33.792 15.36 33.792 33.792s-14.336 33.792-32.768 33.792zM286.72 833.024h703.488c18.432 0 33.792 14.336 33.792 32.768s-15.36 33.792-33.792 33.792h-703.488c-18.432 0-32.768-14.336-32.768-33.792-1.024-18.432 14.336-32.768 32.768-32.768zM585.728 341.504h-299.008c-18.432 0-32.768-14.336-32.768-32.768s14.336-33.792 32.768-33.792h297.984c18.432 0 33.792 15.36 33.792 33.792s-15.36 32.768-32.768 32.768zM585.728 62.976h-299.008c-18.432 0-32.768-14.336-32.768-32.768s14.336-33.792 32.768-33.792h297.984c18.432 0 33.792 15.36 33.792 33.792s-15.36 32.768-32.768 32.768zM129.024 620.032h-95.232c-18.432 0-33.792-14.336-33.792-32.768s15.36-33.792 33.792-33.792h96.256c18.432 0 33.792 15.36 33.792 33.792-2.048 18.432-16.384 32.768-34.816 32.768zM990.208 238.080h-115.712v115.712c0 18.432-14.336 33.792-32.768 33.792s-33.792-15.36-33.792-33.792v-115.712h-115.712c-18.432 0-33.792-15.36-33.792-33.792s14.336-32.768 33.792-32.768h115.712v-115.712c0-18.432 15.36-33.792 33.792-33.792s32.768 14.336 32.768 33.792v115.712h115.712c18.432 0 33.792 14.336 33.792 32.768-1.024 18.432-15.36 33.792-33.792 33.792zM129.024 899.584h-95.232c-19.456 0-33.792-15.36-33.792-33.792s14.336-32.768 33.792-32.768h96.256c18.432 0 33.792 14.336 33.792 32.768-1.024 18.432-16.384 33.792-34.816 33.792z" />
<glyph unicode="&#xe902;" glyph-name="custom-menu" d="M604.16 752.128h-184.32c-21.504 0-37.888-17.408-37.888-37.888v-184.32c0-21.504 17.408-37.888 37.888-37.888h184.32c21.504 0 37.888 17.408 37.888 37.888v184.32c1.024 21.504-16.384 37.888-37.888 37.888zM608.256 690.688v-137.216c0-15.36-12.288-28.672-27.648-28.672h-137.216c-15.36 0-27.648 12.288-27.648 27.648v138.24c0 15.36 12.288 27.648 27.648 27.648h137.216c15.36 0 27.648-12.288 27.648-27.648zM223.232 752.128h-185.344c-20.48 0-37.888-16.384-37.888-37.888v-184.32c0-21.504 17.408-37.888 37.888-37.888h185.344c21.504 0 37.888 17.408 37.888 37.888v184.32c0 21.504-16.384 37.888-37.888 37.888zM227.328 690.688v-137.216c0-15.36-12.288-28.672-27.648-28.672h-137.216c-15.36 0-27.648 12.288-27.648 27.648v138.24c0 15.36 12.288 27.648 27.648 27.648h137.216c15.36 0 27.648-12.288 27.648-27.648zM986.112 752.128h-185.344c-21.504 0-37.888-17.408-37.888-37.888v-184.32c0-21.504 17.408-37.888 37.888-37.888h185.344c21.504 0 37.888 17.408 37.888 37.888v184.32c0 21.504-17.408 37.888-37.888 37.888zM990.208 690.688v-137.216c0-15.36-12.288-28.672-27.648-28.672h-138.24c-15.36 0-27.648 12.288-27.648 27.648v138.24c0 15.36 12.288 27.648 27.648 27.648h137.216c15.36 0 28.672-12.288 28.672-27.648zM223.232 404.992h-185.344c-20.48 0-37.888-17.408-37.888-38.912v-184.32c0-21.504 17.408-37.888 37.888-37.888h185.344c21.504 0 37.888 17.408 37.888 37.888v184.32c0 21.504-16.384 38.912-37.888 38.912zM227.328 342.528v-137.216c0-15.36-12.288-27.648-27.648-27.648h-137.216c-15.36 0-27.648 12.288-27.648 27.648v137.216c0 15.36 12.288 27.648 27.648 27.648h137.216c15.36 1.024 27.648-12.288 27.648-27.648zM604.16 404.992h-184.32c-21.504 0-37.888-17.408-37.888-37.888v-184.32c0-21.504 17.408-37.888 37.888-37.888h184.32c21.504 0 37.888 17.408 37.888 37.888v183.296c1.024 21.504-16.384 38.912-37.888 38.912zM608.256 342.528v-137.216c0-15.36-12.288-27.648-27.648-27.648h-137.216c-15.36 0-27.648 12.288-27.648 27.648v137.216c0 15.36 12.288 27.648 27.648 27.648h137.216c15.36 1.024 27.648-12.288 27.648-27.648zM986.112 404.992h-185.344c-21.504 0-37.888-17.408-37.888-37.888v-184.32c0-21.504 17.408-37.888 37.888-37.888h185.344c21.504 0 37.888 17.408 37.888 37.888v183.296c0 21.504-17.408 38.912-37.888 38.912zM990.208 342.528v-137.216c0-15.36-12.288-27.648-27.648-27.648h-138.24c-15.36 0-27.648 12.288-27.648 27.648v137.216c0 15.36 12.288 27.648 27.648 27.648h137.216c15.36 1.024 28.672-12.288 28.672-27.648z" />
<glyph unicode="&#xe903;" glyph-name="custom-menus" d="M1024 773.632c0 35.84-28.672 64.512-64.512 64.512h-163.84c-15.36 0-28.672-5.12-39.936-14.336-11.264 8.192-24.576 14.336-39.936 14.336h-163.84c-15.36 0-28.672-5.12-39.936-14.336-11.264 8.192-24.576 14.336-39.936 14.336h-163.84c-15.36 0-28.672-5.12-39.936-14.336-11.264 8.192-24.576 14.336-39.936 14.336h-163.84c-35.84 0-64.512-28.672-64.512-64.512v-163.84c0-15.36 5.12-28.672 14.336-39.936-9.216-11.264-14.336-24.576-14.336-39.936v-163.84c0-15.36 5.12-28.672 14.336-39.936-9.216-11.264-14.336-24.576-14.336-39.936v-163.84c0-35.84 28.672-64.512 64.512-64.512h163.84c15.36 0 28.672 5.12 39.936 14.336 11.264-8.192 24.576-14.336 39.936-14.336h163.84c15.36 0 28.672 5.12 39.936 14.336 11.264-8.192 24.576-14.336 39.936-14.336h163.84c15.36 0 28.672 5.12 39.936 14.336 11.264-8.192 24.576-14.336 39.936-14.336h163.84c35.84 0 64.512 28.672 64.512 64.512v163.84c0 15.36-5.12 28.672-14.336 39.936 8.192 11.264 14.336 24.576 14.336 39.936v163.84c0 15.36-5.12 28.672-14.336 39.936 8.192 11.264 14.336 24.576 14.336 39.936 0 0 0 163.84 0 163.84zM974.848 286.208v-163.84c0-8.192-7.168-15.36-15.36-15.36h-163.84c-8.192 0-15.36 7.168-15.36 15.36v163.84c0 8.192 7.168 15.36 15.36 15.36h163.84c9.216 0 15.36-7.168 15.36-15.36zM551.936 107.008c-8.192 0-15.36 7.168-15.36 15.36v163.84c0 8.192 7.168 15.36 15.36 15.36h163.84c8.192 0 15.36-7.168 15.36-15.36v-163.84c0-8.192-7.168-15.36-15.36-15.36h-163.84zM49.152 122.368v163.84c0 8.192 7.168 15.36 15.36 15.36h163.84c8.192 0 15.36-7.168 15.36-15.36v-163.84c0-8.192-7.168-15.36-15.36-15.36h-163.84c-9.216 0-15.36 6.144-15.36 15.36zM49.152 609.792v163.84c0 8.192 7.168 15.36 15.36 15.36h163.84c8.192 0 15.36-7.168 15.36-15.36v-163.84c0-8.192-7.168-15.36-15.36-15.36h-163.84c-9.216 0-15.36 7.168-15.36 15.36zM715.776 788.992c8.192 0 15.36-7.168 15.36-15.36v-163.84c0-8.192-7.168-15.36-15.36-15.36h-163.84c-8.192 0-15.36 7.168-15.36 15.36v163.84c0 8.192 7.168 15.36 15.36 15.36h163.84zM959.488 788.992c8.192 0 15.36-7.168 15.36-15.36v-163.84c0-8.192-7.168-15.36-15.36-15.36h-163.84c-8.192 0-15.36 7.168-15.36 15.36v163.84c0 8.192 7.168 15.36 15.36 15.36h163.84zM974.848 529.92v-163.84c0-8.192-7.168-15.36-15.36-15.36h-163.84c-8.192 0-15.36 7.168-15.36 15.36v163.84c0 8.192 7.168 15.36 15.36 15.36h163.84c9.216 0 15.36-7.168 15.36-15.36zM49.152 366.080v163.84c0 8.192 7.168 15.36 15.36 15.36h163.84c8.192 0 15.36-7.168 15.36-15.36v-163.84c0-8.192-7.168-15.36-15.36-15.36h-163.84c-9.216 0-15.36 7.168-15.36 15.36zM292.864 366.080v163.84c0 8.192 7.168 15.36 15.36 15.36h163.84c8.192 0 15.36-7.168 15.36-15.36v-163.84c0-8.192-7.168-15.36-15.36-15.36h-163.84c-9.216 0-15.36 7.168-15.36 15.36zM536.576 366.080v163.84c0 8.192 7.168 15.36 15.36 15.36h163.84c8.192 0 15.36-7.168 15.36-15.36v-163.84c0-8.192-7.168-15.36-15.36-15.36h-163.84c-8.192 0-15.36 7.168-15.36 15.36zM487.424 773.632v-163.84c0-8.192-7.168-15.36-15.36-15.36h-163.84c-8.192 0-15.36 7.168-15.36 15.36v163.84c0 8.192 7.168 15.36 15.36 15.36h163.84c8.192 0 15.36-6.144 15.36-15.36zM292.864 122.368v163.84c0 8.192 7.168 15.36 15.36 15.36h163.84c8.192 0 15.36-7.168 15.36-15.36v-163.84c0-8.192-7.168-15.36-15.36-15.36h-163.84c-9.216 0-15.36 6.144-15.36 15.36z" />
<glyph unicode="&#xe904;" glyph-name="deliver" d="M915.456 914.944h-581.632c-61.44-2.048-110.592-51.2-108.544-112.64v-161.792l-206.848-120.832-4.096-2.048c-8.192-6.144-14.336-16.384-14.336-26.624v-344.064c0-18.432 14.336-32.768 32.768-32.768s32.768 14.336 32.768 32.768v323.584l204.8 120.832c14.336 4.096 24.576 18.432 24.576 34.816v169.984c0 12.288 4.096 22.528 12.288 30.72s18.432 12.288 30.72 12.288h569.344c22.528 0 43.008-18.432 43.008-43.008v-567.296c0-20.48 16.384-36.864 36.864-36.864s36.864 16.384 36.864 36.864v573.44c2.048 63.488-47.104 112.64-108.544 112.64zM808.96 269.824c-73.728 6.144-141.312-43.008-153.6-116.736h-247.808c-14.336 71.68-79.872 118.784-153.6 112.64-75.776-8.192-133.12-71.68-129.024-149.504 4.096-75.776 65.536-135.168 141.312-135.168 63.488 0 118.784 43.008 135.168 104.448h256c16.384-61.44 71.68-104.448 137.216-104.448h2.048c75.776 0 139.264 59.392 143.36 135.168 4.096 79.872-53.248 147.456-131.072 153.6zM315.392 79.36c-18.432-18.432-47.104-24.576-71.68-14.336s-40.96 34.816-40.96 61.44c0 36.864 28.672 65.536 65.536 65.536h2.048c26.624 0 49.152-16.384 59.392-40.96 10.24-22.528 4.096-51.2-14.336-71.68zM841.728 79.36c-12.288-12.288-28.672-20.48-47.104-20.48-34.816 0-67.584 28.672-67.584 65.536s28.672 65.536 65.536 67.584h6.144c14.336-2.048 28.672-8.192 40.96-18.432 12.288-12.288 20.48-28.672 20.48-47.104 0-16.384-6.144-34.816-18.432-47.104zM194.56 337.408h133.12c2.048 0 4.096 0 6.144 0 16.384 0 30.72 6.144 43.008 18.432 10.24 12.288 16.384 26.624 16.384 45.056v108.544c-2.048 18.432-18.432 32.768-36.864 32.768s-34.816-14.336-36.864-32.768v-96.256h-122.88c-20.48 0-34.816-16.384-36.864-36.864 0-22.528 16.384-38.912 34.816-38.912z" />
<glyph unicode="&#xe905;" glyph-name="pending-list" d="M403.456 34.304h-262.144c-4.096 0-6.144 0-10.24 0h-2.048c-4.096 0-6.144 2.048-10.24 2.048-2.048 0-6.144 2.048-8.192 2.048h-4.096c-2.048 2.048-6.144 2.048-8.192 4.096s-4.096 4.096-6.144 4.096c-4.096 4.096-6.144 6.144-10.24 10.24l-2.048 2.048c-2.048 2.048-4.096 6.144-4.096 8.192-2.048 2.048-4.096 6.144-4.096 8.192l-2.048 2.048c-2.048 4.096-4.096 10.24-4.096 14.336v6.144c0 2.048 0 4.096 0 4.096v681.984c0 2.048 0 4.096 0 6.144s0 2.048 0 4.096v2.048c2.048 6.144 2.048 12.288 4.096 18.432v4.096c2.048 2.048 2.048 6.144 4.096 8.192s2.048 4.096 4.096 6.144l2.048 4.096c2.048 2.048 4.096 4.096 6.144 6.144l4.096 4.096c4.096 4.096 10.24 6.144 14.336 8.192h2.048c6.144 2.048 12.288 4.096 18.432 4.096h4.096c2.048 0 4.096 0 8.192 0h599.040c2.048 0 4.096 0 8.192 0h2.048c2.048 0 2.048 0 4.096-2.048 2.048 0 6.144-2.048 8.192-2.048h2.048l4.096-2.048c4.096-2.048 8.192-4.096 14.336-8.192 2.048-2.048 4.096-2.048 4.096-4.096l2.048-2.048c2.048-2.048 4.096-4.096 6.144-8.192l2.048-4.096c2.048-4.096 4.096-8.192 6.144-12.288 0 0 0-2.048 2.048-4.096 2.048-4.096 4.096-10.24 4.096-14.336 0-2.048 0-2.048 0-4.096s0-6.144 0-8.192v-192.512c0-18.432 14.336-32.768 30.72-32.768s30.72 14.336 30.72 32.768v192.512c0 26.624-6.144 51.2-20.48 73.728-16.384 26.624-40.96 49.152-73.728 61.44-20.48 8.192-43.008 8.192-63.488 8.192h-549.888c-18.432 0-36.864 0-55.296-4.096-61.44-16.384-104.448-73.728-104.448-137.216v-668.672c0-43.008 16.384-81.92 45.056-108.544 24.576-22.528 57.344-34.816 90.112-36.864 2.048 0 6.144 0 8.192 0h259.072c18.432 0 30.72 14.336 30.72 32.768 3.072 15.36-11.264 29.696-29.696 29.696zM1004.544 153.088c-12.288 12.288-28.672 18.432-45.056 18.432h-53.248l-104.448 138.24c45.056 20.48 75.776 65.536 75.776 112.64 0 69.632-57.344 124.928-129.024 124.928s-129.024-57.344-129.024-124.928c0-49.152 30.72-92.16 75.776-112.64l-104.448-138.24h-53.248c-34.816 0-63.488-26.624-63.488-61.44v-81.92c0-32.768 28.672-61.44 63.488-61.44h422.912c34.816 0 63.488 26.624 63.488 61.44v81.92c-1.024 18.432-7.168 32.768-19.456 43.008zM683.008 424.448c0 34.816 28.672 63.488 65.536 63.488s65.536-28.672 65.536-63.488c0-34.816-28.672-61.44-65.536-63.488-36.864 2.048-65.536 30.72-65.536 63.488zM746.496 274.944h4.096l77.824-103.424h-157.696l75.776 103.424zM959.488 32.256h-421.888v77.824h420.864v-77.824zM566.272 714.24h-381.952c-18.432 0-32.768-14.336-32.768-32.768s14.336-32.768 32.768-32.768h381.952c18.432 0 32.768 14.336 32.768 32.768 0 19.456-14.336 32.768-32.768 32.768zM594.944 451.072c0 18.432-14.336 30.72-30.72 32.768h-371.712c-18.432 0-32.768-14.336-32.768-32.768s14.336-32.768 32.768-32.768h371.712c18.432 0 30.72 14.336 30.72 32.768zM192.512 258.56c-18.432 0-30.72-14.336-30.72-32.768s14.336-32.768 30.72-32.768h149.504c16.384 0 30.72 14.336 30.72 32.768s-14.336 30.72-30.72 32.768h-149.504z" />
<glyph unicode="&#xe906;" glyph-name="pic" d="M156.672 163.328c7.168 0 14.336 3.072 20.48 8.192l119.808 102.4c26.624 22.528 79.872 41.984 114.688 41.984h24.576c49.152 0 116.736 24.576 153.6 56.32l62.464 53.248c26.624 22.528 79.872 41.984 114.688 41.984h101.376c16.384 0 30.72 13.312 30.72 30.72 0 16.384-13.312 30.72-30.72 30.72h-101.376c-49.152 0-116.736-24.576-153.6-56.32l-62.464-53.248c-26.624-22.528-79.872-41.984-114.688-41.984h-24.576c-49.152 0-116.736-24.576-153.6-56.32l-120.832-103.424c-6.144-5.12-10.24-12.288-11.264-20.48s2.048-16.384 7.168-22.528c6.144-7.168 15.36-11.264 23.552-11.264zM968.704 908.8h-913.408c-30.72 0-55.296-24.576-55.296-55.296v-811.008c0-30.72 24.576-55.296 55.296-55.296h912.384c30.72 0 55.296 24.576 55.296 55.296v811.008c1.024 30.72-23.552 55.296-54.272 55.296zM963.584 47.616h-903.168v800.768h903.168v-800.768zM390.144 612.864c0-37.891-30.717-68.608-68.608-68.608s-68.608 30.717-68.608 68.608c0 37.891 30.717 68.608 68.608 68.608s68.608-30.717 68.608-68.608z" />
<glyph unicode="&#xe907;" glyph-name="custom-goods" d="M288.768 480.768c-37.888 0-68.608-30.72-68.608-68.608s30.72-68.608 68.608-68.608 68.608 30.72 68.608 68.608c1.024 37.888-29.696 68.608-68.608 68.608zM253.952 676.352c18.432 0 31.744 13.312 31.744 31.744 0 117.76 113.664 188.416 223.232 188.416 108.544 0 229.376-81.92 229.376-190.464 0-18.432 13.312-31.744 31.744-31.744 9.216 0 17.408 3.072 22.528 9.216s8.192 14.336 7.168 24.576c0 148.48-153.6 251.904-290.816 251.904-140.288 0-286.72-94.208-286.72-251.904 0-18.432 13.312-31.744 31.744-31.744zM965.632 595.456c-16.384 20.48-43.008 32.768-73.728 32.768h-757.76c-28.672 0-55.296-12.288-73.728-33.792s-25.6-49.152-20.48-78.848l78.848-479.232c10.24-57.344 62.464-101.376 119.808-101.376h545.792c57.344 0 109.568 45.056 119.808 101.376l78.848 480.256c7.168 30.72 0 57.344-17.408 78.848zM923.648 526.848l-78.848-478.208c-6.144-26.624-31.744-48.128-58.368-48.128h-546.816c-26.624 0-54.272 22.528-58.368 48.128l-78.848 476.16c-2.048 11.264 0 21.504 7.168 27.648 7.168 7.168 15.36 10.24 24.576 10.24h757.76c9.216 0 18.432-3.072 24.576-10.24 6.144-5.12 9.216-15.36 7.168-25.6zM733.184 480.768c-37.888 0-68.608-30.72-68.608-68.608s30.72-68.608 68.608-68.608c37.888 0 68.608 30.72 68.608 68.608s-30.72 68.608-68.608 68.608z" />
<glyph unicode="&#xe908;" glyph-name="custom-notice" d="M994.304 599.552c-19.456 19.456-44.032 29.696-71.68 29.696h-51.2l-296.96 276.48c-3.072 14.336-9.216 26.624-19.456 36.864-11.264 12.288-26.624 17.408-43.008 17.408-31.744 0-57.344-21.504-62.464-55.296l-296.96-276.48h-51.2c-55.296 0-101.376-46.080-101.376-101.376v-486.4c0-27.648 10.24-53.248 29.696-73.728 18.432-19.456 45.056-30.72 71.68-30.72h821.248c26.624 0 52.224 11.264 71.68 29.696 19.456 19.456 29.696 44.032 29.696 71.68v491.52c0 26.624-11.264 52.224-29.696 70.656zM474.112 847.36c11.264-9.216 23.552-13.312 37.888-13.312 6.144 0 24.576 1.024 37.888 13.312l232.448-217.088h-540.672l232.448 217.088zM963.584 50.688v0l-1.024-9.216c0-24.576-17.408-40.96-40.96-40.96h-822.272c-9.216-1.024-21.504 3.072-28.672 11.264s-10.24 19.456-10.24 29.696v486.4c0 24.576 17.408 40.96 40.96 40.96h821.248c24.576 0 40.96-17.408 40.96-40.96v-477.184zM850.944 314.88h-687.104c-17.408 0-29.696-12.288-29.696-29.696s12.288-29.696 29.696-29.696h691.2c17.408 0 29.696 12.288 29.696 29.696 0 7.168-2.048 14.336-7.168 19.456-7.168 7.168-16.384 10.24-26.624 10.24zM558.080 176.64h-394.24c-17.408 0-29.696-12.288-29.696-29.696s12.288-29.696 29.696-29.696h393.216c17.408 0 29.696 12.288 29.696 29.696 1.024 8.192-2.048 15.36-7.168 21.504-5.12 5.12-13.312 8.192-21.504 8.192zM850.944 458.24h-687.104c-17.408 0-29.696-12.288-29.696-29.696s12.288-29.696 29.696-29.696h691.2c17.408 0 29.696 12.288 29.696 29.696 0 7.168-2.048 14.336-7.168 19.456-6.144 6.144-16.384 10.24-26.624 10.24z" />
<glyph unicode="&#xe909;" glyph-name="custom-picture" d="M840.704 960h-657.408c-36.864 0-66.56-28.672-66.56-63.488v-897.024c0-34.816 29.696-63.488 66.56-63.488h658.432c36.864 0 66.56 28.672 66.56 63.488v897.024c-1.024 34.816-30.72 63.488-67.584 63.488zM856.064-0.512c0-8.192-7.168-14.336-15.36-14.336h-657.408c-8.192 0-15.36 7.168-15.36 14.336v897.024c0 8.192 7.168 14.336 15.36 14.336h658.432c8.192 0 15.36-7.168 15.36-14.336v-897.024zM649.216 799.232c0-28.277-22.923-51.2-51.2-51.2s-51.2 22.923-51.2 51.2c0 28.277 22.923 51.2 51.2 51.2s51.2-22.923 51.2-51.2zM603.136 466.432l-204.8 222.208-187.392-333.824h602.112l-141.312 220.16zM210.944 270.848h376.832v-49.152h-376.832v49.152zM210.944 145.92h600.064v-49.152h-600.064v49.152z" />
<glyph unicode="&#xe90a;" glyph-name="custom-picturew" d="M386.048 960h-325.632c-31.744 0-57.344-25.6-57.344-57.344v-325.632c0-31.744 25.6-57.344 57.344-57.344h325.632c31.744 0 57.344 25.6 57.344 57.344v325.632c0 31.744-25.6 57.344-57.344 57.344zM381.952 581.12h-317.44v317.44h317.44v-317.44zM386.048 374.272h-325.632c-31.744 0-57.344-25.6-57.344-57.344v-325.632c0-31.744 25.6-57.344 57.344-57.344h325.632c31.744 0 57.344 25.6 57.344 57.344v325.632c0 31.744-25.6 57.344-57.344 57.344zM381.952-4.608h-317.44v317.44h317.44v-317.44zM963.584 374.272h-325.632c-31.744 0-57.344-25.6-57.344-57.344v-325.632c0-31.744 25.6-57.344 57.344-57.344h325.632c31.744 0 57.344 25.6 57.344 57.344v325.632c0 31.744-25.6 57.344-57.344 57.344zM959.488-4.608h-317.44v317.44h317.44v-317.44zM598.016 619.008l152.576-91.136c0 0 0 0 0 0 8.192-5.12 17.408-6.144 26.624-4.096 8.192 2.048 16.384 7.168 21.504 16.384 0 0 0 0 0 0l218.112 366.592c10.24 16.384 4.096 37.888-12.288 48.128s-37.888 4.096-48.128-12.288l-199.68-336.896-122.88 73.728c-16.384 10.24-37.888 4.096-48.128-12.288s-4.096-37.888 12.288-48.128z" />
<glyph unicode="&#xe90b;" glyph-name="custom-richtext" d="M1008.64 944.64c-9.216 10.24-22.528 15.36-36.864 15.36h-919.552c-14.336 0-27.648-6.144-36.864-15.36-10.24-10.24-15.36-23.552-15.36-36.864v-919.552c0-14.336 6.144-27.648 15.36-36.864 10.24-10.24 23.552-15.36 36.864-15.36h918.528c14.336 0 27.648 6.144 36.864 15.36 10.24 10.24 15.36 23.552 15.36 36.864v919.552c1.024 14.336-5.12 27.648-14.336 36.864zM960.512 1.536h-899.072v896h900.096v-896zM681.984 239.104c5.12-5.12 12.288-8.192 19.456-8.192s14.336 3.072 19.456 8.192l190.464 190.464c5.12 5.12 8.192 14.336 8.192 19.456 0 8.192-2.048 13.312-8.192 19.456l-190.464 191.488c-5.12 5.12-12.288 8.192-19.456 8.192s-14.336-3.072-19.456-8.192c-11.264-11.264-11.264-27.648 0-38.912l172.032-172.032-172.032-171.008c-11.264-11.264-11.264-28.672 0-38.912zM434.176 162.304c2.048 0 3.072 0 5.12 0 11.264 0 25.6 7.168 28.672 19.456l140.288 519.168c3.072 7.168 2.048 14.336-1.024 20.48-4.096 7.168-10.24 11.264-18.432 12.288-2.048 0-3.072 0-5.12 0-11.264 0-25.6-7.168-28.672-19.456l-140.288-518.144c-3.072-13.312 5.12-29.696 19.456-33.792zM303.104 239.104c5.12-5.12 12.288-8.192 19.456-8.192s14.336 3.072 19.456 8.192c5.12 5.12 8.192 12.288 8.192 19.456s-3.072 14.336-8.192 19.456l-171.008 171.008 172.032 172.032c5.12 5.12 8.192 12.288 8.192 19.456s-3.072 14.336-8.192 19.456c-5.12 5.12-12.288 8.192-19.456 8.192s-14.336-3.072-19.456-8.192l-191.488-191.488c-6.144-6.144-8.192-11.264-8.192-19.456s2.048-13.312 8.192-19.456l190.464-190.464z" />
<glyph unicode="&#xe90c;" glyph-name="custom-search" d="M1015.808-12.8l-227.328 226.304c32.768 36.864 59.392 79.872 77.824 126.976 21.504 54.272 32.768 110.592 32.768 168.96s-11.264 114.688-32.768 168.96c-23.552 57.344-56.32 107.52-99.328 148.48-43.008 43.008-93.184 75.776-148.48 99.328-53.248 22.528-110.592 33.792-168.96 33.792s-114.688-11.264-168.96-32.768c-57.344-23.552-107.52-56.32-148.48-99.328-43.008-41.984-75.776-92.16-99.328-148.48-21.504-54.272-32.768-110.592-32.768-168.96s11.264-114.688 32.768-168.96c23.552-57.344 56.32-107.52 99.328-149.504 43.008-43.008 93.184-75.776 148.48-99.328 54.272-21.504 110.592-32.768 168.96-32.768s114.688 11.264 168.96 32.768c47.104 19.456 89.088 45.056 126.976 78.848l227.328-227.328c5.12-5.12 13.312-8.192 20.48-8.192 8.192 0 15.36 3.072 20.48 8.192 6.144 6.144 9.216 13.312 9.216 21.504 1.024 8.192-2.048 15.36-7.168 21.504zM726.016 235.008c-73.728-73.728-172.032-114.688-275.456-114.688-104.448 0-202.752 40.96-275.456 113.664-73.728 73.728-114.688 172.032-114.688 276.48s40.96 202.752 113.664 275.456c73.728 73.728 172.032 113.664 276.48 113.664s202.752-40.96 275.456-113.664c73.728-73.728 113.664-171.008 113.664-275.456s-40.96-202.752-113.664-275.456z" />
<glyph unicode="&#xe90d;" glyph-name="custom-seckill" d="M513.024-61.952c-68.608 0-136.192 13.312-198.656 39.936-60.416 25.6-115.712 62.464-162.816 109.568s-83.968 101.376-109.568 162.816c-26.624 63.488-39.936 130.048-39.936 198.656s13.312 136.192 39.936 198.656c25.6 60.416 62.464 115.712 109.568 162.816s101.376 83.968 162.816 109.568c63.488 26.624 130.048 39.936 198.656 39.936s136.192-13.312 198.656-39.936c60.416-25.6 115.712-62.464 162.816-109.568 46.080-47.104 82.944-101.376 108.544-162.816 26.624-63.488 39.936-130.048 39.936-198.656s-13.312-136.192-39.936-198.656c-25.6-60.416-62.464-115.712-109.568-162.816s-101.376-83.968-162.816-109.568c-62.464-26.624-129.024-39.936-197.632-39.936zM513.024 893.44c-245.76 0-445.44-199.68-445.44-444.416s199.68-444.416 444.416-444.416 444.416 199.68 444.416 444.416c1.024 244.736-198.656 444.416-443.392 444.416zM574.464 759.296l-217.088-353.28h108.544l-19.456-267.264 222.208 348.16h-120.832l26.624 272.384z" />
<glyph unicode="&#xe90e;" glyph-name="custom-shop" d="M1020.928 592.384c5.12 10.24 3.072 21.504-4.096 29.696l-231.424 276.48c-5.12 6.144-13.312 10.24-21.504 10.24h-503.808c-8.192 0-16.384-4.096-21.504-10.24l-232.448-275.456c-7.168-8.192-8.192-20.48-4.096-29.696v0l-1.024-1.024 510.976-605.184 505.856 600.064 3.072 5.12zM750.592 851.456l184.32-218.112h-205.824l-160.768 218.112h182.272zM658.432 633.344h-292.864l146.432 198.656 146.432-198.656zM273.408 851.456h182.272l-160.768-218.112h-205.824l184.32 218.112zM89.088 576h199.68l144.384-409.6-344.064 409.6zM349.184 576h324.608l-161.792-459.776-162.816 459.776zM589.824 168.448l144.384 409.6h200.704l-345.088-409.6z" />
<glyph unicode="&#xe90f;" glyph-name="custom-title" d="M680.96 622.080h-337.92c-17.408 0-29.696-12.288-29.696-29.696s12.288-29.696 29.696-29.696h140.288v-332.8c0-17.408 12.288-29.696 29.696-29.696s29.696 12.288 29.696 29.696v333.824h140.288c17.408 0 29.696 12.288 29.696 29.696-2.048 16.384-14.336 28.672-31.744 28.672zM916.48 745.984l-174.080 179.2c-21.504 21.504-61.44 34.816-86.016 34.816h-482.304c-56.32 0-101.376-46.080-101.376-101.376v-821.248c0-56.32 46.080-101.376 101.376-101.376h675.84c56.32 0 101.376 46.080 101.376 101.376v622.592c0 24.576-13.312 64.512-34.816 86.016zM892.928 37.376c0-20.48-16.384-43.008-43.008-43.008h-675.84c-21.504 0-43.008 21.504-43.008 43.008v820.224c0 20.48 16.384 43.008 43.008 43.008h483.328c13.312 0 35.84-9.216 45.056-17.408l174.080-179.2c8.192-8.192 17.408-31.744 17.408-45.056l-1.024-621.568z" />
<glyph unicode="&#xe910;" glyph-name="danger" d="M512-64c-282.624 0-512 229.376-512 512s229.376 512 512 512 512-229.376 512-512-229.376-512-512-512zM564.224 445.952l157.696 156.672c14.336 14.336 14.336 36.864 0 51.2s-37.888 14.336-51.2 0l-158.72-155.648-155.648 156.672c-14.336 14.336-37.888 14.336-51.2 0-14.336-14.336-14.336-37.888 0-52.224l154.624-155.648-156.672-155.648c-14.336-14.336-14.336-36.864 0-51.2 7.168-8.192 16.384-11.264 25.6-11.264s18.432 4.096 25.6 10.24l157.696 155.648 158.72-158.72c7.168-7.168 16.384-10.24 25.6-10.24s19.456 4.096 25.6 10.24c14.336 14.336 14.336 37.888 0 52.224 0-1.024-157.696 157.696-157.696 157.696z" />
<glyph unicode="&#xe911;" glyph-name="data" d="M1005.568 74.24h-82.944v752.64c0 30.72-24.576 55.296-55.296 55.296h-202.752c-30.72 0-55.296-24.576-55.296-55.296v-96.256h-197.632c-30.72 0-55.296-24.576-55.296-55.296v-96.256h-196.608c-30.72 0-55.296-24.576-55.296-55.296v-449.536h-45.056v745.472c0 16.384-13.312 29.696-29.696 29.696s-29.696-13.312-29.696-29.696v-805.888h1006.592c10.24 0 17.408 8.192 17.408 17.408v25.6c0 9.216-8.192 17.408-18.432 17.408zM862.208 821.76v-748.544h-192.512v748.544h192.512zM609.28 670.208v-596.992h-192.512v596.992h192.512zM356.352 518.656v-444.416h-192.512v444.416h192.512z" />
<glyph unicode="&#xe912;" glyph-name="data-filling" d="M1005.568 76.288h-946.176v745.472c0 16.384-13.312 29.696-29.696 29.696-16.384-1.024-29.696-14.336-29.696-29.696v-805.888h1006.592c10.24 0 17.408 8.192 17.408 17.408v25.6c0 8.192-8.192 17.408-18.432 17.408zM690.176 112.128h110.592c22.528 0 40.96 18.432 40.96 40.96v686.080c0 22.528-18.432 40.96-40.96 40.96h-110.592c-22.528 0-40.96-18.432-40.96-40.96v-687.104c0-22.528 18.432-39.936 40.96-39.936zM437.248 112.128h110.592c22.528 0 40.96 18.432 40.96 40.96v535.552c0 22.528-18.432 40.96-40.96 40.96h-110.592c-22.528 0-40.96-18.432-40.96-40.96v-535.552c0-23.552 18.432-40.96 40.96-40.96zM184.32 112.128h110.592c22.528 0 40.96 18.432 40.96 40.96v384c0 22.528-18.432 40.96-40.96 40.96h-110.592c-22.528 0-40.96-18.432-40.96-40.96v-382.976c0-23.552 18.432-41.984 40.96-41.984z" />
<glyph unicode="&#xe913;" glyph-name="default-avatar" d="M670.72 477.696c66.56 49.152 108.544 126.976 108.544 215.040 0 147.456-119.808 267.264-267.264 267.264s-267.264-119.808-267.264-267.264c0-88.064 43.008-166.912 108.544-215.040-129.024-63.488-218.112-193.536-218.112-299.008 0-144.384 168.96-242.688 376.832-242.688s376.832 97.28 376.832 242.688c0 106.496-89.088 236.544-218.112 299.008z" />
<glyph unicode="&#xe914;" glyph-name="delete" d="M977.92 799.232h-198.656v43.008c0 61.44-51.2 112.64-112.64 112.64h-319.488c-61.44 0-112.64-51.2-112.64-112.64v-43.008h-188.416c-18.432 0-32.768-14.336-32.768-32.768s14.336-32.768 32.768-32.768h59.392v-679.936c0-61.44 51.2-112.64 112.64-112.64h595.968c61.44 0 112.64 51.2 112.64 112.64v679.936h49.152c18.432 0 32.768 14.336 32.768 32.768v2.048l2.048 2.048c-6.144 18.432-17.408 28.672-32.768 28.672zM304.128 842.24c0 24.576 20.48 45.056 47.104 47.104h317.44c24.576 0 45.056-19.456 47.104-45.056v-43.008h-407.552l2.048 2.048h-6.144v38.912zM861.184 57.856h-2.048c-1.024-25.6-17.408-53.248-38.912-53.248h-593.92c-25.6 0-53.248 18.432-53.248 43.008l4.096 684.032h684.032v-673.792zM343.040 160.256c22.528-7.168 43.008 9.216 43.008 30.72v361.472c0 9.216-2.048 18.432-6.144 26.624-6.144 10.24-15.36 15.36-26.624 15.36-1.024 0-2.048 0-3.072 0-16.384 0-29.696-12.288-30.72-28.672v-373.76c-1.024-14.336 10.24-27.648 23.552-31.744zM517.12 159.232c21.504-5.12 40.96 11.264 40.96 31.744v361.472c0 9.216-2.048 18.432-6.144 26.624-6.144 10.24-15.36 15.36-26.624 15.36-1.024 0-2.048 0-3.072 0-16.384 0-29.696-12.288-30.72-28.672v-370.688c-1.024-16.384 10.24-31.744 25.6-35.84zM691.2 159.232c21.504-5.12 40.96 11.264 40.96 31.744v361.472c0 9.216-2.048 18.432-6.144 26.624-6.144 10.24-15.36 15.36-26.624 15.36-1.024 0-2.048 0-3.072 0-16.384 0-29.696-12.288-30.72-28.672v-370.688c-1.024-16.384 10.24-31.744 25.6-35.84z" />
<glyph unicode="&#xe915;" glyph-name="deliver-l" d="M931.84 910.848h-839.68c-51.2 0-92.16-40.96-92.16-92.16v-741.376c0-51.2 40.96-92.16 92.16-92.16h839.68c51.2 0 92.16 40.96 92.16 92.16v741.376c0 51.2-40.96 92.16-92.16 92.16zM411.648 843.264h208.896v-413.696l-94.208 49.152c-4.096 2.048-10.24 4.096-16.384 4.096s-12.288-2.048-16.384-6.144l-81.92-47.104c0 0 0 413.696 0 413.696zM69.632 818.688c0 12.288 10.24 22.528 22.528 22.528h253.952v-124.928h-276.48v102.4zM954.368 77.312c0-4.096-2.048-10.24-6.144-14.336s-10.24-6.144-14.336-6.144h-843.776c-12.288 0-22.528 10.24-22.528 22.528v569.344h274.432v-276.48c0-10.24 6.144-24.576 18.432-30.72 4.096-2.048 10.24-4.096 18.432-4.096s14.336 2.048 18.432 6.144l114.688 67.584 124.928-65.536c4.096-2.048 10.24-4.096 16.384-4.096 10.24 0 20.48 4.096 26.624 10.24s8.192 14.336 8.192 24.576v272.384h266.24v-571.392zM954.368 716.288h-264.192v122.88h241.664c12.288 0 22.528-10.24 22.528-22.528v-100.352z" />
<glyph unicode="&#xe916;" glyph-name="diamond" d="M996.352 647.68c-4.096 4.096-12.288 14.336-22.528 24.576l-12.288 14.336c-49.152 57.344-133.12 155.648-169.984 196.608-16.384 16.384-36.864 38.912-75.776 40.96-10.24 0-49.152 0-116.736 0-61.44 0-133.12 0-190.464 0h-71.68c-16.384 0-24.576 0-28.672 0-18.432 0-47.104-4.096-77.824-40.96-22.528-26.624-55.296-65.536-92.16-106.496l-2.048-2.048c-43.008-49.152-88.064-102.4-108.544-126.976-38.912-43.008-38.912-104.448-2.048-159.744l2.048-4.096c34.816-40.96 104.448-120.832 192.512-221.184l217.088-249.856c32.768-36.864 57.344-40.96 77.824-40.96 22.528 0 45.056 4.096 77.824 40.96l180.224 206.848c98.304 112.64 182.272 210.944 229.376 264.192 26.624 40.96 34.816 114.688-6.144 163.84zM943.104 530.944c-47.104-55.296-139.264-159.744-235.52-270.336l-174.080-198.656c-14.336-16.384-20.48-16.384-24.576-16.384s-10.24 0-24.576 16.384l-167.936 192.512c-100.352 116.736-196.608 225.28-239.616 276.48-18.432 28.672-18.432 55.296-2.048 73.728 20.48 24.576 61.44 71.68 104.448 120.832l24.576 28.672c28.672 32.768 55.296 63.488 73.728 86.016 14.336 16.384 20.48 16.384 24.576 16.384 0 0 172.032 0 292.864 0 88.064 0 110.592 0 114.688 0 8.192 0 12.288-2.048 26.624-18.432 36.864-38.912 116.736-133.12 165.888-190.464l6.144-6.144c16.384-18.432 26.624-32.768 32.768-36.864 18.432-22.528 16.384-57.344 2.048-73.728zM705.536 584.192l-196.608-251.904-196.608 251.904c-2.048 4.096-2.048 4.096-6.144 4.096h-96.256v-45.056h2.048c18.432 0 24.576-4.096 32.768-14.336 0-2.048 2.048-2.048 4.096-4.096 43.008-59.392 212.992-264.192 260.096-327.68 47.104 63.488 217.088 270.336 260.096 329.728 2.048 2.048 2.048 2.048 2.048 4.096 8.192 10.24 14.336 14.336 32.768 14.336h2.048v45.056h-96.256c-2.048-2.048-2.048-2.048-4.096-6.144z" />
<glyph unicode="&#xe917;" glyph-name="discount" d="M1004.544 487.936l-84.992 68.608c0 1.024-1.024 3.072-1.024 3.072l38.912 102.4c5.12 14.336 4.096 29.696-3.072 43.008s-20.48 21.504-35.84 24.576l-106.496 16.384c-1.024 0-2.048 2.048-3.072 2.048l-17.408 107.52c-1.024 4.096-2.048 8.192-3.072 12.288-7.168 18.432-25.6 29.696-45.056 29.696-6.144 0-12.288-1.024-18.432-4.096-80.896-30.72-99.328-37.888-102.4-38.912-1.024 0-3.072 1.024-3.072 1.024l-68.608 84.992c-10.24 12.288-23.552 18.432-38.912 18.432s-30.72-7.168-39.936-18.432l-68.608-84.992c0 0-2.048-1.024-4.096-1.024l-101.376 38.912c-4.096 2.048-8.192 3.072-12.288 3.072-26.624 3.072-51.2-15.36-54.272-41.984l-17.408-105.472c0-1.024-2.048-2.048-2.048-3.072l-108.544-17.408c-15.36-2.048-27.648-11.264-35.84-24.576-7.168-13.312-8.192-28.672-3.072-43.008l38.912-101.376c0-1.024 0-3.072-1.024-3.072l-84.992-68.608c-12.288-10.24-18.432-23.552-18.432-38.912s7.168-29.696 18.432-38.912l84.992-68.608c0-1.024 1.024-3.072 1.024-3.072l-38.912-102.4c-5.12-14.336-4.096-29.696 3.072-43.008 8.192-13.312 20.48-21.504 35.84-24.576l107.52-17.408c1.024 0 2.048-2.048 3.072-2.048l17.408-108.544c1.024-4.096 2.048-8.192 3.072-12.288 7.168-18.432 25.6-29.696 45.056-29.696 6.144 0 12.288 1.024 18.432 4.096 69.632 26.624 98.304 37.888 102.4 38.912 1.024 0 3.072-1.024 3.072-1.024l68.608-84.992c9.216-12.288 23.552-18.432 38.912-19.456 15.36 0 29.696 7.168 38.912 19.456l68.608 84.992c0 0 2.048 1.024 4.096 1.024l101.376-38.912c6.144-2.048 12.288-3.072 18.432-3.072 24.576 0 45.056 18.432 48.128 41.984l17.408 107.52c0 1.024 2.048 2.048 2.048 3.072l108.544 17.408c15.36 2.048 27.648 11.264 35.84 24.576 7.168 13.312 8.192 28.672 3.072 43.008l-38.912 102.4c0 1.024 1.024 3.072 1.024 3.072l84.992 68.608c12.288 9.216 19.456 23.552 19.456 38.912-1.024 14.336-8.192 29.696-19.456 37.888zM879.616 388.608c-19.456-17.408-27.648-46.080-18.432-71.68l34.816-90.112-95.232-15.36c-26.624-5.12-48.128-25.6-53.248-53.248l-15.36-95.232-90.112 34.816c-7.168 2.048-14.336 4.096-21.504 4.096-19.456 0-37.888-8.192-50.176-23.552l-60.416-74.752-60.416 74.752c-12.288 14.336-30.72 23.552-50.176 23.552-7.168 0-15.36-1.024-22.528-4.096l-90.112-34.816-15.36 95.232c-5.12 26.624-25.6 48.128-53.248 53.248l-95.232 15.36 34.816 90.112c9.216 25.6 1.024 54.272-19.456 71.68l-74.752 60.416 74.752 60.416c20.48 17.408 28.672 46.080 19.456 71.68l-34.816 91.136 95.232 15.36c26.624 5.12 48.128 25.6 53.248 53.248l15.36 95.232 90.112-34.816c7.168-2.048 14.336-4.096 21.504-4.096 19.456 0 37.888 8.192 50.176 23.552l60.416 74.752 60.416-74.752c17.408-20.48 46.080-28.672 71.68-19.456l90.112 34.816 15.36-95.232c5.12-26.624 25.6-48.128 53.248-53.248l95.232-15.36-34.816-90.112c-9.216-25.6-1.024-54.272 19.456-71.68l6.144-5.12 68.608-55.296-74.752-61.44zM598.016 477.696c-8.192 0-16.384-1.024-23.552-3.072l92.16 92.16c11.264 12.288 11.264 31.744-1.024 43.008-11.264 11.264-31.744 10.24-43.008-1.024l-91.136-91.136c2.048 7.168 2.048 15.36 2.048 22.528 0 28.672-11.264 55.296-31.744 75.776s-47.104 31.744-75.776 31.744c-59.392 0-107.52-48.128-107.52-107.52 0-12.288 2.048-24.576 6.144-36.864 15.36-41.984 56.32-70.656 100.352-70.656 8.192 0 15.36 1.024 23.552 2.048l-92.16-92.16c-6.144-6.144-9.216-13.312-9.216-21.504s3.072-15.36 9.216-21.504c11.264-11.264 31.744-11.264 43.008 0l92.16 92.16c-2.048-8.192-3.072-15.36-3.072-23.552 0-28.672 11.264-55.296 31.744-75.776s47.104-31.744 75.776-31.744c59.392 0 107.52 48.128 107.52 107.52 0 13.312-2.048 25.6-7.168 37.888-13.312 43.008-54.272 71.68-98.304 71.68zM429.056 498.176c-25.6-1.024-47.104 18.432-49.152 44.032 1.024 23.552 20.48 43.008 44.032 44.032 1.024 0 2.048 0 2.048 0 25.6-1.024 46.080-19.456 47.104-44.032-1.024-23.552-20.48-44.032-44.032-44.032zM630.784 339.456c-8.192-9.216-19.456-14.336-31.744-15.36-23.552 1.024-43.008 20.48-44.032 44.032-1.024 12.288 3.072 24.576 12.288 33.792 8.192 9.216 19.456 14.336 31.744 15.36 23.552-1.024 41.984-20.48 44.032-44.032 1.024-13.312-4.096-24.576-12.288-33.792z" />
<glyph unicode="&#xe918;" glyph-name="down-arrow" d="M532.48 187.904l481.28 471.040c6.144 6.144 10.24 15.36 10.24 24.576s-3.072 17.408-10.24 24.576c-14.336 13.312-35.84 13.312-49.152 0l-458.752-448.512-448.512 448.512c-6.144 6.144-15.36 10.24-24.576 10.24s-17.408-4.096-23.552-10.24c-13.312-13.312-13.312-35.84 0-49.152l474.112-471.040c6.144-6.144 15.36-10.24 24.576-10.24s17.408 3.072 24.576 10.24z" />
<glyph unicode="&#xe919;" glyph-name="drop-down" d="M1001.472 726.528c-16.384 16.384-39.936 22.528-62.464 22.528l-850.944-6.144c-22.528 0-45.056-6.144-62.464-22.528-33.792-33.792-33.792-84.992 0-118.784l424.96-425.984c6.144-6.144 16.384-11.264 22.528-16.384l6.144-6.144c28.672-11.264 68.608-6.144 91.136 16.384l424.96 431.104c39.936 39.936 34.816 91.136 6.144 125.952z" />
<glyph unicode="&#xe91a;" glyph-name="early-warn" d="M817.152 833.024c8.192 16.384 4.096 34.816-10.24 45.056l-2.048 2.048c-16.384 8.192-36.864 2.048-47.104-12.288l-63.488-108.544 59.392-34.816 63.488 108.544zM548.864 925.184c0 18.432-16.384 34.816-36.864 34.816s-36.864-16.384-36.864-34.816v-122.88h73.728v122.88zM1005.568 617.984c8.192 4.096 14.336 12.288 16.384 20.48s2.048 16.384-2.048 24.576l-6.144 6.144c-10.24 12.288-26.624 14.336-43.008 6.144l-108.544-63.488 32.768-59.392 110.592 65.536zM268.288 724.48l59.392 34.816-59.392 104.448-4.096 8.192c-10.24 14.336-30.72 18.432-45.056 10.24-8.192-4.096-14.336-12.288-16.384-20.48s0-18.432 4.096-26.624l61.44-110.592zM987.136 9.728h-122.88v344.064c0 194.56-157.696 352.256-352.256 352.256s-351.232-157.696-351.232-352.256v-344.064h-120.832c-20.48 0-36.864-16.384-36.864-36.864s16.384-36.864 36.864-36.864h947.2c20.48 0 36.864 16.384 36.864 36.864s-16.384 36.864-36.864 36.864zM788.48 9.728h-553.984v344.064h-2.048c0 153.6 124.928 278.528 278.528 278.528s277.504-124.928 277.504-278.528v-344.064zM17.408 617.984l108.544-63.488 32.768 59.392-110.592 63.488c-14.336 8.192-36.864 2.048-45.056-14.336-6.144-14.336-2.048-36.864 14.336-45.056zM536.576 562.688l-174.080-284.672h139.264l-34.816-215.040 174.080 286.72h-139.264z" />
<glyph unicode="&#xe91b;" glyph-name="edit" d="M907.264 699.904c-20.48 0-31.744-16.384-31.744-31.744v-602.112c0-29.696-22.528-52.224-52.224-52.224h-703.488c-29.696 0-52.224 22.528-52.224 52.224v707.584c0 29.696 22.528 52.224 52.224 52.224h570.368c20.48 0 31.744 16.384 31.744 31.744 0 16.384-15.36 31.744-31.744 31.744h-570.368c-65.536 0-119.808-53.248-119.808-115.712v-707.584c0-63.488 53.248-115.712 119.808-115.712h703.488c65.536 0 118.784 52.224 118.784 115.712v603.136c-4.096 20.48-16.384 30.72-34.816 30.72zM480.256 605.696h-305.152c-20.48 0-31.744-16.384-31.744-31.744 0-16.384 15.36-31.744 31.744-31.744h305.152c20.48 0 31.744 16.384 31.744 31.744 0 20.48-16.384 31.744-31.744 31.744zM143.36 378.368c0-16.384 15.36-31.744 31.744-31.744h503.808c20.48 0 31.744 16.384 31.744 31.744 0 16.384-15.36 31.744-31.744 31.744h-503.808c-16.384 0-31.744-16.384-31.744-31.744zM1014.784 937.472c-11.264 11.264-31.744 12.288-47.104 0l-357.376-354.304c-6.144-6.144-9.216-13.312-9.216-22.528 0-8.192 3.072-16.384 9.216-22.528s14.336-9.216 22.528-9.216 17.408 3.072 24.576 9.216l357.376 354.304c6.144 6.144 9.216 14.336 9.216 23.552 0 8.192-3.072 15.36-9.216 21.504z" />
<glyph unicode="&#xe91c;" glyph-name="edit-l" d="M212.992 83.456l129.024 12.288c11.264 0 30.72 6.144 37.888 18.432l624.64 624.64c11.264 11.264 17.408 26.624 17.408 41.984s-6.144 30.72-17.408 41.984l-119.808 119.808c-11.264 11.264-26.624 17.408-41.984 17.408s-30.72-6.144-41.984-17.408l-625.664-625.664c-6.144-6.144-17.408-17.408-17.408-37.888l-12.288-130.048c0-19.456 6.144-36.864 18.432-48.128 13.312-11.264 30.72-17.408 49.152-17.408zM842.752 891.392l112.64-112.64-71.68-71.68-112.64 112.64 71.68 71.68zM724.992 773.632l112.64-112.64-393.216-391.168-112.64 112.64 393.216 391.168zM216.064 272.896l67.584 62.464 112.64-112.64-61.44-61.44-128-12.288 9.216 123.904zM988.16 2.56h-954.368c-20.48 0-33.792-13.312-33.792-33.792s13.312-33.792 33.792-33.792h957.44c20.48 0 33.792 13.312 33.792 33.792-3.072 21.504-16.384 33.792-36.864 33.792z" />
<glyph unicode="&#xe91d;" glyph-name="emoji" d="M683.008 441.856c29.696 0 54.272 24.576 54.272 54.272v72.704c0 29.696-24.576 54.272-54.272 54.272s-54.272-24.576-54.272-54.272v-72.704c-1.024-29.696 23.552-54.272 54.272-54.272zM356.352 441.856c29.696 0 54.272 24.576 54.272 54.272v72.704c0 29.696-24.576 54.272-54.272 54.272s-54.272-24.576-54.272-54.272v-72.704c0-29.696 23.552-54.272 54.272-54.272zM518.144 953.856c-279.552 0-507.904-227.328-507.904-507.904s227.328-507.904 507.904-507.904 507.904 227.328 507.904 507.904-228.352 507.904-507.904 507.904zM518.144 10.752c-239.616 0-435.2 195.584-435.2 435.2s195.584 435.2 435.2 435.2 435.2-195.584 435.2-435.2-195.584-435.2-435.2-435.2zM771.072 328.192c-15.36 12.288-38.912 9.216-51.2-7.168-47.104-62.464-120.832-98.304-200.704-98.304-78.848 0-151.552 35.84-199.68 97.28-12.288 15.36-34.816 18.432-51.2 6.144-15.36-12.288-18.432-34.816-6.144-51.2 62.464-79.872 155.648-124.928 257.024-124.928 102.4 0 196.608 46.080 259.072 128 12.288 15.36 9.216 37.888-7.168 50.176z" />
<glyph unicode="&#xe91e;" glyph-name="event-goods" d="M225.28 639.488c22.528 78.848 95.232 132.096 178.176 132.096 80.896 0 153.6-54.272 177.152-133.12l2.048-7.168h75.776l-3.072 11.264c-27.648 118.784-131.072 201.728-251.904 201.728s-227.328-84.992-251.904-202.752l-3.072-9.216h73.728l3.072 7.168zM1024 307.712c0 29.696-4.096 52.224-8.192 72.704-5.12 20.48-14.336 40.96-28.672 65.536-22.528 35.84-22.528 63.488-21.504 71.68 3.072 13.312-3.072 27.648-14.336 36.864-11.264 8.192-24.576 11.264-39.936 5.12l-4.096-2.048c-27.648-16.384-46.080-38.912-56.32-68.608-9.216 27.648-13.312 58.368-15.36 73.728v41.984c0 6.144 1.024 11.264 1.024 15.36 1.024 10.24 1.024 14.336 2.048 17.408v7.168c2.048 12.288-1.024 24.576-10.24 33.792s-22.528 12.288-33.792 8.192h-2.048c-9.216-2.048-21.504-6.144-49.152-23.552-13.312-10.24-27.648-21.504-41.984-34.816-6.144-6.144-13.312-14.336-19.456-23.552h-585.728c-58.368-6.144-101.376-59.392-95.232-117.76l36.864-342.016c6.144-55.296 50.176-95.232 105.472-95.232h623.616l-10.24 7.168c1.024 0 1.024 0 2.048 0 153.6 2.048 265.216 107.52 265.216 250.88zM800.768 561.664c2.048-26.624 11.264-70.656 26.624-108.544l1.024-2.048 1.024-1.024c0 0 1.024-1.024 1.024-2.048 0-2.048 1.024-4.096 2.048-5.12l2.048-3.072c3.072-4.096 6.144-7.168 9.216-9.216v-8.192l3.072 7.168c4.096-2.048 9.216-2.048 13.312-1.024 11.264 3.072 17.408 9.216 19.456 19.456l5.12 22.528c7.168 25.6 20.48 44.032 39.936 55.296l2.048 1.024c0 0 0 0 0 0h1.024v-1.024c-2.048-13.312-2.048-49.152 27.648-96.256 11.264-17.408 18.432-33.792 24.576-55.296 5.12-14.336 7.168-33.792 7.168-61.44-2.048-128-96.256-217.088-227.328-217.088-25.6 0-49.152 3.072-71.68 9.216l-12.288 9.216h-12.288c-23.552 10.24-44.032 24.576-62.464 41.984-40.96 39.936-62.464 90.112-62.464 151.552 0 24.576 7.168 57.344 14.336 76.8v2.048c0 0 0 1.024 1.024 2.048 0 1.024 1.024 3.072 1.024 4.096 2.048 4.096 3.072 8.192 4.096 12.288s3.072 8.192 4.096 12.288c8.192 19.456 11.264 25.6 14.336 29.696 7.168-27.648 16.384-50.176 28.672-70.656l11.264-16.384 1.024-1.024c5.12-5.12 11.264-7.168 16.384-6.144h1.024c10.24 0 18.432 9.216 18.432 20.48v1.024c-3.072 21.504 6.144 60.416 13.312 88.064 2.048 9.216 4.096 17.408 5.12 23.552 3.072 17.408 8.192 35.84 15.36 52.224 1.024 2.048 2.048 4.096 2.048 5.12 10.24 23.552 23.552 44.032 36.864 56.32 12.288 12.288 22.528 21.504 35.84 30.72 20.48 14.336 29.696 17.408 36.864 18.432h1.024c1.024 0 1.024 0 2.048 0v-5.12c0-2.048 0-5.12-1.024-10.24-1.024-6.144-2.048-14.336-3.072-26.624l2.048-45.056zM635.904 493.056c-1.024-6.144-3.072-14.336-5.12-22.528-2.048-11.264-5.12-25.6-8.192-38.912-3.072 8.192-6.144 17.408-8.192 27.648-5.12 14.336-16.384 24.576-31.744 26.624s-29.696-5.12-37.888-19.456c-4.096-6.144-8.192-12.288-17.408-36.864l-11.264-27.648-1.024-1.024v-2.048c0 0 0-1.024-1.024-2.048 0-1.024-1.024-3.072-1.024-5.12-7.168-22.528-15.36-58.368-15.36-87.040 0-70.656 24.576-131.072 73.728-179.2 4.096-4.096 9.216-8.192 13.312-12.288h-439.296c-20.48 0-37.888 15.36-38.912 34.816l-36.864 342.016v5.12c0 21.504 17.408 38.912 38.912 38.912h537.6c-5.12-13.312-8.192-27.648-10.24-40.96z" />
<glyph unicode="&#xe91f;" glyph-name="expand" d="M0 148.992h1024v-111.616h-1024v111.616zM0 858.624h1024v-111.616h-1024v111.616zM0 504.32h1024v-111.616h-1024v111.616z" />
<glyph unicode="&#xe920;" glyph-name="expand1" d="M1012.736 713.216c-15.36 16.384-40.96 18.432-58.368 3.072l-448.512-448.512-436.224 437.248c-16.384 15.36-40.96 15.36-57.344 0s-17.408-41.984-1.024-58.368l464.896-464.896c7.168-8.192 18.432-13.312 30.72-13.312 11.264 0 21.504 4.096 29.696 12.288l477.184 477.184c13.312 16.384 13.312 39.936-1.024 55.296z" />
<glyph unicode="&#xe921;" glyph-name="feedback" d="M291.84 553.472c18.432-1.024 32.768 11.264 34.816 28.672-1.024 36.864 7.168 65.536 24.576 83.968 16.384 17.408 41.984 24.576 74.752 20.48 52.224-6.144 71.68-26.624 71.68-77.824 0-19.456-26.624-50.176-54.272-79.872-44.032-45.056-65.536-84.992-65.536-119.808v-35.84c3.072-14.336 16.384-25.6 31.744-25.6h1.024c15.36 0 28.672 11.264 31.744 26.624v24.576c0 26.624 20.48 60.416 59.392 98.304 44.032 39.936 66.56 77.824 66.56 111.616-3.072 93.184-52.224 142.336-146.432 145.408h-4.096c-104.448 0-156.672-58.368-156.672-173.056 0-16.384 14.336-27.648 30.72-27.648zM421.888 316.928c-21.504 0-38.912-17.408-38.912-38.912v-9.216c0-21.504 17.408-38.912 38.912-38.912s38.912 17.408 38.912 38.912v9.216c0 21.504-17.408 38.912-38.912 38.912zM826.368 446.976l1.024 424.96v26.624c-1.024 33.792-27.648 60.416-62.464 61.44h-696.32c-33.792-1.024-61.44-28.672-62.464-62.464v-811.008c1.024-33.792 28.672-61.44 62.464-62.464h473.088l284.672 420.864v2.048zM766.976 464.384l-258.048-379.904h-441.344c-1.024 0-1.024 1.024-1.024 1.024v813.056c0 1.024 1.024 1.024 1.024 1.024h699.392v-435.2zM1013.76 345.6l-139.264 94.208c-5.12 3.072-11.264 2.048-14.336-3.072l-228.352-331.776c-1.024-2.048-2.048-4.096-2.048-6.144l-2.048-130.048v-22.528c0-7.168 7.168-12.288 14.336-10.24l20.48 8.192 120.832 49.152c2.048 1.024 4.096 2.048 5.12 4.096l228.352 332.8c3.072 5.12 2.048 12.288-3.072 15.36zM748.544 24.064l-65.536-26.624c-7.168-3.072-15.36 2.048-15.36 10.24l1.024 67.584c0 2.048 0 4.096 1.024 5.12l79.872-55.296-1.024-1.024zM951.296 316.928l-173.056-249.856-80.896 55.296 173.056 250.88c3.072 5.12 10.24 6.144 15.36 3.072l62.464-41.984c5.12-4.096 6.144-11.264 3.072-17.408z" />
<glyph unicode="&#xe922;" glyph-name="finance" d="M409.6 208.384c-9.216 0-17.408-8.192-17.408-17.408s8.192-17.408 17.408-17.408h86.016v-53.248c0-9.216 8.192-17.408 17.408-17.408s17.408 8.192 17.408 17.408v54.272h86.016c9.216 0 17.408 8.192 17.408 17.408s-8.192 17.408-17.408 17.408h-86.016v48.128h86.016c9.216 0 17.408 8.192 17.408 17.408s-8.192 17.408-17.408 17.408h-79.872l91.136 77.824c7.168 6.144 8.192 17.408 2.048 24.576s-17.408 8.192-24.576 2.048l-93.184-79.872-91.136 78.848c-7.168 6.144-18.432 5.12-24.576-2.048s-5.12-18.432 2.048-24.576l91.136-77.824h-79.872c-9.216 0-17.408-8.192-17.408-17.408s8.192-17.408 17.408-17.408h86.016v-48.128h-86.016zM1003.52 518.656h-49.152v162.816c0 11.264-8.192 20.48-17.408 20.48h-95.232v168.96c0 11.264-6.144 20.48-13.312 20.48h-632.832c-7.168 0-13.312-9.216-13.312-20.48v-168.96h-95.232c-10.24 0-17.408-9.216-17.408-20.48v-162.816h-49.152c-11.264 0-20.48-9.216-20.48-20.48v-473.088c0-11.264 9.216-20.48 20.48-20.48h983.040c11.264 0 20.48 9.216 20.48 20.48v473.088c0 11.264-9.216 20.48-20.48 20.48zM224.256 842.24h576.512v-140.288h-245.76l30.72 40.96c5.12 6.144 5.12 17.408 1.024 24.576s-11.264 8.192-15.36 2.048l-50.176-66.56h-18.432l-50.176 66.56c-5.12 6.144-11.264 5.12-15.36-2.048s-3.072-18.432 1.024-24.576l30.72-40.96h-244.736v140.288zM121.856 652.8h780.288v-134.144h-325.632l34.816 34.816c6.144 6.144 7.168 17.408 2.048 24.576s-14.336 8.192-20.48 2.048l-60.416-60.416h-36.864l-60.416 60.416c-6.144 6.144-15.36 5.12-21.504-2.048-5.12-7.168-5.12-18.432 2.048-24.576l34.816-34.816h-326.656v134.144h-2.048zM975.872 53.76h-926.72v415.744h926.72v-415.744z" />
<glyph unicode="&#xe923;" glyph-name="finance1" d="M453.632 389.632c14.336 0 20.48 0 28.672 0 10.24 0 20.48 0 28.672 2.048 18.432 2.048 32.768 16.384 32.768 34.816 0 20.48-14.336 34.816-32.768 34.816-2.048 0-2.048 0-4.096 0-8.192-2.048-16.384-2.048-26.624-2.048-8.192 0-14.336 0-22.528 0h-4.096c-190.464 0-335.872 67.584-335.872 112.64v100.352c73.728-51.2 198.656-79.872 335.872-79.872 135.168 0 260.096 30.72 335.872 79.872v-202.752c0-18.432 16.384-34.816 34.816-34.816s34.816 16.384 34.816 34.816v307.2c0 100.352-182.272 182.272-405.504 182.272s-405.504-81.92-405.504-182.272v-657.408c0-100.352 182.272-182.272 405.504-182.272 14.336 0 20.48 0 28.672 0 10.24 0 20.48 0 28.672 2.048 18.432 2.048 32.768 16.384 32.768 34.816 0 20.48-14.336 34.816-32.768 34.816-2.048 0-2.048 0-4.096 0-8.192-2.048-16.384-2.048-26.624-2.048-6.144 0-14.336 0-20.48 0h-6.144c-190.464 0-335.872 67.584-335.872 112.64v147.456c73.728-51.2 198.656-79.872 335.872-79.872 14.336 0 20.48 0 28.672 0 10.24 0 20.48 0 28.672 2.048 18.432 2.048 32.768 16.384 32.768 34.816 0 20.48-14.336 34.816-32.768 34.816-2.048 0-2.048 0-4.096 0-8.192-2.048-16.384-2.048-26.624-2.048-8.192 0-14.336 0-22.528 0h-6.144c-190.464 0-335.872 67.584-335.872 112.64v100.352c75.776-51.2 200.704-79.872 337.92-79.872zM453.632 889.344c190.464 0 335.872-67.584 335.872-112.64 0-43.008-143.36-112.64-335.872-112.64s-335.872 67.584-335.872 112.64c0 43.008 143.36 112.64 335.872 112.64zM934.912 141.824h-98.304v43.008h100.352c18.432 0 34.816 16.384 34.816 34.816s-16.384 34.816-34.816 34.816h-49.152l71.68 71.68c14.336 14.336 14.336 34.816 0 49.152s-34.816 14.336-49.152 0l-106.496-108.544-106.496 108.544c-14.336 14.336-36.864 14.336-49.152 0-14.336-14.336-14.336-34.816 0-49.152l71.68-71.68h-49.152c-18.432 0-34.816-16.384-34.816-34.816s16.384-34.816 34.816-34.816h100.352v-43.008h-100.352c-18.432 0-34.816-16.384-34.816-34.816s16.384-34.816 34.816-34.816h100.352v-100.352c0-18.432 16.384-34.816 34.816-34.816s34.816 16.384 34.816 34.816v100.352h100.352c18.432 0 34.816 16.384 34.816 34.816-6.144 18.432-22.528 34.816-40.96 34.816z" />
<glyph unicode="&#xe924;" glyph-name="finance-filling" d="M1003.52 518.656h-49.152v162.816c0 11.264-8.192 20.48-17.408 20.48h-95.232v168.96c0 11.264-6.144 20.48-13.312 20.48h-632.832c-7.168 0-13.312-9.216-13.312-20.48v-168.96h-95.232c-10.24 0-17.408-9.216-17.408-20.48v-162.816h-49.152c-11.264 0-20.48-9.216-20.48-20.48v-473.088c0-11.264 9.216-20.48 20.48-20.48h983.040c11.264 0 20.48 9.216 20.48 20.48v473.088c0 11.264-9.216 20.48-20.48 20.48zM224.256 842.24h576.512v-140.288h-245.76l30.72 40.96c5.12 6.144 5.12 17.408 1.024 24.576s-11.264 8.192-15.36 2.048l-50.176-66.56h-18.432l-50.176 66.56c-5.12 6.144-11.264 5.12-15.36-2.048s-3.072-18.432 1.024-24.576l30.72-40.96h-244.736v140.288zM616.448 209.408c9.216 0 17.408-8.192 17.408-17.408s-8.192-17.408-17.408-17.408h-86.016v-54.272c0-9.216-8.192-17.408-17.408-17.408s-17.408 8.192-17.408 17.408v53.248h-86.016c-9.216 0-17.408 8.192-17.408 17.408s8.192 17.408 17.408 17.408c0 0 86.016 0 86.016 0v48.128h-86.016c-9.216 0-17.408 8.192-17.408 17.408s8.192 17.408 17.408 17.408h79.872l-91.136 77.824c-7.168 6.144-8.192 17.408-2.048 24.576s17.408 8.192 24.576 2.048l91.136-78.848 93.184 79.872c7.168 6.144 18.432 5.12 24.576-2.048s5.12-18.432-2.048-24.576l-91.136-77.824h79.872c9.216 0 17.408-8.192 17.408-17.408s-8.192-17.408-17.408-17.408h-86.016v-48.128h86.016zM902.144 518.656h-325.632l34.816 34.816c6.144 6.144 7.168 17.408 2.048 24.576s-14.336 8.192-20.48 2.048l-60.416-60.416h-36.864l-60.416 60.416c-6.144 6.144-15.36 5.12-21.504-2.048-5.12-7.168-5.12-18.432 2.048-24.576l34.816-34.816h-326.656v134.144h778.24v-134.144z" />
<glyph unicode="&#xe925;" glyph-name="finish" d="M793.6 644.608l-312.32-326.656c-10.24-10.24-23.552-15.36-36.864-15.36-12.288 0-23.552 4.096-32.768 12.288l-153.6 146.432-39.936-43.008 153.6-146.432c20.48-19.456 47.104-29.696 74.752-29.696 28.672 0 56.32 12.288 77.824 32.768l312.32 329.728-43.008 39.936zM512 958.976c-282.624 0-512-229.376-512-512 0-137.216 53.248-266.24 149.504-362.496s225.28-149.504 362.496-149.504 266.24 53.248 362.496 149.504c96.256 96.256 149.504 225.28 149.504 362.496 0 281.6-229.376 512-512 512zM512-3.584c-248.832 0-450.56 201.728-450.56 450.56s201.728 450.56 450.56 450.56 450.56-201.728 450.56-450.56c0-248.832-201.728-450.56-450.56-450.56z" />
<glyph unicode="&#xe926;" glyph-name="form1" d="M804.864 960h-585.728c-79.872 0-145.408-65.536-145.408-145.408v-733.184c0-79.872 65.536-145.408 145.408-145.408h585.728c79.872 0 145.408 65.536 145.408 145.408v733.184c0 79.872-65.536 145.408-145.408 145.408zM878.592 81.408c0-40.96-32.768-73.728-73.728-73.728h-585.728c-40.96 0-73.728 32.768-73.728 73.728v733.184c0 40.96 32.768 73.728 73.728 73.728h585.728c40.96 0 73.728-32.768 73.728-73.728v-733.184zM743.424 484.864h-468.992c-20.48-2.048-34.816-18.432-34.816-38.912 4.096-18.432 20.48-34.816 38.912-34.816h468.992c10.24 0 18.432 4.096 24.576 12.288s10.24 16.384 8.192 26.624c-2.048 18.432-16.384 34.816-36.864 34.816zM280.576 558.592h462.848c20.48 0 36.864 16.384 36.864 36.864s-16.384 36.864-36.864 36.864h-462.848c-20.48 0-36.864-16.384-36.864-36.864s16.384-36.864 36.864-36.864zM595.968 339.456h-315.392c-2.048 0-6.144 0-8.192 0-20.48-2.048-32.768-20.48-30.72-40.96s16.384-32.768 34.816-32.768c2.048 0 2.048 0 4.096 0h315.392c20.48 0 36.864 16.384 36.864 36.864s-16.384 36.864-36.864 36.864z" />
<glyph unicode="&#xe927;" glyph-name="form11" d="M434.176 596.48h-225.28c-10.24 0-20.48-4.096-26.624-12.288-6.144-6.144-8.192-16.384-8.192-24.576 0-16.384 10.24-34.816 34.816-34.816h227.328c10.24 0 20.48 4.096 26.624 12.288 6.144 6.144 8.192 16.384 8.192 24.576 0 15.36-12.288 34.816-36.864 34.816zM888.832 668.16c-18.432 0-36.864-10.24-36.864-34.816v-587.776c0-20.48-18.432-36.864-38.912-36.864h-679.936c-20.48 0-38.912 18.432-38.912 36.864v735.232c0 20.48 18.432 36.864 38.912 36.864h528.384c24.576 0 34.816 18.432 34.816 34.816s-10.24 36.864-34.816 36.864h-528.384c-61.44 0-112.64-49.152-112.64-108.544v-735.232c0-57.344 47.104-106.496 106.496-108.544h686.080c61.44 0 112.64 49.152 112.64 108.544v586.752c0 25.6-20.48 35.84-36.864 35.84zM180.224 365.056c-6.144-6.144-8.192-16.384-8.192-24.576 0-16.384 10.24-34.816 34.816-34.816h452.608c24.576 0 34.816 18.432 34.816 34.816s-10.24 36.864-34.816 36.864h-450.56c-12.288-2.048-20.48-6.144-28.672-12.288zM993.28 949.76c-14.336 12.288-38.912 12.288-53.248 0l-376.832-363.52c-14.336-16.384-14.336-34.816 0-51.2 8.192-6.144 16.384-10.24 26.624-10.24s18.432 4.096 26.624 10.24l376.832 363.52 6.144 8.192c8.192 15.36 6.144 29.696-6.144 43.008z" />
<glyph unicode="&#xe928;" glyph-name="free" d="M1022.976 483.84v0c-1.024 14.336-2.048 25.6-4.096 38.912v2.048c-6.144 39.936-16.384 77.824-29.696 113.664v2.048c0 1.024-1.024 2.048-1.024 3.072v1.024c0 1.024-1.024 2.048-1.024 3.072v1.024c0 1.024-1.024 1.024 0 1.024l-3.072 7.168c0 1.024-1.024 1.024-1.024 2.048v2.048l-4.096 2.048c0 1.024-1.024 1.024-1.024 2.048l-3.072 6.144c0 1.024-1.024 1.024-1.024 2.048s-1.024 1.024-1.024 2.048c0 1.024-1.024 2.048-1.024 2.048-1.024 1.024-1.024 2.048-2.048 3.072 0 1.024-1.024 1.024-1.024 2.048l-2.048 3.072c0 1.024-1.024 2.048-1.024 2.048l-2.048 3.072c0 1.024-1.024 2.048-1.024 2.048 0 1.024-1.024 2.048-2.048 3.072 0 1.024-1.024 2.048-1.024 2.048 0 1.024-1.024 1.024-1.024 2.048l-1.024 2.048c0 1.024-1.024 2.048-2.048 3.072l-1.024 2.048c-1.024 1.024-1.024 2.048-2.048 2.048 0 1.024-1.024 1.024-1.024 1.024 0 1.024-1.024 1.024-1.024 2.048l-1.024 2.048c-1.024 2.048-2.048 3.072-3.072 4.096v1.024c-1.024 1.024-2.048 3.072-3.072 4.096 0 0 0 1.024-1.024 1.024 0 1.024-1.024 1.024-2.048 2.048l-2.048 4.096c0 1.024-1.024 1.024-1.024 2.048l-1.024 2.048c0 1.024-1.024 1.024-1.024 2.048l-6.144 8.192c-13.312 18.432-27.648 35.84-44.032 52.224l-10.24 10.24c-2.048 2.048-5.12 5.12-7.168 7.168-48.128 47.104-103.424 82.944-164.864 106.496-58.368 23.552-120.832 34.816-184.32 34.816-26.624 1.024-53.248-1.024-82.944-6.144-36.864-5.12-73.728-15.36-107.52-28.672-1.024 0-2.048-1.024-3.072-1.024l-4.096-1.024c-1.024 0-1.024-1.024-2.048-1.024s-1.024 0-1.024-1.024c-6.144-2.048-12.288-5.12-17.408-8.192-61.44-23.552-116.736-62.464-165.888-115.712-56.32-61.44-96.256-136.192-116.736-216.064-17.408-66.56-21.504-135.168-11.264-203.776 18.432-121.856 79.872-232.448 172.032-311.296 1.024-1.024 2.048-2.048 3.072-3.072 0 0 0 0 1.024-1.024 91.136-76.8 206.848-119.808 326.656-119.808 7.168 0 15.36 0 23.552 1.024 10.24 1.024 19.456 5.12 25.6 12.288 7.168 8.192 10.24 17.408 9.216 27.648s-5.12 19.456-12.288 25.6c-7.168 6.144-15.36 9.216-24.576 9.216-1.024 0-2.048 0-2.048 0-100.352-4.096-196.608 24.576-275.456 82.944l-2.048 3.072c-8.192 6.144-16.384 12.288-24.576 19.456l-2.048 2.048c-2.048 2.048-5.12 4.096-7.168 7.168-119.808 108.544-167.936 273.408-128 430.080 32.768 126.976 123.904 234.496 244.736 288.768l6.144 3.072c2.048 1.024 3.072 1.024 5.12 2.048l2.048 1.024c1.024 0 2.048 1.024 4.096 2.048 44.032 17.408 91.136 27.648 140.288 29.696 55.296 2.048 110.592-6.144 163.84-25.6l4.096-1.024c5.12-2.048 10.24-3.072 14.336-5.12h3.072c1.024 0 1.024 0 2.048 0l3.072-2.048c31.744-13.312 60.416-30.72 87.040-50.176 8.192-6.144 16.384-12.288 24.576-19.456 1.024-1.024 2.048-2.048 3.072-3.072 1.024 0 1.024-1.024 2.048-2.048l2.048-2.048c1.024-1.024 2.048-2.048 4.096-4.096 1.024-1.024 2.048-2.048 3.072-3.072 19.456-18.432 36.864-37.888 52.224-59.392l2.048-3.072c0 0 1.024-1.024 2.048-2.048l2.048-3.072c0-1.024 0-1.024 1.024-2.048s1.024-2.048 2.048-4.096l1.024-1.024c1.024-1.024 1.024-2.048 2.048-3.072s1.024-2.048 1.024-2.048 1.024-2.048 2.048-3.072c1.024-2.048 2.048-4.096 4.096-6.144 37.888-62.464 60.416-133.12 63.488-205.824 0-1.024 0-3.072 1.024-5.12 3.072-94.208-22.528-184.32-75.776-262.144l-207.872 1.024c-12.288-1.024-22.528 2.048-28.672 9.216-5.12 6.144-7.168 14.336-7.168 25.6v98.304c0 7.168-2.048 22.528-17.408 29.696h135.168c15.36-1.024 27.648 3.072 35.84 12.288 10.24 10.24 14.336 26.624 13.312 49.152v114.688c2.048 17.408-1.024 30.72-9.216 38.912-7.168 8.192-19.456 12.288-35.84 12.288-3.072 0-6.144 0-8.192 0h-130.048c19.456 30.72 32.768 54.272 38.912 69.632 9.216 20.48 10.24 37.888 3.072 49.152-8.192 13.312-25.6 19.456-54.272 19.456h-124.928c0 1.024 1.024 1.024 1.024 1.024l1.024 2.048c9.216 22.528 5.12 39.936-12.288 52.224-17.408 8.192-33.792 1.024-45.056-20.48-45.056-92.16-102.4-158.72-168.96-196.608-18.432-11.264-25.6-26.624-17.408-44.032l1.024-1.024c11.264-15.36 28.672-18.432 50.176-6.144 4.096 3.072 8.192 6.144 12.288 8.192v-106.496c-1.024-18.432 3.072-32.768 12.288-41.984 8.192-8.192 19.456-12.288 34.816-12.288 1.024 0 3.072 0 4.096 0h123.904c-39.936-65.536-111.616-112.64-215.040-138.24-23.552-8.192-32.768-21.504-28.672-40.96v-1.024c7.168-15.36 19.456-22.528 34.816-22.528 4.096 0 9.216 1.024 14.336 2.048 126.976 31.744 217.088 100.352 267.264 201.728h20.48c-15.36-7.168-17.408-22.528-17.408-29.696v-124.928c1.024-36.864 21.504-79.872 109.568-82.944l242.688 1.024c9.216 0 17.408 4.096 22.528 11.264 67.584 91.136 104.448 202.752 105.472 314.368l-1.024 24.576zM502.784 525.824c-4.096-57.344-8.192-86.016-10.24-98.304h-121.856c-7.168-1.024-13.312 1.024-16.384 4.096s-4.096 7.168-4.096 14.336v75.776c1.024 7.168 4.096 16.384 20.48 16.384h132.096c-1.024-8.192-1.024-10.24 0-12.288zM532.48 595.456h-160.768c20.48 20.48 41.984 45.056 61.44 73.728h138.24c4.096 0 7.168 0 8.192-1.024 0-1.024-1.024-2.048-3.072-5.12-9.216-18.432-24.576-41.984-44.032-67.584zM556.032 426.496c6.144 28.672 9.216 64.512 11.264 109.568h148.48v1.024c5.12 0 8.192 0 10.24-2.048 2.048-3.072 3.072-8.192 3.072-16.384v-73.728c0-16.384-7.168-18.432-14.336-18.432-1.024 0-2.048 0-4.096 0h-154.624z" />
<glyph unicode="&#xe929;" glyph-name="free-cube" d="M50.176 461.312h285.696c27.648 0 50.176 21.504 50.176 50.176v374.784c0 27.648-22.528 50.176-50.176 50.176h-285.696c-27.648 1.024-50.176-21.504-50.176-50.176v-374.784c0-27.648 22.528-50.176 50.176-50.176zM61.44 876.032h263.168v-353.28h-263.168v353.28zM973.824 937.472h-513.024c-27.648 0-50.176-22.528-50.176-50.176v-374.784c0-27.648 22.528-50.176 50.176-50.176h513.024c27.648 0 50.176 22.528 50.176 50.176v373.76c0 28.672-22.528 51.2-50.176 51.2zM962.56 522.752h-490.496v353.28h490.496v-353.28zM973.824 434.688h-285.696c-27.648 0-50.176-22.528-50.176-50.176v-374.784c0-27.648 22.528-50.176 50.176-50.176h285.696c27.648 0 50.176 22.528 50.176 50.176v374.784c0 27.648-22.528 50.176-50.176 50.176zM962.56 19.968h-263.168v353.28h263.168v-353.28zM563.2 434.688h-513.024c-27.648 0-50.176-22.528-50.176-50.176v-374.784c0-27.648 22.528-50.176 50.176-50.176h513.024c27.648 0 50.176 22.528 50.176 50.176v374.784c0 27.648-22.528 50.176-50.176 50.176zM551.936 19.968h-490.496v353.28h490.496v-353.28z" />
<glyph unicode="&#xe92a;" glyph-name="full-cut" d="M980.992 722.432h-117.76v197.632c0 21.504-17.408 38.912-39.936 38.912-5.12 0-9.216-1.024-14.336-2.048l-608.256-238.592c-3.072-1.024-6.144-2.048-11.264-2.048h-8.192v-313.344c-104.448-24.576-181.248-119.808-181.248-228.352 0-129.024 104.448-233.472 233.472-233.472 6.144 0 12.288 0 18.432 0h728.064c21.504 0 38.912 17.408 38.912 39.936l2.048 702.464c0 21.504-18.432 38.912-39.936 38.912zM790.528 879.104v-162.816h-402.432l402.432 162.816zM232.448 7.68c-6.144 0-13.312 0-19.456 1.024-72.704 9.216-136.192 72.704-145.408 145.408-6.144 46.080 9.216 93.184 41.984 130.048s78.848 58.368 125.952 58.368c6.144 0 13.312 0 19.456-1.024 72.704-9.216 136.192-72.704 145.408-145.408 6.144-46.080-9.216-93.184-40.96-130.048-32.768-36.864-78.848-58.368-126.976-58.368zM948.224 553.472h-262.144c-22.528 0-39.936-17.408-39.936-38.912v-283.648c0-21.504 17.408-38.912 39.936-38.912h262.144v-177.152h-557.056c35.84 35.84 76.8 91.136 76.8 160.768 0 120.832-94.208 222.208-214.016 232.448v205.824c0 13.312 11.264 23.552 24.576 23.552h646.144c13.312 0 23.552-11.264 23.552-23.552v-60.416zM947.2 494.080v-243.712h-218.112c-13.312 0-24.576 11.264-24.576 24.576v194.56c0 13.312 11.264 24.576 24.576 24.576h218.112zM164.864 209.408h138.24v-72.704h-138.24v72.704zM780.288 410.112h94.208v-71.68h-94.208v71.68z" />
<glyph unicode="&#xe92b;" glyph-name="gift" d="M1022.976 584.192c0 49.152-39.936 88.064-89.088 88.064h-38.912c19.456 25.6 29.696 55.296 29.696 88.064 0 81.92-66.56 148.48-148.48 148.48-65.536 0-121.856-50.176-164.864-146.432-32.768 11.264-73.728 11.264-106.496 0-44.032 96.256-100.352 146.432-165.888 146.432-68.608 0-128-45.056-144.384-111.616l-3.072-10.24 10.24-2.048c12.288-2.048 24.576-6.144 36.864-10.24l10.24-3.072 2.048 10.24c9.216 39.936 45.056 67.584 86.016 67.584 55.296 0 95.232-74.752 115.712-122.88-3.072-5.12-4.096-9.216-5.12-15.36l-1.024-5.12c0-1.024 0-2.048 0-4.096 0-1.024 0-1.024 0-2.048l-1.024-7.168h1.024c1.024-6.144 4.096-13.312 8.192-19.456-34.816-3.072-83.968 12.288-143.36 45.056-60.416 36.864-119.808 54.272-172.032 54.272-86.016 0-128-46.080-132.096-51.2-5.12-6.144-7.168-14.336-6.144-21.504 1.024-8.192 5.12-15.36 11.264-20.48 5.12-4.096 12.288-6.144 18.432-6.144 9.216 0 17.408 4.096 23.552 11.264 0 0 25.6 29.696 84.992 29.696 43.008 0 92.16-15.36 147.456-45.056 62.464-34.816 117.76-53.248 162.816-53.248 6.144 0 12.288 0 19.456 1.024l1.024-3.072h57.344v-137.216h-376.832v107.52c0 16.384 13.312 28.672 29.696 28.672h177.152l-40.96 19.456c-15.36 7.168-28.672 13.312-40.96 20.48-13.312 7.168-25.6 13.312-39.936 19.456l-2.048 1.024h-53.248c-49.152 0-89.088-39.936-89.088-88.064v-166.912h59.392v-343.040c0-49.152 39.936-88.064 89.088-88.064h634.88c49.152 0 89.088 39.936 89.088 88.064v343.040h59.392v165.888zM963.584 584.192v-107.52h-376.832v137.216h347.136c16.384 0 29.696-12.288 29.696-29.696zM659.456 726.528c20.48 48.128 60.416 122.88 115.712 122.88 49.152 0 89.088-39.936 89.088-88.064s-39.936-88.064-89.088-88.064h-118.784c6.144 9.216 10.24 18.432 10.24 28.672 0 9.216-3.072 17.408-7.168 24.576zM509.952 704c6.144 4.096 22.528 8.192 47.104 8.192 26.624 0 43.008-6.144 48.128-9.216-5.12-4.096-21.504-9.216-48.128-9.216-6.144 0-11.264 0-16.384 1.024-3.072 3.072-6.144 6.144-9.216 8.192-7.168 2.048-14.336 3.072-21.504 1.024zM527.36 418.304v-371.712h-287.744c-16.384 0-29.696 13.312-29.696 28.672v343.040h317.44zM904.192 418.304v-343.040c0-16.384-13.312-28.672-29.696-28.672h-287.744v371.712h317.44z" />
<glyph unicode="&#xe92c;" glyph-name="global" d="M512 960c-282.624 0-512-229.376-512-512 0-261.12 195.584-476.16 448.512-506.88 14.336-3.072 31.744-5.12 52.224-5.12 6.144 0 11.264 1.024 17.408 1.024 278.528 4.096 505.856 231.424 505.856 512 0 281.6-229.376 510.976-512 510.976zM431.104-12.8c-220.16 37.888-387.072 230.4-387.072 460.8 0 33.792 3.072 65.536 10.24 97.28 20.48-21.504 68.608-20.48 79.872 11.264 20.48-12.288 49.152-14.336 49.152-38.912 0-81.92 3.072-168.96 76.8-171.008 2.048 0 41.984-15.36 60.416-63.488 7.168-16.384 32.768 0 60.416 0 13.312 0 0-23.552 0-74.752s110.592-129.024 110.592-129.024c-1.024-33.792 1.024-61.44 3.072-82.944-25.6-1.024-47.104-4.096-63.488-9.216zM627.712-5.632c-3.072 11.264-13.312 18.432-31.744 13.312 15.36 66.56 23.552 102.4 55.296 131.072 47.104 40.96 6.144 86.016-29.696 80.896-28.672-4.096-10.24 34.816-35.84 36.864s-58.368 51.2-94.208 69.632c-18.432 9.216-37.888 33.792-67.584 33.792-25.6 1.024-64.512-21.504-64.512-4.096 0 57.344-5.12 98.304-7.168 114.688-1.024 13.312-8.192 5.12 26.624 4.096 19.456 0 10.24 38.912 28.672 39.936 18.432 2.048 62.464-17.408 74.752-9.216 10.24 7.168 76.8-176.128 76.8-30.72 0 17.408-9.216 47.104 0 63.488 35.84 64.512 68.608 116.736 65.536 124.928-1.024 4.096-35.84 8.192-63.488-1.024-9.216-3.072 3.072-18.432-10.24-20.48-50.176-11.264-94.208 13.312-78.848 36.864 15.36 24.576 72.704 10.24 77.824 59.392 3.072 27.648 5.12 60.416 7.168 83.968 67.584-10.24 59.392 87.040-40.96 97.28 202.752-3.072 374.784-133.12 438.272-315.392-3.072 3.072-7.168 5.12-11.264 5.12-30.72 75.776-104.448 20.48-78.848-46.080-133.12-102.4-99.328-174.080-55.296-215.040 23.552-21.504 45.056-54.272 59.392-76.8-16.384-46.080 57.344-27.648 93.184 50.176-45.056-162.816-172.032-285.696-333.824-326.656zM950.272 440.832c-1.024 25.6-4.096 50.176-9.216 74.752 0 8.192 0 16.384 0 24.576 7.168-32.768 10.24-65.536 9.216-99.328z" />
<glyph unicode="&#xe92d;" glyph-name="goods" d="M796.672 763.392c-31.744 0-58.368-26.624-58.368-58.368 0-17.408 9.216-34.816 23.552-47.104-23.552-120.832-126.976-207.872-249.856-207.872s-226.304 87.040-248.832 206.848c14.336 10.24 23.552 28.672 23.552 47.104 0 31.744-26.624 58.368-58.368 58.368s-58.368-26.624-58.368-58.368c-1.024-21.504 11.264-41.984 31.744-52.224 26.624-151.552 156.672-261.12 310.272-261.12s282.624 109.568 310.272 262.144c19.456 10.24 32.768 29.696 32.768 52.224-1.024 31.744-26.624 58.368-58.368 58.368zM906.24 960h-789.504c-64.512 0-115.712-51.2-115.712-114.688v-793.6c0-61.44 48.128-111.616 109.568-114.688v-1.024h797.696c63.488 0 115.712 52.224 115.712 115.712v793.6c-2.048 63.488-53.248 114.688-117.76 114.688zM960.512 51.712c0-30.72-24.576-55.296-54.272-55.296h-789.504c-30.72 0-55.296 24.576-55.296 55.296v793.6c0 30.72 24.576 55.296 54.272 55.296h791.552c29.696 0 54.272-24.576 54.272-55.296l-1.024-793.6z" />
<glyph unicode="&#xe92e;" glyph-name="goods1" d="M862.208 871.936c0 22.528-6.144 40.96-18.432 57.344s-32.768 26.624-53.248 26.624c-16.384 0-30.72-4.096-47.104-14.336l-114.688-65.536c-28.672 32.768-71.68 53.248-114.688 53.248h-2.048c-43.008 0-83.968-20.48-112.64-53.248l-114.688 65.536c-16.384 8.192-30.72 14.336-47.104 14.336-20.48 0-40.96-10.24-53.248-24.576s-18.432-34.816-18.432-57.344v-145.408h696.32v143.36zM235.52 792.064v75.776c0 10.24 2.048 14.336 2.048 14.336 2.048 0 6.144 0 12.288-4.096l149.504-86.016c0 0-163.84 0-163.84 0zM430.080 794.112l8.192 16.384c16.384 28.672 43.008 47.104 73.728 47.104s59.392-16.384 75.776-45.056l10.24-18.432c0 0-167.936 0-167.936 0zM790.528 792.064h-165.888l151.552 88.064c6.144 4.096 8.192 4.096 12.288 4.096 0 0 2.048-4.096 2.048-14.336v-77.824zM28.672 691.712v-360.448h100.352v-391.168h765.952v391.168h100.352v360.448h-966.656zM479.232 1.536l-280.576 2.048v327.68h280.576v-329.728zM479.232 398.848h-380.928v223.232h380.928c0 0 0-223.232 0-223.232zM829.44-0.512h-2.048l-278.528 2.048v329.728h280.576v-331.776zM929.792 400.896h-380.928v221.184h380.928c0 0 0-221.184 0-221.184z" />
<glyph unicode="&#xe92f;" glyph-name="goods2" d="M903.168 960h-781.312c-66.56 0-120.832-55.296-120.832-121.856v-782.336c0-67.584 54.272-121.856 121.856-121.856h780.288c67.584 0 121.856 54.272 121.856 121.856v782.336c0 66.56-55.296 121.856-121.856 121.856zM962.56 852.48v-811.008c0-25.6-20.48-46.080-45.056-46.080h-808.96c-25.6 0-45.056 20.48-45.056 46.080v811.008c0 25.6 20.48 46.080 45.056 46.080h808.96c24.576-1.024 45.056-21.504 45.056-46.080zM791.552 764.416c-35.84 0-65.536-29.696-65.536-65.536 0-19.456 8.192-36.864 22.528-50.176-23.552-113.664-123.904-198.656-236.544-198.656-111.616 0-211.968 84.992-235.52 198.656 14.336 12.288 22.528 30.72 22.528 50.176 0 36.864-29.696 65.536-65.536 65.536s-65.536-29.696-65.536-65.536c0-23.552 12.288-45.056 32.768-57.344 27.648-151.552 157.696-261.12 311.296-261.12 154.624 0 284.672 109.568 311.296 260.096 20.48 11.264 32.768 33.792 32.768 57.344 1.024 36.864-28.672 66.56-64.512 66.56z" />
<glyph unicode="&#xe930;" glyph-name="goods-filling" d="M906.24 960h-789.504c-64.512 0-115.712-51.2-115.712-114.688v-793.6c0-61.44 48.128-111.616 109.568-114.688v-1.024h797.696c63.488 0 115.712 52.224 115.712 115.712v793.6c-2.048 63.488-53.248 114.688-117.76 114.688zM822.272 652.8c-27.648-152.576-156.672-262.144-310.272-262.144s-283.648 109.568-310.272 261.12c-20.48 10.24-32.768 30.72-31.744 52.224 0 31.744 26.624 58.368 58.368 58.368s58.368-26.624 58.368-58.368c0-18.432-9.216-36.864-23.552-47.104 22.528-119.808 125.952-206.848 248.832-206.848s226.304 87.040 249.856 207.872c-14.336 12.288-23.552 29.696-23.552 47.104 0 31.744 26.624 58.368 58.368 58.368s57.344-26.624 58.368-58.368c0-22.528-13.312-41.984-32.768-52.224z" />
<glyph unicode="&#xe931;" glyph-name="H" d="M811.008 958.976c-16.384 0-29.696-13.312-29.696-29.696v-452.608h-538.624v452.608c0 16.384-13.312 29.696-29.696 29.696-15.36 0-28.672-13.312-28.672-29.696v-962.56c0-16.384 13.312-29.696 29.696-29.696s29.696 13.312 29.696 29.696v451.584h538.624v-451.584c0-16.384 13.312-29.696 29.696-29.696s27.648 13.312 27.648 29.696v962.56c0 16.384-13.312 29.696-28.672 29.696z" />
<glyph unicode="&#xe932;" glyph-name="help" d="M513.024 955.904c-282.624 0-512-229.376-512-512s229.376-512 512-512c282.624 0 512 229.376 512 512s-229.376 512-512 512zM560.128 87.552h-112.64v112.64h112.64v-112.64zM658.432 441.856c-81.92-63.488-98.304-58.368-98.304-152.576h-112.64c0 0-33.792 137.216 125.952 218.112 33.792 16.384 46.080 35.84 46.080 98.304s-39.936 101.376-98.304 101.376c-58.368 0-119.808-10.24-119.808-130.048l-113.664-3.072c0 0-16.384 228.352 224.256 228.352s226.304-226.304 226.304-226.304 2.048-71.68-79.872-134.144z" />
<glyph unicode="&#xe933;" glyph-name="home" d="M1007.616 456.192l-454.656 451.584c-10.24 10.24-25.6 16.384-40.96 16.384s-30.72-6.144-40.96-16.384l-453.632-451.584c-16.384-16.384-21.504-40.96-12.288-62.464s29.696-35.84 53.248-35.84h90.112l-1.024-328.704c0-31.744 25.6-57.344 57.344-57.344h132.096c31.744 0 57.344 25.6 57.344 57.344v253.952h231.424v-253.952c0-31.744 25.6-57.344 57.344-57.344h136.192c31.744 0 57.344 25.6 57.344 57.344v326.656c0 1.024 0 2.048 0 2.048h90.112c23.552 0 44.032 14.336 53.248 35.84 8.192 21.504 4.096 46.080-12.288 62.464zM876.544 419.328c-14.336 0-61.44-4.096-61.44-63.488v-322.56h-126.976v253.952c0 31.744-25.6 57.344-57.344 57.344h-239.616c-31.744 0-57.344-25.6-57.344-57.344v-253.952h-124.928l1.024 328.704c0 31.744-25.6 57.344-57.344 57.344h-83.968l443.392 442.368 444.416-442.368h-79.872z" />
<glyph unicode="&#xe934;" glyph-name="home3" d="M1013.76 546.304l-440.32 363.52c-47.104 35.84-70.656 43.008-121.856 0l-440.32-363.52c-6.144-5.12-10.24-12.288-11.264-21.504 0-8.192 3.072-15.36 7.168-21.504 6.144-6.144 13.312-9.216 22.528-9.216 6.144 0 12.288 2.048 19.456 6.144l32.768 26.624v-457.728c0-62.464 46.080-112.64 101.376-112.64h657.408c56.32 0 101.376 51.2 101.376 113.664v456.704l32.768-27.648c5.12-4.096 12.288-6.144 19.456-6.144 9.216 0 18.432 4.096 23.552 10.24s7.168 13.312 7.168 22.528c-1.024 9.216-6.144 15.36-11.264 20.48zM638.976 15.872h-252.928v263.168c0 26.624 31.744 54.272 63.488 54.272h125.952c31.744 0 63.488-27.648 63.488-54.272v-263.168zM885.76 69.12c0-28.672-19.456-53.248-41.984-53.248h-144.384v263.168c0 65.536-65.536 114.688-123.904 114.688h-124.928c-58.368 0-124.928-49.152-124.928-115.712v-263.168h-141.312c-22.528 0-41.984 25.6-41.984 53.248v508.928l352.256 288.768c5.12 4.096 16.384 13.312 20.48 13.312 3.072 0 8.192-4.096 15.36-9.216 2.048-2.048 4.096-4.096 7.168-6.144l348.16-287.744v-506.88z" />
<glyph unicode="&#xe935;" glyph-name="home-filling" d="M1007.616 456.192l-454.656 451.584c-10.24 10.24-25.6 16.384-40.96 16.384s-30.72-6.144-40.96-16.384l-453.632-451.584c-16.384-16.384-21.504-40.96-12.288-62.464s29.696-35.84 53.248-35.84h90.112l-1.024-328.704c0-31.744 25.6-57.344 57.344-57.344h132.096c31.744 0 57.344 25.6 57.344 57.344v253.952h231.424v-253.952c0-31.744 25.6-57.344 57.344-57.344h136.192c31.744 0 57.344 25.6 57.344 57.344v326.656c0 1.024 0 2.048 0 2.048h90.112c23.552 0 44.032 14.336 53.248 35.84 8.192 21.504 4.096 46.080-12.288 62.464z" />
<glyph unicode="&#xe936;" glyph-name="hot" d="M922.624 461.312c-26.624 61.44-54.272 108.544-76.8 147.456-3.072 5.12-6.144 10.24-9.216 15.36-21.504 34.816-34.816 59.392-43.008 78.848-16.384 41.984-7.168 79.872 0 98.304 0 1.024 0 1.024 0 1.024l3.072 8.192-8.192 1.024c-4.096 1.024-8.192 1.024-12.288 1.024-33.792 0-65.536-26.624-95.232-80.896-6.144-12.288-14.336-45.056-21.504-78.848l-3.072-12.288c-12.288-51.2-25.6-110.592-41.984-131.072-1.024-1.024-2.048-1.024-4.096-1.024-1.024 0-2.048 0-3.072 3.072-94.208 256-56.32 406.528-48.128 434.176v1.024l6.144 13.312-14.336-6.144c-73.728-27.648-172.032-93.184-220.16-248.832l-2.048-5.12c-9.216-29.696-12.288-108.544-9.216-229.376 0-3.072 0-5.12 0-6.144 0-4.096-3.072-5.12-5.12-5.12-3.072 0-4.096 1.024-4.096 2.048 0 0 0 0-2.048 6.144-34.816 91.136-45.056 138.24-47.104 160.768-4.096 45.056-4.096 45.056-11.264 45.056l-7.168-1.024v-4.096c-74.752-71.68-158.72-230.4-158.72-337.92 0-217.088 192.512-394.24 428.032-394.24s428.032 177.152 428.032 394.24c0 47.104 0 91.136-17.408 131.072zM775.168 97.792c-68.608-64.512-161.792-99.328-261.12-99.328-98.304 0-191.488 34.816-261.12 99.328-69.632 62.464-107.52 145.408-107.52 233.472 0 39.936 16.384 96.256 46.080 156.672 8.192 16.384 17.408 33.792 27.648 51.2 11.264-36.864 24.576-73.728 32.768-93.184 1.024-3.072 2.048-6.144 3.072-8.192l1.024-2.048c11.264-23.552 33.792-37.888 59.392-37.888 35.84 1.024 65.536 28.672 67.584 63.488l-1.024 3.072c-3.072 82.944-1.024 189.44 6.144 215.040 1.024 1.024 1.024 2.048 1.024 3.072s0 2.048 1.024 3.072c6.144 20.48 19.456 60.416 46.080 100.352 13.312 20.48 29.696 39.936 49.152 57.344v-7.168c-1.024-106.496 21.504-223.232 67.584-347.136 9.216-25.6 33.792-41.984 60.416-41.984 19.456 0 37.888 9.216 50.176 24.576 24.576 30.72 38.912 89.088 56.32 168.96l2.048 9.216c2.048 6.144 3.072 13.312 5.12 20.48 2.048 11.264 5.12 21.504 7.168 27.648 1.024-5.12 3.072-10.24 5.12-15.36 9.216-25.6 23.552-50.176 44.032-83.968l4.096-6.144c29.696-49.152 56.32-94.208 80.896-154.624 12.288-27.648 12.288-64.512 12.288-106.496 0-89.088-36.864-172.032-105.472-233.472z" />
<glyph unicode="&#xe937;" glyph-name="house" d="M512 946.688l-507.904-439.296 40.96-46.080 466.944 402.432 466.944-402.432 40.96 46.080zM867.328 12.8h-2.048l-1.024-1.024h-3.072v1.024l-695.296-2.048c-4.096 0-5.12 1.024-5.12 5.12v470.016h-61.44v-470.016c0-35.84 30.72-66.56 66.56-66.56h696.32c35.84 0 66.56 30.72 66.56 66.56v470.016h-61.44v-473.088zM234.496 95.744c0-8.192 7.168-15.36 15.36-15.36h65.536c8.192 0 15.36 7.168 15.36 15.36v65.536c0 8.192-7.168 15.36-15.36 15.36h-65.536c-8.192 0-15.36-7.168-15.36-15.36v-65.536zM600.064 77.312c10.24 0 18.432 8.192 18.432 18.432v65.536c0 10.24-8.192 18.432-18.432 18.432h-65.536c-10.24 0-18.432-8.192-18.432-18.432v-65.536c0-10.24 8.192-18.432 18.432-18.432h65.536zM458.752 80.384c8.192 0 15.36 7.168 15.36 15.36v65.536c0 8.192-7.168 15.36-15.36 15.36h-65.536c-8.192 0-15.36-7.168-15.36-15.36v-65.536c0-8.192 7.168-15.36 15.36-15.36h65.536zM249.856 227.84h65.536c8.192 0 15.36 7.168 15.36 15.36v65.536c0 8.192-7.168 15.36-15.36 15.36h-65.536c-8.192 0-15.36-7.168-15.36-15.36v-65.536c0-8.192 7.168-15.36 15.36-15.36z" />
<glyph unicode="&#xe938;" glyph-name="icon-button" d="M993.28 846.336c-20.48 21.504-49.152 32.768-78.848 32.768h-803.84c-60.416 1.024-110.592-49.152-110.592-109.568v-641.024c0-61.44 50.176-110.592 110.592-110.592h667.648c4.096 0 8.192 1.024 11.264 2.048 7.168 2.048 12.288 8.192 17.408 17.408 2.048 7.168 2.048 15.36 0 22.528-1.024 3.072-3.072 5.12-4.096 7.168-1.024 1.024-1.024 2.048-2.048 3.072l-235.52 233.472 128 128 279.552-273.408c1.024-1.024 2.048-1.024 3.072-2.048 0 0 1.024 0 1.024-1.024 1.024-1.024 2.048-1.024 3.072-2.048 1.024 0 1.024-1.024 2.048-1.024l1.024-1.024c4.096-1.024 7.168-2.048 11.264-2.048 8.192 0 16.384 3.072 22.528 9.216 1.024 1.024 2.048 2.048 2.048 4.096l1.024 1.024c1.024 1.024 2.048 3.072 3.072 5.12 1.024 3.072 1.024 5.12 1.024 8.192 0 1.024 1.024 2.048 1.024 3.072v588.8c-1.024 29.696-11.264 57.344-31.744 77.824zM707.584 77.312h-599.040c-25.6 0-47.104 22.528-47.104 49.152v254.976l183.296 158.72 462.848-462.848zM961.536 252.416l-248.832 243.712c-5.12 6.144-12.288 9.216-20.48 9.216s-15.36-3.072-20.48-9.216l-149.504-149.504-256 257.024c-11.264 11.264-29.696 11.264-41.984 1.024l-163.84-143.36v308.224c0 27.648 22.528 49.152 49.152 49.152h801.792c27.648 0 49.152-22.528 49.152-49.152v-517.12z" />
<glyph unicode="&#xe939;" glyph-name="info" d="M512 960c-282.624 0-512-229.376-512-512s229.376-512 512-512 512 229.376 512 512-229.376 512-512 512zM591.872 259.584c-38.912-58.368-77.824-102.4-144.384-102.4-45.056 7.168-63.488 39.936-54.272 72.704l84.992 281.6c2.048 7.168-1.024 14.336-7.168 16.384s-18.432-6.144-29.696-17.408l-51.2-61.44c-1.024 10.24 0 27.648 0 34.816 38.912 58.368 102.4 103.424 145.408 103.424 40.96-4.096 60.416-36.864 53.248-72.704l-86.016-284.672c-1.024-6.144 2.048-13.312 8.192-15.36s19.456 6.144 29.696 17.408l51.2 61.44c2.048-9.216 0-26.624 0-33.792zM580.608 627.2c-32.768 0-59.392 23.552-59.392 58.368s26.624 58.368 59.392 58.368c32.768 0 59.392-23.552 59.392-58.368s-27.648-58.368-59.392-58.368z" />
<glyph unicode="&#xe93a;" glyph-name="left-arrow" d="M323.584 453.12l448.512 448.512c6.144 6.144 10.24 15.36 10.24 24.576s-4.096 17.408-10.24 23.552c-13.312 13.312-35.84 13.312-49.152 0l-471.040-474.112c-6.144-6.144-10.24-15.36-10.24-24.576s3.072-17.408 10.24-24.576l471.040-481.28c6.144-6.144 15.36-10.24 24.576-10.24s17.408 3.072 24.576 10.24c13.312 14.336 13.312 35.84 0 49.152l-448.512 458.752z" />
<glyph unicode="&#xe93b;" glyph-name="letter" d="M0 778.752v-662.528h1024v662.528h-1024zM908.288 719.36l-370.688-370.688c-7.168-7.168-16.384-10.24-25.6-10.24-10.24 0-19.456 4.096-26.624 10.24l-369.664 370.688h792.576zM60.416 688.64l235.52-236.544-235.52-236.544v473.088zM107.52 177.664l232.448 232.448 103.424-104.448c17.408-18.432 43.008-28.672 68.608-28.672s50.176 10.24 68.608 28.672l103.424 104.448 232.448-232.448h-808.96zM727.040 452.096l235.52 235.52 1.024-472.064-236.544 236.544z" />
<glyph unicode="&#xe93c;" glyph-name="limit" d="M87.040 772.608l136.192 136.192c12.288 12.288 12.288 30.72 0 43.008s-30.72 12.288-43.008 0l-136.192-136.192c-12.288-12.288-12.288-30.72 0-43.008s30.72-12.288 43.008 0zM979.968 815.616l-136.192 135.168c-12.288 12.288-30.72 12.288-43.008 0s-12.288-30.72 0-43.008l136.192-136.192c12.288-12.288 30.72-12.288 43.008 0 11.264 12.288 11.264 31.744 0 44.032zM353.28 579.072c-14.336 0-25.6-7.168-31.744-21.504-5.12-11.264-7.168-27.648-7.168-49.152 0-20.48 2.048-36.864 7.168-49.152 7.168-14.336 17.408-21.504 31.744-21.504s24.576 8.192 30.72 23.552c5.12 13.312 7.168 28.672 7.168 48.128 0 20.48-3.072 36.864-8.192 49.152-5.12 13.312-15.36 20.48-29.696 20.48zM642.048 397.824c-14.336 0-25.6-7.168-31.744-21.504-5.12-11.264-7.168-27.648-7.168-49.152 0-20.48 2.048-36.864 7.168-49.152 7.168-14.336 17.408-21.504 31.744-21.504s24.576 8.192 30.72 23.552c5.12 13.312 7.168 28.672 7.168 48.128 0 20.48-3.072 36.864-8.192 49.152-4.096 13.312-14.336 20.48-29.696 20.48zM804.864 113.152c83.968 81.92 129.024 192.512 129.024 310.272s-45.056 228.352-128 312.32c-82.944 82.944-192.512 129.024-308.224 129.024-116.736 0-226.304-46.080-308.224-129.024-82.944-82.944-128-193.536-128-312.32 0-117.76 45.056-228.352 128-312.32 7.168-7.168 13.312-13.312 20.48-19.456l-69.632-107.52c-9.216-14.336-5.12-33.792 9.216-43.008 5.12-3.072 10.24-5.12 16.384-5.12 10.24 0 20.48 5.12 25.6 14.336l67.584 104.448c70.656-47.104 152.576-71.68 238.592-71.68 89.088 0 174.080 26.624 245.76 76.8l70.656-108.544c5.12-9.216 15.36-14.336 25.6-14.336 6.144 0 12.288 2.048 16.384 5.12 14.336 9.216 18.432 28.672 9.216 43.008l-74.752 113.664c5.12 4.096 9.216 9.216 14.336 14.336zM280.576 430.592c-15.36 19.456-22.528 45.056-22.528 76.8 0 32.768 7.168 58.368 22.528 76.8 16.384 21.504 40.96 32.768 72.704 32.768 30.72 0 55.296-11.264 71.68-32.768 15.36-19.456 22.528-45.056 22.528-76.8 0-30.72-7.168-56.32-22.528-76.8-17.408-21.504-40.96-32.768-71.68-32.768s-55.296 11.264-72.704 32.768zM407.552 208.384h-45.056l225.28 416.768h46.080l-226.304-416.768zM713.728 249.344c-17.408-21.504-40.96-32.768-71.68-32.768s-55.296 10.24-72.704 32.768c-15.36 19.456-22.528 45.056-22.528 76.8 0 32.768 7.168 58.368 22.528 76.8 16.384 21.504 40.96 32.768 72.704 32.768 30.72 0 55.296-11.264 71.68-32.768 15.36-19.456 22.528-45.056 22.528-76.8 0-30.72-7.168-56.32-22.528-76.8z" />
<glyph unicode="&#xe93d;" glyph-name="link" d="M339.968 56.832c-16.384-16.384-36.864-24.576-59.392-24.576s-44.032 9.216-59.392 24.576l-100.352 100.352c-16.384 16.384-24.576 36.864-24.576 59.392s9.216 44.032 24.576 59.392l241.664 240.64c-16.384 7.168-34.816 11.264-52.224 11.264-34.816 0-67.584-13.312-92.16-37.888l-180.224-180.224c-50.176-51.2-50.176-133.12 0-184.32l150.528-151.552c24.576-24.576 57.344-37.888 92.16-37.888s67.584 13.312 92.16 37.888l181.248 180.224c37.888 37.888 48.128 95.232 26.624 143.36l-240.64-240.64zM986.112 771.584l-151.552 150.528c-24.576 24.576-57.344 37.888-92.16 37.888s-67.584-13.312-92.16-37.888l-180.224-180.224c-37.888-37.888-48.128-95.232-26.624-143.36l239.616 239.616c16.384 16.384 36.864 24.576 59.392 24.576s44.032-9.216 59.392-24.576l100.352-100.352c32.768-32.768 32.768-84.992 0-117.76l-240.64-240.64c16.384-7.168 34.816-11.264 52.224-11.264 34.816 0 67.584 13.312 92.16 37.888l180.224 181.248c51.2 51.2 51.2 133.12 0 184.32zM327.68 289.28l25.6-25.6c7.168-8.192 17.408-12.288 28.672-12.288 10.24 0 20.48 4.096 28.672 12.288l285.696 284.672c16.384 16.384 16.384 41.984 0 58.368l-25.6 25.6c-7.168 8.192-17.408 12.288-28.672 12.288-10.24 0-20.48-4.096-28.672-12.288l-285.696-284.672c-16.384-16.384-16.384-41.984 0-58.368z" />
<glyph unicode="&#xe93e;" glyph-name="link-l" d="M961.536 896.512c-40.96 40.96-97.28 63.488-157.696 63.488-62.464 0-118.784-22.528-159.744-63.488l-245.76-243.712c-86.016-86.016-86.016-225.28 0-317.44 8.192-8.192 16.384-9.216 25.6-9.216 7.168 0 14.336 4.096 20.48 7.168 2.048 1.024 4.096 2.048 5.12 3.072 8.192 8.192 9.216 16.384 9.216 25.6 0 7.168-4.096 14.336-7.168 20.48-1.024 1.024-1.024 3.072-2.048 4.096-28.672 28.672-46.080 68.608-46.080 106.496 0 38.912 16.384 76.8 46.080 106.496l245.76 245.76c28.672 28.672 68.608 46.080 106.496 46.080 38.912 0 76.8-16.384 106.496-46.080 56.32-63.488 56.32-154.624 0-217.088l-140.288-142.336c-8.192-8.192-12.288-16.384-12.288-25.6s4.096-17.408 12.288-25.6 16.384-9.216 25.6-9.216c7.168 0 14.336 4.096 20.48 7.168 2.048 1.024 4.096 2.048 5.12 3.072l140.288 140.288c84.992 91.136 86.016 232.448 2.048 320.512zM622.592 561.664c-3.072 0-5.12 2.048-5.12 2.048-6.144 2.048-12.288 4.096-17.408 4.096-7.168 0-14.336-4.096-20.48-7.168-2.048-1.024-4.096-2.048-5.12-3.072-8.192-8.192-9.216-16.384-9.216-25.6 0-7.168 4.096-14.336 7.168-20.48 1.024-2.048 2.048-4.096 3.072-5.12 28.672-28.672 46.080-68.608 46.080-106.496 0-39.936-17.408-80.896-46.080-106.496l-248.832-246.784c-28.672-28.672-68.608-46.080-106.496-46.080-38.912 0-76.8 16.384-106.496 46.080-63.488 62.464-63.488 153.6-1.024 217.088l140.288 140.288c8.192 8.192 12.288 16.384 12.288 25.6s-4.096 17.408-12.288 25.6-16.384 9.216-25.6 9.216c-7.168 0-14.336-4.096-20.48-7.168-2.048-1.024-4.096-2.048-5.12-3.072l-137.216-137.216c-86.016-86.016-86.016-225.28 0-317.44 40.96-40.96 97.28-63.488 157.696-63.488 58.368 0 113.664 21.504 159.744 63.488l240.64 243.712c87.040 87.040 87.040 227.328 1.024 318.464h-1.024z" />
<glyph unicode="&#xe93f;" glyph-name="list" d="M250.88 237.056h-71.68c-18.432 0-32.768-14.336-32.768-32.768s14.336-32.768 32.768-32.768h71.68c18.432 0 32.768 14.336 32.768 32.768s-14.336 32.768-32.768 32.768zM250.88 435.712h-71.68c-18.432 0-32.768-14.336-32.768-32.768s14.336-32.768 32.768-32.768h71.68c18.432 0 32.768 14.336 32.768 32.768 0 17.408-14.336 32.768-32.768 32.768zM146.432 584.192c0-18.432 14.336-32.768 32.768-32.768h71.68c18.432 0 32.768 14.336 32.768 32.768v0c0 18.432-14.336 32.768-32.768 32.768h-71.68c-17.408 0-32.768-15.36-32.768-32.768zM833.536 615.936h-432.128c-18.432 0-32.768-14.336-32.768-32.768s14.336-32.768 32.768-32.768h431.104c18.432 0 32.768 14.336 32.768 32.768v0c1.024 18.432-13.312 32.768-31.744 32.768zM833.536 434.688h-432.128c-18.432 0-32.768-14.336-32.768-32.768s14.336-32.768 32.768-32.768h431.104c18.432 0 32.768 14.336 32.768 32.768 1.024 18.432-13.312 32.768-31.744 32.768zM874.496 956.928h-68.608c0 0 0-9.216 0-21.504v-45.056h68.608c38.912 0 65.536-26.624 65.536-65.536v-757.76c0-38.912-26.624-65.536-65.536-65.536h-708.608c-38.912 0-81.92 26.624-81.92 65.536v757.76c0 38.912 26.624 65.536 65.536 65.536h57.344v45.056c0 11.264 0 21.504 0 21.504h-57.344c-92.16 0-132.096-58.368-132.096-134.144v-748.544c0-80.896 49.152-138.24 138.24-138.24h711.68c89.088 0 138.24 48.128 138.24 138.24v749.568c1.024 74.752-45.056 133.12-131.072 133.12zM833.536 237.056h-432.128c-18.432 0-32.768-14.336-32.768-32.768s14.336-32.768 32.768-32.768h431.104c18.432 0 32.768 14.336 32.768 32.768 1.024 18.432-13.312 32.768-31.744 32.768zM308.224 817.664h406.528c11.264 0 20.48 9.216 20.48 20.48v100.352c0 11.264-9.216 20.48-20.48 20.48h-406.528c-11.264 0-20.48-9.216-20.48-20.48v-100.352c0-11.264 9.216-20.48 20.48-20.48zM328.704 895.488v21.504c0 1.024 1.024 2.048 2.048 2.048h362.496c1.024 0 2.048-1.024 2.048-2.048v-56.32c0-1.024-1.024-2.048-2.048-2.048h-362.496c-1.024 0-2.048 1.024-2.048 2.048 0 0 0 34.816 0 34.816z" />
<glyph unicode="&#xe940;" glyph-name="list-close" d="M0 960v-1024h1024v1024h-1024zM953.344 6.656h-882.688v882.688h882.688v-882.688zM477.184 59.904h69.632v353.28h353.28v69.632h-353.28v353.28h-69.632v-353.28h-353.28v-69.632h353.28z" />
<glyph unicode="&#xe941;" glyph-name="list-expand" d="M0 960v-1024h1024v1024h-1024zM953.344 6.656h-882.688v882.688h882.688v-882.688zM123.904 482.816h776.192v-68.608h-776.192v68.608z" />
<glyph unicode="&#xe942;" glyph-name="list-filling" d="M874.496 956.928h-68.608c0 0 0-9.216 0-21.504v-35.84h-70.656v39.936c0 11.264-9.216 20.48-20.48 20.48h-406.528c-11.264 0-20.48-9.216-20.48-20.48v-38.912h-80.896v34.816c0 11.264 0 21.504 0 21.504h-57.344c-92.16 0-132.096-58.368-132.096-134.144v-748.544c0-80.896 49.152-138.24 138.24-138.24h711.68c89.088 0 138.24 48.128 138.24 138.24v749.568c1.024 74.752-45.056 133.12-131.072 133.12zM240.64 171.52h-71.68c-18.432 0-32.768 14.336-32.768 32.768s14.336 32.768 32.768 32.768h71.68c18.432 0 32.768-14.336 32.768-32.768s-14.336-32.768-32.768-32.768zM240.64 371.2h-71.68c-18.432 0-32.768 14.336-32.768 32.768s14.336 32.768 32.768 32.768h71.68c18.432 0 32.768-15.36 32.768-32.768 0-19.456-14.336-32.768-32.768-32.768zM240.64 551.424h-71.68c-18.432 0-32.768 14.336-32.768 32.768 0 17.408 15.36 32.768 32.768 32.768h71.68c18.432 0 32.768-14.336 32.768-32.768s-14.336-32.768-32.768-32.768zM822.272 171.52h-431.104c-18.432 0-32.768 14.336-32.768 32.768s14.336 32.768 32.768 32.768h432.128c18.432 0 32.768-14.336 31.744-32.768 0-17.408-14.336-32.768-32.768-32.768zM822.272 369.152h-431.104c-18.432 0-32.768 14.336-32.768 32.768s14.336 32.768 32.768 32.768h432.128c18.432 0 32.768-14.336 31.744-32.768 0-18.432-14.336-32.768-32.768-32.768zM822.272 550.4h-431.104c-18.432 0-32.768 14.336-32.768 32.768s14.336 32.768 32.768 32.768h432.128c18.432 0 32.768-14.336 31.744-32.768 0-17.408-14.336-32.768-32.768-32.768z" />
<glyph unicode="&#xe943;" glyph-name="location1" d="M1021.952 933.376c-5.12 14.336-23.552 22.528-38.912 16.384l-947.2-368.64c-5.12 1.024-11.264 1.024-16.384-1.024-7.168-3.072-13.312-8.192-16.384-15.36s-4.096-15.36-1.024-23.552c4.096-12.288 15.36-19.456 27.648-19.456 3.072 0 6.144 0 8.192 1.024l437.248-121.856 119.808-436.224c4.096-13.312 15.36-21.504 28.672-21.504s24.576 8.192 27.648 19.456l370.688 948.224c3.072 7.168 3.072 15.36 0 22.528zM629.76 68.096l-100.352 365.568c-3.072 10.24-11.264 18.432-21.504 21.504l-368.64 102.4 801.792 311.296-311.296-800.768z" />
<glyph unicode="&#xe944;" glyph-name="location-l" d="M731.136 258.56c-20.48 2.048-36.864-10.24-38.912-30.72s10.24-38.912 30.72-40.96c188.416-26.624 229.376-75.776 229.376-83.968 0-28.672-153.6-98.304-440.32-98.304-274.432 0-440.32 67.584-440.32 98.304 0 8.192 43.008 57.344 227.328 83.968 10.24 2.048 18.432 6.144 24.576 14.336s8.192 18.432 6.144 26.624c-2.048 18.432-16.384 30.72-34.816 30.72-2.048 0-4.096 0-6.144 0-190.464-30.72-288.768-81.92-288.768-153.6 0-112.64 258.048-169.984 512-169.984s512 59.392 512 169.984c0 98.304-184.32 139.264-292.864 153.6zM665.6 653.824c0 83.968-67.584 155.648-153.6 155.648s-153.6-69.632-153.6-155.648 69.632-155.648 153.6-155.648c86.016 0 153.6 69.632 153.6 155.648zM428.032 651.776c0 47.104 36.864 86.016 83.968 86.016s83.968-36.864 83.968-86.016c0-47.104-36.864-86.016-83.968-86.016s-83.968 36.864-83.968 86.016zM487.424 107.008l26.624-22.528 24.576 24.576c28.672 28.672 282.624 290.816 282.624 534.528 0 174.080-139.264 317.44-311.296 317.44s-311.296-141.312-311.296-315.392c2.048-245.76 239.616-491.52 288.768-538.624zM512 885.248c133.12 0 239.616-110.592 239.616-243.712 0-190.464-194.56-409.6-239.616-458.752-45.056 49.152-239.616 260.096-239.616 458.752 0 135.168 108.544 243.712 239.616 243.712z" />
<glyph unicode="&#xe945;" glyph-name="logistics-l" d="M1022.976 493.056c-1.024 1.024-2.048 3.072-3.072 5.12-1.024 3.072-2.048 5.12-4.096 8.192l-3.072 6.144h-3.072l-215.040 122.88v167.936c0 58.368-43.008 102.4-100.352 102.4h-587.776c-59.392 0-106.496-45.056-106.496-102.4v-638.976c0-17.408 14.336-31.744 31.744-31.744s31.744 14.336 31.744 31.744v632.832c0 25.6 22.528 45.056 51.2 45.056h574.464c27.648 0 45.056-17.408 45.056-45.056v-172.032c0-12.288 9.216-23.552 23.552-28.672h2.048l209.92-120.832v-324.608c0-17.408 12.288-31.744 27.648-31.744 14.336 0 27.648 14.336 27.648 31.744v340.992l-2.048 1.024zM830.464 340.48c17.408 0 29.696 15.36 29.696 29.696 0 17.408-14.336 28.672-29.696 31.744h-130.048l-2.048 104.448c0 17.408-13.312 31.744-29.696 31.744-17.408 0-29.696-15.36-29.696-29.696v-107.52c0-6.144 1.024-25.6 15.36-37.888 12.288-12.288 25.6-18.432 40.96-18.432l135.168-4.096zM759.808 263.68c-65.536 0-121.856-47.104-134.144-110.592l-1.024-4.096h-261.12l-1.024 4.096c-13.312 64.512-68.608 110.592-135.168 110.592h-2.048c-75.776 0-136.192-61.44-136.192-136.192 0-75.776 61.44-136.192 136.192-136.192 61.44 0 115.712 40.96 132.096 101.376l1.024 4.096h263.168l1.024-4.096c17.408-60.416 70.656-100.352 132.096-100.352 75.776 0 136.192 61.44 136.192 136.192 1.024 35.84-12.288 70.656-37.888 96.256-23.552 24.576-57.344 38.912-93.184 38.912zM229.376 51.712c-40.96 0-73.728 32.768-73.728 73.728 0 43.008 30.72 73.728 73.728 73.728 40.96 0 73.728-32.768 73.728-73.728s-32.768-73.728-73.728-73.728zM757.76 53.76h-2.048c-39.936 0-71.68 32.768-71.68 73.728s32.768 73.728 73.728 73.728 73.728-32.768 73.728-73.728-32.768-73.728-73.728-73.728z" />
<glyph unicode="&#xe946;" glyph-name="log-l" d="M512 960c-282.624 0-512-229.376-512-512s229.376-512 512-512 512 229.376 512 512-229.376 512-512 512zM512 5.632c-241.664 0-437.248 196.608-437.248 438.272s195.584 438.272 437.248 438.272 437.248-195.584 437.248-437.248-195.584-439.296-437.248-439.296zM834.56 437.76h-291.84v294.912c0 20.48-15.36 35.84-35.84 35.84s-34.816-15.36-34.816-35.84v-333.824c0-20.48 15.36-35.84 35.84-35.84h325.632c20.48 0 35.84 15.36 35.84 35.84 2.048 23.552-13.312 38.912-34.816 38.912z" />
<glyph unicode="&#xe947;" glyph-name="logout-l" d="M512 414.208c18.432 0 33.792 15.36 33.792 33.792v478.208c1.024 18.432-15.36 33.792-33.792 33.792s-33.792-15.36-33.792-33.792v-478.208c0-18.432 15.36-33.792 33.792-33.792zM930.816 740.864c-29.696 44.032-68.608 82.944-114.688 116.736l-11.264 8.192c-5.12 4.096-12.288 6.144-19.456 6.144-5.12 0-10.24-1.024-13.312-4.096-11.264-5.12-18.432-16.384-18.432-27.648 0-9.216 4.096-22.528 13.312-28.672l3.072-2.048c54.272-37.888 69.632-53.248 106.496-108.544 69.632-97.28 95.232-215.040 73.728-332.8-23.552-114.688-88.064-217.088-184.32-286.72-77.824-53.248-165.888-80.896-256-80.896-92.16 0-181.248 27.648-256 80.896-41.984 29.696-78.848 67.584-109.568 108.544-69.632 97.28-95.232 215.040-73.728 332.8 21.504 114.688 87.040 218.112 181.248 285.696l3.072 2.048 1.024 1.024c12.288 10.24 16.384 30.72 8.192 45.056v1.024c-6.144 6.144-14.336 12.288-25.6 12.288-3.072 0-6.144-1.024-7.168-1.024-2.048-1.024-3.072-1.024-3.072-1.024h-3.072l-12.288-7.168c-109.568-80.896-183.296-197.632-204.8-327.68-24.576-134.144 6.144-270.336 86.016-382.976 36.864-52.224 78.848-94.208 124.928-124.928 87.040-58.368 190.464-89.088 292.864-89.088 104.448 0 205.824 31.744 292.864 92.16 111.616 76.8 186.368 194.56 210.944 331.776 23.552 137.216-7.168 272.384-84.992 380.928z" />
<glyph unicode="&#xe948;" glyph-name="lower-l" d="M286.72 304.64h598.016c15.36 0 27.648 13.312 30.72 24.576l72.704 323.584v2.048c0 6.144 0 16.384-7.168 23.552-5.12 8.192-13.312 12.288-23.552 12.288h-226.304c-17.408 0-30.72-13.312-30.72-30.72s13.312-30.72 30.72-30.72h186.368l-56.32-261.12h-536.576l-78.848 263.168h155.648c17.408 0 30.72 13.312 30.72 30.72s-13.312 30.72-30.72 30.72h-176.128l-45.056 153.6c-4.096 13.312-16.384 21.504-29.696 21.504h-83.968c-17.408 0-30.72-13.312-30.72-30.72 0-8.192 3.072-16.384 10.24-22.528 6.144-6.144 14.336-10.24 22.528-10.24h61.44l134.144-441.344c-53.248-10.24-93.184-56.32-95.232-110.592 0-41.984 25.6-81.92 64.512-101.376-46.080-55.296-39.936-136.192 15.36-184.32 24.576-20.48 55.296-31.744 86.016-31.744 38.912 0 73.728 16.384 99.328 46.080 22.528 24.576 33.792 55.296 31.744 88.064 0 22.528-7.168 46.080-21.504 68.608h235.52c-13.312-20.48-21.504-44.032-21.504-68.608 0-72.704 59.392-132.096 132.096-132.096 71.68 0 130.048 59.392 130.048 132.096s-59.392 132.096-132.096 132.096h-501.76c-27.648 0-52.224 23.552-52.224 52.224 1.024 27.648 24.576 51.2 52.224 51.2zM789.504 139.776c36.864 0 68.608-31.744 68.608-68.608 0-37.888-30.72-68.608-68.608-68.608s-68.608 30.72-68.608 68.608 30.72 68.608 68.608 68.608zM333.824 139.776c37.888 0 68.608-30.72 68.608-68.608 0-36.864-31.744-68.608-68.608-68.608-37.888 0-68.608 30.72-68.608 68.608s30.72 68.608 68.608 68.608zM399.36 604.672c-10.24 0-17.408-3.072-24.576-10.24-11.264-14.336-10.24-33.792 3.072-47.104l114.688-102.4c7.168-5.12 14.336-7.168 21.504-7.168 8.192 0 15.36 3.072 18.432 4.096l117.76 102.4c6.144 6.144 9.216 13.312 10.24 21.504 2.048 10.24-3.072 18.432-7.168 24.576l-2.048 2.048c-6.144 4.096-13.312 9.216-23.552 9.216-7.168 0-14.336-2.048-21.504-7.168l-60.416-52.224v385.024c0 17.408-14.336 32.768-32.768 32.768-16.384 0-31.744-14.336-31.744-32.768v-382.976l-60.416 53.248c-7.168 5.12-14.336 7.168-21.504 7.168z" />
<glyph unicode="&#xe949;" glyph-name="mail" d="M0 821.76v-747.52h1024v747.52h-1024zM59.392 351.744c0 123.904 0 247.808 0 371.712 92.16-92.16 185.344-183.296 278.528-275.456-93.184-92.16-186.368-184.32-278.528-275.456v179.2zM686.080 448l68.608 67.584c69.632 69.632 140.288 138.24 210.944 207.872v-179.2c0-123.904 0-247.808 0-371.712-87.040 86.016-175.104 172.032-262.144 259.072l-17.408 16.384zM377.856 408.064c10.24-8.192 19.456-18.432 29.696-27.648 31.744-31.744 64.512-64.512 110.592-64.512h4.096c40.96 10.24 69.632 38.912 98.304 67.584 8.192 8.192 17.408 17.408 25.6 24.576 93.184-92.16 186.368-184.32 279.552-275.456h-827.392c93.184 92.16 186.368 184.32 279.552 275.456zM789.504 629.248c-76.8-75.776-155.648-154.624-235.52-231.424-10.24-12.288-25.6-19.456-41.984-19.456s-31.744 7.168-41.984 19.456c-78.848 75.776-156.672 153.6-233.472 229.376-45.056 45.056-91.136 90.112-137.216 135.168h825.344c-45.056-44.032-90.112-89.088-135.168-133.12z" />
<glyph unicode="&#xe94a;" glyph-name="manage-l" d="M776.192 198.144c-14.336 88.064-69.632 163.84-151.552 200.704 45.056 36.864 71.68 92.16 71.68 151.552 0 106.496-83.968 192.512-188.416 192.512s-188.416-86.016-188.416-192.512c0-59.392 28.672-114.688 73.728-151.552-81.92-38.912-139.264-114.688-151.552-202.752-2.048-4.096-2.048-8.192-2.048-12.288l2.048-10.24h2.048c4.096-12.288 18.432-24.576 32.768-24.576 16.384 0 34.816 14.336 34.816 36.864 0 2.048 0 4.096-2.048 8.192 16.384 94.208 98.304 161.792 196.608 163.84h8.192c102.4 0 186.368-71.68 200.704-167.936v-6.144c0-16.384 14.336-34.816 34.816-34.816 18.432 0 34.816 14.336 34.816 34.816v6.144l-6.144 4.096c-2.048 2.048-2.048 4.096-2.048 4.096zM512 425.472c-69.632 0-126.976 57.344-126.976 126.976s57.344 126.976 126.976 126.976 126.976-57.344 126.976-126.976-57.344-126.976-126.976-126.976zM509.952 960c-280.576 0-507.904-229.376-507.904-512s229.376-512 509.952-512 509.952 229.376 509.952 512-229.376 512-512 512zM509.952 7.68c-241.664 0-438.272 196.608-438.272 440.32s198.656 440.32 440.32 440.32 438.272-198.656 438.272-440.32-196.608-440.32-440.32-440.32z" />
<glyph unicode="&#xe94b;" glyph-name="market" d="M1024 586.24c0 46.080-37.888 83.968-84.992 83.968h-50.176c22.528 26.624 34.816 59.392 34.816 94.208 0 78.848-65.536 143.36-145.408 143.36-64.512 0-121.856-51.2-163.84-148.48-34.816 13.312-78.848 13.312-112.64 0-43.008 98.304-99.328 149.504-163.84 149.504-66.56 0-124.928-45.056-141.312-108.544l-1.024-5.12 5.12-1.024c12.288-2.048 25.6-6.144 37.888-10.24l5.12-2.048 1.024 5.12c10.24 41.984 48.128 71.68 92.16 71.68 56.32 0 97.28-69.632 121.856-130.048-4.096-6.144-6.144-12.288-6.144-18.432v-3.072c0-1.024 0-1.024 0-2.048 0 0 0-1.024 0-1.024v0 0c1.024-10.24 5.12-20.48 13.312-28.672-5.12-1.024-11.264-1.024-17.408-1.024-35.84 0-82.944 15.36-139.264 47.104-62.464 31.744-120.832 49.152-174.080 49.152-83.968 0-124.928-44.032-130.048-50.176-4.096-5.12-6.144-11.264-5.12-18.432 1.024-6.144 4.096-12.288 9.216-16.384 10.24-8.192 26.624-6.144 34.816 4.096 0 0 27.648 31.744 90.112 31.744 44.032 0 95.232-15.36 150.528-46.080 64.512-34.816 118.784-53.248 163.84-53.248 7.168 0 14.336 1.024 22.528 2.048l2.048-3.072h59.392v-148.48h-390.144v113.664c0 19.456 15.36 34.816 34.816 34.816h155.648l-20.48 9.216c-15.36 7.168-28.672 14.336-40.96 20.48-13.312 8.192-26.624 14.336-39.936 19.456h-54.272c-47.104 0-84.992-37.888-84.992-83.968v-163.84h60.416v-351.232c0-46.080 37.888-83.968 84.992-83.968h641.024c47.104 0 84.992 37.888 84.992 83.968v352.256h60.416v162.816zM973.824 586.24v-113.664h-391.168v148.48h355.328c19.456 0 35.84-15.36 35.84-34.816zM663.552 705.024c0 8.192-2.048 16.384-7.168 23.552 24.576 59.392 65.536 130.048 121.856 130.048 52.224 0 95.232-41.984 95.232-94.208s-43.008-94.208-95.232-94.208h-131.072c10.24 11.264 16.384 23.552 16.384 34.816zM507.904 699.904c-4.096 2.048-5.12 4.096-5.12 5.12 0 5.12 19.456 14.336 55.296 14.336 33.792 0 55.296-9.216 55.296-14.336s-19.456-14.336-55.296-14.336c-6.144 0-13.312 0-19.456 1.024-2.048 4.096-5.12 6.144-9.216 8.192-7.168 3.072-14.336 3.072-21.504 0zM532.48 423.424v-386.048h-294.912c-19.456 0-34.816 15.36-34.816 34.816v351.232h329.728zM913.408 423.424v-351.232c0-19.456-15.36-34.816-34.816-34.816h-295.936v386.048h330.752zM464.896 711.168v0 0 0z" />
<glyph unicode="&#xe94c;" glyph-name="member" d="M651.264 370.176c143.36 69.632 210.944 239.616 153.6 389.12-45.056 120.832-161.792 200.704-290.816 200.704-36.864 0-75.776-6.144-110.592-20.48-159.744-61.44-241.664-241.664-180.224-401.408 28.672-73.728 83.968-135.168 153.6-167.936-182.272-59.392-307.2-229.376-309.248-423.936v-10.24h69.632v10.24c-4.096 206.848 161.792 378.88 366.592 380.928h8.192c202.752 0 370.688-165.888 374.784-366.592 0-4.096 0-10.24 0-14.336v-10.24h69.632v10.24c2.048 194.56-122.88 364.544-305.152 423.936zM505.856 413.184c-129.024 2.048-231.424 106.496-235.52 235.52 4.096 129.024 110.592 235.52 241.664 235.52h6.144c131.072-4.096 233.472-106.496 235.52-235.52-4.096-129.024-110.592-235.52-241.664-235.52h-6.144z" />
<glyph unicode="&#xe94d;" glyph-name="menu1" d="M0 755.2h1024v-61.44h-1024v61.44zM0 478.72h1024v-61.44h-1024v61.44zM0 202.24h1024v-61.44h-1024v61.44z" />
<glyph unicode="&#xe94e;" glyph-name="message" d="M901.12 799.232c-95.232 97.28-236.544 153.6-387.072 153.6-283.648 0-514.048-202.752-514.048-450.56 0-219.136 153.6-396.288 382.976-440.32 1.024-1.024 8.192-6.144 39.936-45.056 34.816-44.032 57.344-73.728 88.064-73.728 28.672 0 52.224 26.624 90.112 72.704l1.024 1.024c28.672 35.84 37.888 44.032 39.936 45.056 228.352 41.984 381.952 219.136 381.952 440.32 1.024 109.568-43.008 216.064-122.88 296.96zM959.488 509.44c-4.096-188.416-133.12-332.8-329.728-366.592-24.576-4.096-38.912-22.528-77.824-70.656l-14.336-15.36c-10.24-11.264-19.456-21.504-24.576-27.648l-3.072 3.072c-5.12 5.12-12.288 14.336-20.48 25.6l-9.216 12.288c-39.936 50.176-55.296 68.608-79.872 72.704-194.56 33.792-324.608 181.248-324.608 366.592 0 204.8 198.656 371.712 442.368 371.712s441.344-166.912 441.344-371.712zM312.32 550.4c-28.672 0-53.248-25.6-53.248-56.32s23.552-56.32 53.248-56.32c29.696 0 53.248 25.6 53.248 56.32s-24.576 56.32-53.248 56.32zM514.048 550.4c-29.696 0-53.248-25.6-53.248-56.32s23.552-56.32 53.248-56.32c28.672 0 53.248 25.6 53.248 56.32 0 31.744-24.576 56.32-53.248 56.32zM714.752 550.4c-28.672 0-53.248-25.6-53.248-56.32s23.552-56.32 53.248-56.32c28.672 0 53.248 25.6 53.248 56.32 1.024 15.36-5.12 29.696-15.36 39.936-10.24 11.264-23.552 16.384-37.888 16.384z" />
</font>
</defs>
</svg>
