<?xml version="1.0" standalone="no"?>
<!DOCTYPE svg PUBLIC "-//W3C//DTD SVG 1.1//EN" "http://www.w3.org/Graphics/SVG/1.1/DTD/svg11.dtd" >
<svg xmlns="http://www.w3.org/2000/svg">
<metadata>Generated by IcoMoon</metadata>
<defs>
<font id="iconfont" horiz-adv-x="1024">
<font-face units-per-em="1024" ascent="960" descent="-64" />
<missing-glyph horiz-adv-x="1024" />
<glyph unicode="&#x20;" horiz-adv-x="512" d="" />
<glyph unicode="&#xe900;" glyph-name="7day" d="M1022.438 478.141v4.397c-3.855 50.030-14.373 96.423-30.713 139.97l1.15-3.495-0.752 2.025-0.347 0.926-0.81 2.198-1.793 4.744v0.463c-48.267 121.479-137.852 217.927-251.032 273.866l-3.001 1.341-0.984 0.463c-65.327 32.831-142.36 52.054-223.884 52.054-166.497 0-314.267-80.179-406.804-204.032l-0.952-1.332c-64.017-84.566-102.542-191.517-102.542-307.467 0-137.175 53.921-261.755 141.723-353.703l-0.188 0.198c77.692-81.691 181.959-137.462 298.896-153.421l2.634-0.294c0.554-0.040 1.2-0.062 1.851-0.062s1.297 0.023 1.938 0.067l-0.086-0.005c10.908 0.031 20.306 6.466 24.633 15.742l0.070 0.168h1.967l2.198 10.471c15.562 74.283 28.927 138.442 38.646 171.65 20.802 68.018 43.527 125.313 70.181 180.351l-3.245-7.428c32.131 69.836 66.365 129.351 105.24 185.402l-2.609-3.975c38.472 55.77 69.424 95.284 92.565 117.558l3.182 3.066v94.648h-530.050v-113.392h392.765c-47.264-57.082-91.477-120.674-130.166-187.85l-3.533-6.653c-70.754-123.806-119.872-249.925-146.021-375.12-52.075 18.038-97.132 43.415-136.616 75.401l0.835-0.655c-1.264 1.62-2.65 3.043-4.177 4.302l-0.046 0.037c-100.794 83.577-164.514 208.826-164.514 348.959 0 114.39 42.459 218.863 112.478 298.519l-0.436-0.507c31.257 35.241 67.304 65.285 107.334 89.386l2.066 1.154c39.045 23.552 84.376 41.918 132.594 52.606l3.013 0.561 2.256 0.463 2.719 0.579c27.256 5.708 58.575 8.976 90.658 8.976 71.234 0 138.704-16.111 198.967-44.887l-2.789 1.199c152.692-74.931 255.949-229.28 255.949-407.746 0-22.512-1.643-44.641-4.816-66.272l0.296 2.457c-0.161-1.104-0.254-2.378-0.254-3.674s0.092-2.57 0.27-3.816l-0.017 0.143c-13.535-82.979-47.898-156.211-97.522-216.391l0.618 0.772c-3.815-4.624-6.129-10.609-6.129-17.135 0-13.14 9.381-24.089 21.81-26.516l0.171-0.028c3.989-2.411 8.807-3.837 13.959-3.837 8.608 0 16.285 3.983 21.29 10.206l0.041 0.053c69.225 86.134 111.107 196.809 111.107 317.266 0 12.214-0.431 24.328-1.278 36.327l0.091-1.614z" />
<glyph unicode="&#xe901;" glyph-name="finance" d="M972.8 612.352h-45.568v160.768c0 23.040-18.432 41.472-41.472 41.472h-748.032c-23.040 0-41.472-18.432-41.472-41.472v-160.768h-45.056c-28.16 0-51.2-23.040-51.2-51.2v-573.952c0-28.16 23.040-51.2 51.2-51.2h921.6c28.16 0 51.2 23.040 51.2 51.2v573.952c0 28.16-23.040 51.2-51.2 51.2zM133.12 773.12c0 2.56 2.048 5.12 5.12 5.12h747.52c2.56 0 5.12-2.048 5.12-5.12v-160.768h-403.456l-61.952 61.952c-1.536 1.536-4.096 1.536-5.632 0l-14.848-14.848c-1.536-1.536-1.536-4.096 0-5.632l41.472-41.472h-313.344v160.768zM972.8-18.944h-921.6c-3.584 0-6.144 2.56-6.144 6.144v573.952c0 3.584 2.56 6.144 6.144 6.144h921.6c3.584 0 6.144-2.56 6.144-6.144v-573.952c0-3.072-3.072-6.144-6.144-6.144v0zM618.496 659.456l-14.848 14.848c-1.536 1.536-4.096 1.536-5.632 0l-61.952-61.952h40.448l41.472 41.472c2.048 1.536 2.048 4.096 0.512 5.632zM625.152 439.296c-2.048 2.048-5.12 2.048-6.656 0l-106.496-106.496-106.496 106.496c-2.048 2.048-5.12 2.048-6.656 0l-18.432-18.432c-2.048-2.048-2.048-5.12 0-6.656l80.896-80.896c3.072-3.072 1.024-8.192-3.072-8.192h-62.976c-2.56 0-4.608-2.048-4.608-4.608v-26.112c0-2.56 2.048-4.608 4.608-4.608h94.208c2.56 0 4.608-2.048 4.608-4.608v-33.792c0-2.56-2.048-4.608-4.608-4.608h-94.208c-2.56 0-4.608-2.048-4.608-4.608v-25.6c0-2.56 2.048-4.608 4.608-4.608h94.208c2.56 0 4.608-2.048 4.608-4.608v-94.208c0-2.56 2.048-4.608 4.608-4.608h26.112c2.56 0 4.608 2.048 4.608 4.608v94.208c0 2.56 2.048 4.608 4.608 4.608h94.208c2.56 0 4.608 2.048 4.608 4.608v25.6c0 2.56-2.048 4.608-4.608 4.608h-94.208c-2.56 0-4.608 2.048-4.608 4.608v33.792c0 2.56 2.048 4.608 4.608 4.608h94.208c2.56 0 4.608 2.048 4.608 4.608v25.6c0 2.56-2.048 4.608-4.608 4.608h-62.464c-4.096 0-6.144 5.12-3.072 8.192l80.896 80.896c2.048 2.048 2.048 5.12 0 6.656l-18.432 18.944zM239.616 930.304c0 2.048 1.536 3.584 3.584 3.584h538.112c2.048 0 3.584-1.536 3.584-3.584v-115.712h26.112v115.712c0 16.384-13.312 29.696-29.696 29.696h-538.112c-16.384 0-29.696-13.312-29.696-29.696v-115.712h26.112v115.712zM445.952 859.136l-10.752-10.752c-1.024-1.024-1.024-2.56 0-4.096l30.208-30.208h29.184l-44.544 44.544c-1.536 1.536-3.072 1.536-4.096 0.512zM573.952 859.136l-44.544-44.544h29.184l30.208 30.208c1.024 1.024 1.024 2.56 0 4.096l-10.752 10.752c-1.024 0.512-2.56 0.512-4.096-0.512v0z" />
<glyph unicode="&#xe902;" glyph-name="list" d="M796.749 630.349h-404.124c-10.952-0.548-19.166-10.404-18.618-21.356 0.548-9.857 8.761-18.071 18.618-18.618h404.124c10.952 1.095 19.166 10.952 18.071 22.451-1.095 8.761-8.761 16.428-18.071 17.523zM209.728 610.088c0-10.952 7.119-20.261 15.88-20.261h48.188c8.761 0 15.88 8.761 15.88 20.261s-7.119 20.261-15.88 20.261h-48.188c-8.214 0-15.88-8.761-15.88-20.261zM796.749 409.121h-404.124c-10.952-0.548-19.166-10.404-18.618-21.356 0.548-9.857 8.761-18.071 18.618-18.618h404.124c10.952 1.095 19.166 10.952 18.071 22.451-1.095 9.309-8.761 16.428-18.071 17.523zM274.344 409.121h-48.188c-8.761 0-15.88-9.309-15.88-20.261s7.119-20.261 15.88-20.261h48.188c8.761 0 15.88 8.761 15.88 20.261s-7.119 20.261-15.88 20.261zM796.749 187.893h-404.124c-10.952-0.548-19.166-10.404-18.618-21.356 0.548-9.857 8.761-18.071 18.618-18.618h404.124c10.952 1.095 19.166 10.952 18.071 22.451-1.095 9.309-8.761 16.428-18.071 17.523zM274.344 187.893h-48.188c-8.761 0-15.88-8.761-15.88-20.261s7.119-20.261 15.88-20.261h48.188c8.761 0 15.88 8.761 15.88 20.261s-7.119 20.261-15.88 20.261zM371.816 771.080h281.463c21.904 0 39.974 18.071 39.974 39.974v100.757c0 22.451-18.071 39.974-39.974 39.974h-281.463c-21.904 0-39.974-18.071-39.974-39.974v-100.21c0-22.451 18.071-40.522 39.974-40.522v0zM371.816 911.812h281.463v-100.21h-281.463c0-0.548 0 100.21 0 100.21zM894.22 951.786h-160.993v-39.974h160.993c33.403 0 60.235-26.832 60.235-60.235v0-803.867c0-33.403-26.832-60.235-60.235-60.235h-763.893c-33.403 0-60.235 26.832-60.235 60.235v803.867c0 33.403 26.832 60.235 60.235 60.235h160.993v39.974h-160.993c-55.307 0-100.21-44.903-100.21-100.21v-803.867c0-55.307 44.903-100.21 100.757-100.757h763.893c55.307 0 100.21 44.903 100.757 100.757v803.867c-1.095 55.307-45.998 100.21-101.305 100.21z" />
<glyph unicode="&#xe903;" glyph-name="qr-code" d="M384 896h-249.856c-51.2 0-89.6-41.472-89.6-89.6v-227.328c0-51.2 41.472-89.6 89.6-89.6h249.856c51.2 0 89.6 41.472 89.6 89.6v227.328c0 48.128-38.4 89.6-89.6 89.6zM429.056 579.072c0-25.6-19.456-44.544-45.056-44.544h-249.856c-25.6 0-45.056 19.456-45.056 44.544v227.328c0 25.6 19.456 45.056 45.056 45.056h249.856c25.6 0 45.056-18.944 45.056-45.056v-227.328zM192 768h134.656v-134.656h-134.656v134.656zM377.856 415.744h-243.2c-48.128 0-86.528-38.4-86.528-89.6v-220.672c0-48.128 38.4-89.6 86.528-89.6h243.2c48.128 0 86.528 38.4 86.528 89.6v220.672c3.072 51.2-38.912 89.6-86.528 89.6zM422.4 108.544c0-25.6-19.456-45.056-45.056-45.056h-242.688c-25.6 0-45.056 19.456-45.056 45.056v220.672c0 25.6 18.944 45.056 45.056 45.056h243.2c25.6 0 45.056-19.456 45.056-45.056v-220.672zM192 291.328h131.072v-131.072h-131.072c0-0.512 0 131.072 0 131.072zM633.344 489.472h249.344c51.2 0 89.6 41.472 89.6 89.6v227.328c0 51.2-41.472 89.6-89.6 89.6h-249.344c-51.2 0-89.6-41.472-89.6-89.6v-227.328c0.512-51.2 41.984-89.6 89.6-89.6zM588.8 806.4c0 25.6 19.456 45.056 44.544 45.056h249.344c25.6 0 45.056-19.456 45.056-45.056v-227.328c0-25.6-19.456-44.544-45.056-44.544h-249.344c-25.6 0-44.544 19.456-44.544 44.544v227.328zM700.928 768h134.144v-134.656h-134.656l0.512 134.656zM572.928 243.2h137.728c12.8 0 22.528 9.728 22.528 22.528v137.728c0 12.8-9.728 22.528-22.528 22.528h-137.728c-12.8 0-22.528-9.728-22.528-22.528v-137.728c0-12.8 9.728-22.528 22.528-22.528zM886.272 396.8v-38.4c0-12.8 12.8-25.6 25.6-25.6h38.4c12.8 0 25.6 12.8 25.6 25.6v38.4c0 12.8-12.8 25.6-25.6 25.6h-38.4c-12.8 0-25.6-9.728-25.6-25.6zM582.656 15.872h48.128c12.8 0 22.528 9.728 22.528 22.528v48.128c0 12.8-9.728 22.528-22.528 22.528h-48.128c-12.8 0-22.528-9.728-22.528-22.528v-48.128c0-12.8 9.216-22.528 22.528-22.528zM944.128 256h-99.328c-15.872 0-28.672-12.8-28.672-28.672v-45.056h-48.128c-19.456 0-32.256-12.8-32.256-32.256v-99.328c0-15.872 12.8-28.672 28.672-28.672l179.2-3.072c15.872 0 28.672 12.8 28.672 28.672v179.2c0.512 16.384-12.288 29.184-28.16 29.184z" />
<glyph unicode="&#xe904;" glyph-name="notice" d="M811.763 641.359l-244.845 196.219c-6.865 5.721-8.009 16.018-2.288 22.883s16.018 8.009 22.883 2.86l245.417-195.647c6.865-5.721 8.009-16.018 2.288-22.883-2.86-4.004-8.009-6.293-12.585-6.293h-0.572c-4.004-0.572-7.437 0.572-10.297 2.86v0zM211.665 641.359l244.845 196.219c6.865 5.721 8.009 16.018 2.288 22.883s-16.018 8.009-22.883 2.86l-245.417-196.219c-6.865-5.721-8.009-16.018-2.288-22.883 2.86-4.004 8.009-6.293 12.585-6.293h0.572c3.432 0 7.437 1.144 10.297 3.432zM558.337 907.37c0-25.743-21.166-46.909-46.909-46.909s-46.909 21.166-46.909 46.909 21.166 46.909 46.909 46.909c26.315 0 46.909-21.166 46.909-46.909zM961.073 619.048h-898.717c-28.031 0-50.914-22.883-50.914-50.914 0 0 0 0 0 0v-564.63c0-28.031 22.883-50.914 50.914-50.914 0 0 0 0 0 0h898.717c28.031 0 50.914 22.883 50.914 50.914 0 0 0 0 0 0v564.63c0 28.031-22.883 50.914-50.914 50.914v0zM981.095 30.963c0-28.031-22.883-50.914-50.914-50.914 0 0 0 0 0 0h-836.934c-28.031 0-50.914 22.883-50.914 50.914 0 0 0 0 0 0v509.712c0 28.031 22.883 50.914 50.914 50.914 0 0 0 0 0 0h836.934c28.031 0 50.914-22.883 50.914-50.914 0 0 0 0 0 0v-509.712zM325.506 487.473h372.416c14.302 0 25.743-11.441 26.315-25.743 0 0 0 0 0 0 0-14.302-11.441-25.743-25.743-26.315 0 0 0 0 0 0h-372.988c-14.302 0-25.743 11.441-26.315 25.743 0 0 0 0 0 0 0 14.302 12.013 26.315 26.315 26.315 0 0 0 0 0 0zM813.479 110.48c0-14.302-11.441-25.743-25.743-26.315 0 0 0 0 0 0h-551.473c-14.302 0-25.743 11.441-26.315 25.743 0 0 0 0 0 0 0 14.302 11.441 25.743 25.743 26.315 0 0 0 0 0 0h551.473c14.302 0.572 26.315-10.869 26.315-25.743 0 0 0 0 0 0zM813.479 227.754c0-14.302-11.441-25.743-25.743-26.315 0 0 0 0 0 0h-551.473c-14.302 0-25.743 11.441-26.315 25.743 0 0 0 0 0 0 0 14.302 11.441 25.743 25.743 26.315 0 0 0 0 0 0h551.473c14.302 0 26.315-11.441 26.315-25.743 0 0 0 0 0 0zM813.479 344.456c0-14.302-11.441-25.743-25.743-26.315 0 0 0 0 0 0h-551.473c-14.302 0-25.743 11.441-26.315 25.743 0 0 0 0 0 0 0 14.302 11.441 25.743 25.743 26.315 0 0 0 0 0 0h551.473c14.302 0 26.315-11.441 26.315-25.743 0 0 0 0 0 0zM321.502 435.415c-14.302 0-25.743 11.441-25.743 25.743v0c0 14.302 11.441 25.743 25.743 25.743h379.28c14.302 0 25.743-11.441 25.743-25.743v0c0-14.302-11.441-25.743-25.743-25.743z" />
<glyph unicode="&#xe905;" glyph-name="wechat" d="M174.080 215.552c-9.216 0-17.408 4.608-22.016 12.288-4.096 6.656-4.608 14.848-2.048 22.016l22.016 79.36-3.072 2.048c-39.936 24.576-67.584 48.64-87.552 75.776-28.672 38.4-41.472 81.92-41.472 137.728 0 76.8 36.864 148.992 103.936 202.752 65.536 52.736 151.552 81.408 243.2 81.408 83.968 0 164.864-25.088 228.352-70.144 65.024-46.592 105.984-110.592 116.224-180.224v-1.536c1.024-13.312-8.704-25.088-22.016-27.136-1.024 0-2.56-0.512-3.584-0.512s-2.048 0-3.584 0c-4.096 0.512-6.656 0.512-9.216 0.512-1.536 0-5.12 0-10.752 0-68.096 0-132.096-20.992-179.712-59.392-46.080-36.864-71.168-86.016-71.168-137.216 0-9.728 1.024-19.456 2.56-28.672 1.536-9.728 4.608-18.944 7.68-28.16l1.024-2.56c1.536-5.632 1.024-11.264-1.536-16.896-2.56-6.144-7.68-11.264-14.336-13.312-2.56-1.024-5.632-1.536-8.192-1.536-4.608-0.512-9.728-0.512-15.872-1.024-7.168-0.512-12.8-0.512-16.896-0.512h-19.456c-5.12 0-9.216 0-13.312 0-23.552 0-32.256 1.536-72.192 13.312l-2.048 0.512-92.672-56.32c-4.096-1.536-8.192-2.56-12.288-2.56zM226.304 334.848l-10.752-38.4 45.568 27.648c4.608 3.072 9.216 4.608 14.336 4.608 2.048 0 4.096 0 6.144-0.512l1.536-0.512c44.544-13.312 52.736-15.36 73.728-15.36 3.072 0 6.144 0 9.728 0h18.432l-1.024 6.144c-2.048 11.776-3.072 23.552-3.072 35.84 0 67.072 32.256 130.048 90.624 177.152 52.736 42.496 121.856 67.584 195.584 70.656l7.168 0.512-2.56 6.656c-14.848 41.984-45.056 79.872-86.016 109.568-54.272 38.912-124.928 60.416-198.656 60.416-79.872 0-155.136-25.088-211.456-70.144-54.784-44.544-84.992-102.912-84.992-163.84 0-44.544 10.24-78.848 31.232-107.52 18.432-24.576 46.080-47.104 89.6-72.704 11.264-5.12 16.896-16.896 14.848-28.16v-2.048zM865.28 66.56c-4.096 0-8.192 1.024-12.288 3.072l-78.848 47.616-2.048-0.512c-32.768-9.728-40.96-11.264-61.44-11.264-3.584 0-7.168 0-11.264 0h-16.896c-79.36 0-154.624 25.088-211.456 70.656-58.368 47.104-90.624 110.080-90.624 177.152s32.256 130.56 90.624 177.664c56.832 45.568 132.096 70.656 211.456 70.656s154.624-25.088 211.456-70.656c58.368-47.104 90.624-110.080 90.624-177.152 0-48.64-11.776-87.040-36.352-120.832l-1.536-1.536c-16.896-22.016-39.936-41.984-72.192-62.464l-3.072-2.048 17.92-65.024c2.56-6.656 2.048-13.824-0.512-19.968-3.072-6.144-7.68-10.752-14.336-13.312-3.072-1.536-6.144-2.048-9.216-2.048zM777.728 170.496c5.12 0 10.24-1.536 14.336-4.608l31.744-18.944-7.68 27.136c-2.048 11.264 4.096 22.528 14.336 27.136 37.376 21.504 60.928 40.448 76.288 61.44 17.92 24.064 26.112 52.736 26.112 90.624 0 51.712-25.6 100.352-71.168 137.216-47.616 38.4-111.616 59.392-179.712 59.392s-132.096-20.992-179.712-59.392c-46.080-36.864-71.168-86.016-71.168-137.216s25.6-100.352 71.168-137.216c47.616-38.4 111.616-59.392 179.712-59.392 2.56 0 4.608 0 7.168 0s5.12 0 10.24 0c3.072 0 5.632 0 8.192 0 17.92 0 24.576 1.536 62.976 12.8l1.536 0.512c2.048 0.512 4.096 0.512 5.632 0.512zM587.264 395.264c0-19.456 18.944-35.84 43.008-35.84 23.552 0 43.008 15.872 43.008 35.84 0 0 0 0 0 0 0 19.456-18.944 35.84-43.008 35.84-23.552-0.512-43.008-16.384-43.008-35.84 0 0 0 0 0 0zM777.728 400.384c0-19.456 18.944-35.84 43.008-35.84 23.552 0 43.008 15.872 43.008 35.84 0 0 0 0 0 0 0 19.456-18.944 35.84-43.008 35.84-23.552-0.512-43.008-16.384-43.008-35.84 0 0 0 0 0 0zM438.272 621.568c0-23.040 22.528-41.472 49.664-41.472 27.648 0 49.664 18.432 49.664 41.472 0 0 0 0 0 0 0 23.040-22.528 41.472-49.664 41.472s-49.664-18.944-49.664-41.472zM216.576 627.2c0-23.040 22.528-41.472 49.664-41.472 27.648 0 49.664 18.432 49.664 41.472s-22.528 41.472-49.664 41.472-49.664-18.432-49.664-41.472z" />
<glyph unicode="&#xe906;" glyph-name="crown" d="M933.376 715.776c-33.28 0-59.904-26.624-59.904-59.904 0-8.192 1.536-16.384 4.608-23.552l-195.584-80.896-137.216 236.032c15.872 10.752 26.112 29.184 26.112 49.152 0 33.28-26.624 59.904-59.904 59.904s-59.904-26.624-59.904-59.904c0-20.48 10.24-38.4 25.6-49.152l-153.088-236.032-178.688 79.36c3.584 7.68 5.12 15.872 5.12 24.576 0 33.28-26.624 59.904-59.904 59.904s-59.904-26.112-59.904-59.392c0-32.768 26.112-59.392 58.88-59.904l93.184-400.896c3.584-15.36 16.896-26.112 32.768-26.112h591.36c15.872 0 29.184 10.752 32.768 26.112l93.184 400.896h1.024c33.28 0 59.904 26.624 59.904 59.904s-27.136 59.904-60.416 59.904v0zM779.776 236.032h-538.112l-71.68 310.784 152.576-68.608c14.848-6.656 32.768-1.536 41.984 12.288l144.896 224.768 130.048-223.232c8.192-14.336 26.112-20.48 41.984-14.336l171.52 71.168-73.216-312.832zM800.256 119.808h-578.56c-18.432 0-33.792-14.848-33.792-33.792s14.848-33.792 33.792-33.792h578.56c18.432 0 33.792 14.848 33.792 33.792-0.512 18.944-15.36 33.792-33.792 33.792z" />
<glyph unicode="&#xe907;" glyph-name="delete" d="M987.962 800.912h-208.647v49.503c-0.319 60.393-49.192 109.266-109.554 109.585h-325.335c-60.418-0.287-109.322-49.172-109.641-109.554v-49.534h-198.011c-15.623 0-28.287-12.665-28.287-28.287s12.665-28.287 28.287-28.287v0h67.211v-700.11c0.287-60.418 49.172-109.322 109.554-109.641h608.208c60.437 0.288 109.354 49.204 109.641 109.614v700.138h56.575c0.119-0.002 0.259-0.003 0.399-0.003 15.404 0 27.891 12.487 27.891 27.891 0 0.14-0.001 0.28-0.003 0.42v-0.021c-3.564 14.144-10.636 28.287-28.287 28.287zM294.867 850.415c0.739 28.995 24.067 52.303 53 53.009l0.067 0.001h325.304c29.019-0.708 52.359-24.048 53.066-53l0.001-0.067v-49.446h-431.438zM874.756 54.807c0-31.795-17.651-63.646-45.939-63.646h-608.177c-28.287 0-60.082 21.215-60.082 49.503l3.508 703.675h710.69zM351.498 592.322c-0.711 0.069-1.536 0.108-2.371 0.108-14.373 0-26.024-11.651-26.024-26.024 0-0.835 0.039-1.661 0.116-2.475l-0.008 0.104v-378.314c0-15.623 12.665-28.287 28.287-28.287s28.287 12.665 28.287 28.287v0 378.314c-3.564 14.087-10.636 28.287-28.287 28.287zM528.293 592.322c-0.711 0.069-1.536 0.108-2.371 0.108-14.373 0-26.024-11.651-26.024-26.024 0-0.835 0.039-1.661 0.116-2.475l-0.008 0.104v-378.314c0-15.623 12.665-28.287 28.287-28.287s28.287 12.665 28.287 28.287v0 378.314c-3.564 14.087-10.636 28.287-28.287 28.287zM705.089 592.322c-0.711 0.069-1.536 0.108-2.371 0.108-14.373 0-26.024-11.651-26.024-26.024 0-0.835 0.039-1.661 0.116-2.475l-0.008 0.104v-378.314c0-15.623 12.665-28.287 28.287-28.287s28.287 12.665 28.287 28.287v0 378.314c-3.564 14.087-10.636 28.287-28.287 28.287z" />
<glyph unicode="&#xe908;" glyph-name="add" d="M125.331 475.234h773.392v-54.468h-773.392v54.468zM484.766 61.277v773.392h54.468v-773.392h-54.468z" />
<glyph unicode="&#xe909;" glyph-name="minus" d="M125.331 475.234h773.392v-54.468h-773.392v54.468z" />
<glyph unicode="&#xe90a;" glyph-name="save" d="M931.328 492.544c-12.8 0-22.528-9.728-22.528-22.528v-329.216c0-22.528-19.456-41.472-41.472-41.472h-732.672c-22.528 0-41.472 19.456-41.472 41.472v563.2c0 22.528 19.456 41.472 41.472 41.472h294.4c12.8 0 22.528 9.728 22.528 22.528s-9.728 22.528-22.528 22.528h-294.4c-48.128 0-89.6-38.4-89.6-89.6v-563.2c0-48.128 38.4-89.6 89.6-89.6h732.672c48.128 0 89.6 38.4 89.6 89.6v329.216c0 12.8-9.728 25.6-25.6 25.6zM969.728 694.272l-96.256 109.056c-9.728 9.728-22.528 9.728-35.328 3.072-9.728-9.728-9.728-22.528-3.072-35.328l48.128-57.856c-67.072 0-147.456-15.872-224.256-51.2-134.656-64-227.328-185.856-259.072-371.2-3.072-12.8 6.656-25.6 19.456-28.672s25.6 6.656 28.672 19.456c28.672 169.472 112.128 278.528 230.4 335.872 45.056 22.528 96.256 35.328 147.456 41.472 25.6 3.072 51.2 6.656 73.728 3.072l-83.456-73.728c-9.728-9.728-9.728-22.528-3.072-35.328 9.728-9.728 22.528-9.728 35.328-3.072l115.2 99.328c15.872 19.456 15.872 35.328 6.144 45.056z" />
<glyph unicode="&#xe90b;" glyph-name="free" d="M967.68 460.8c0 6.144-0.512 11.776-1.024 17.92-0.512 11.776-2.048 23.040-3.584 34.816-5.12 35.328-14.336 69.632-27.136 101.376 0 0 0 0.512 0 0.512-0.512 1.536-1.024 2.56-1.536 4.096 0 0.512-0.512 0.512-0.512 1.024-0.512 1.024-1.024 2.56-1.536 3.584 0 0.512-0.512 1.024-0.512 1.536-0.512 1.024-1.024 2.048-1.536 3.072-0.512 0.512-0.512 1.536-1.024 2.048-0.512 1.024-1.024 2.048-1.024 2.56-0.512 0.512-0.512 1.536-1.024 2.048-0.512 1.024-1.024 1.536-1.024 2.56-0.512 1.024-1.024 1.536-1.024 2.56-0.512 0.512-0.512 1.536-1.024 2.048-0.512 1.024-1.024 1.536-1.536 2.56-0.512 0.512-0.512 1.536-1.024 2.048-0.512 1.024-1.024 2.048-1.536 2.56s-0.512 1.536-1.024 2.048c-0.512 1.024-1.024 2.048-1.536 3.072-0.512 0.512-0.512 1.536-1.024 2.048-0.512 1.024-1.024 2.048-1.536 3.072-0.512 0.512-0.512 1.536-1.024 2.048-0.512 1.024-1.024 2.048-1.536 2.56s-0.512 1.536-1.024 2.048c-0.512 1.024-1.024 1.536-1.536 2.56-0.512 0.512-1.024 1.536-1.024 2.048-0.512 1.024-1.024 1.536-1.536 2.56-0.512 0.512-1.024 1.536-1.536 2.048s-1.024 1.536-1.536 2.048c-0.512 1.024-1.024 1.536-1.536 2.56-0.512 0.512-1.024 1.536-1.024 2.048-0.512 1.024-1.024 2.048-1.536 2.56s-0.512 1.024-1.024 1.536-1.024 2.048-2.048 3.072c-0.512 0.512-0.512 1.024-1.024 1.536-0.512 1.024-1.536 2.048-2.048 3.072 0 0.512-0.512 0.512-0.512 1.024-1.024 1.024-1.536 2.56-2.56 3.584 0 0.512-0.512 0.512-0.512 1.024-1.024 1.536-1.536 2.56-2.56 4.096 0 0 0 0.512-0.512 0.512-1.024 1.536-2.048 2.56-3.072 4.096 0 0 0 0 0 0-11.776 16.384-24.576 31.744-38.4 46.080 0 0 0 0 0 0-1.024 1.024-2.048 2.048-3.072 3.072-0.512 0.512-0.512 0.512-1.024 1.024s-1.536 1.536-2.048 2.048c-0.512 0.512-1.536 1.536-2.048 2.048 0 0-0.512 0.512-0.512 0.512-2.048 2.048-4.096 4.096-6.656 6.144-43.52 41.472-93.184 72.704-145.92 93.184-50.688 19.968-105.472 30.72-162.304 30.72-24.576 0.512-49.152-1.536-73.216-5.12-33.28-5.12-65.536-13.824-95.744-25.6 0 0 0 0 0 0-1.536-0.512-2.56-1.024-4.096-1.536-0.512-0.512-1.536-0.512-2.048-1.024s-1.536-0.512-2.048-1.024c-5.632-2.048-11.264-4.608-16.384-7.168-56.832-22.016-104.96-57.344-145.92-101.888-51.2-55.808-85.504-121.344-102.912-189.952-14.848-56.832-18.944-117.76-9.728-179.712 16.384-108.032 69.632-204.288 152.064-274.432 1.024-1.024 2.048-1.536 3.072-2.56 0 0 0 0 0 0 80.896-68.608 182.272-105.472 288.256-105.472 6.656 0 13.312 0 20.48 0.512 6.144 0.512 12.288 3.072 16.384 7.68s6.656 10.752 6.144 17.408c-0.512 6.144-3.072 12.288-7.68 16.384s-10.752 6.656-17.408 6.144c-92.672-4.096-181.76 23.040-254.976 77.312-0.512 0.512-0.512 0.512-1.024 1.024-7.68 5.632-15.36 11.776-22.528 17.92-0.512 0.512-1.536 1.024-2.048 2.048 0 0 0 0 0 0-2.56 2.048-5.12 4.608-7.168 6.656-113.152 103.424-153.088 257.024-117.248 396.288 30.208 116.736 112.64 215.552 224.768 265.728 1.024 0.512 2.048 1.024 3.072 1.536s2.048 1.024 3.072 1.536c2.56 1.024 4.608 2.048 7.168 3.072 0.512 0 0.512 0 1.024 0.512 41.984 16.896 86.016 26.112 131.072 28.16 52.224 2.56 103.424-5.12 152.064-22.528 5.632-2.048 11.776-4.096 17.408-6.656 0.512 0 1.024-0.512 2.048-0.512 1.536-0.512 3.072-1.024 4.096-2.048 28.16-12.288 55.296-27.648 80.384-46.080 7.68-5.632 15.36-11.776 22.528-17.92 0 0 0.512-0.512 0.512-0.512 1.536-1.536 3.072-2.56 4.608-4.096 1.536-1.024 2.56-2.56 4.096-3.584s2.56-2.56 4.096-3.584c17.92-16.896 34.304-35.328 48.64-54.784 0.512-0.512 1.024-1.024 1.024-1.536 1.536-1.536 2.56-3.584 3.584-5.12s2.048-2.56 2.56-4.096c0.512-1.024 1.536-2.048 2.048-3.072 1.536-2.048 2.56-4.096 3.584-5.632 0.512-0.512 0.512-1.024 1.024-1.536 1.536-2.048 3.072-4.608 4.096-6.656 34.816-56.832 55.296-121.856 58.368-189.952 0-1.024 0-1.536 0.512-2.56 3.584-88.064-21.504-174.592-72.704-247.296l-192 0.512c-29.696-1.536-44.032 16.384-41.984 40.448v88.576c0 13.824-8.704 20.992-26.112 20.992s-26.112-7.168-26.112-20.992v-112.128c1.536-41.472 31.232-63.488 88.576-65.024l218.624 1.024c0 0 0 0 0 0 4.608 0 9.216 2.048 12.288 6.144 59.904 80.896 93.696 182.272 92.672 282.624 0.512-1.024 0.512-0.512 0.512 0.512zM253.44 218.624c-20.992-7.168-29.696-18.944-26.112-36.352 8.704-17.408 23.552-23.552 44.544-18.432 130.048 32.768 220.672 101.376 270.848 205.824h208.384c31.232-1.536 46.080 17.408 44.544 57.344v117.248c3.584 34.816-12.8 50.176-49.664 47.104h-140.8c22.528 34.816 37.376 60.928 44.544 78.336 18.944 41.472 3.584 62.464-47.104 62.464h-138.24c3.584 5.12 6.144 8.704 7.68 10.24 8.704 20.992 5.12 36.352-10.24 47.104-15.872 7.168-28.672 1.024-38.912-18.432-47.104-95.744-105.472-163.328-174.592-203.264-17.408-10.24-22.528-23.552-15.872-38.912 10.24-13.824 25.088-15.872 44.544-5.12 5.12 3.584 10.24 7.168 15.872 10.24 1.536 0 3.584 1.024 5.12 2.56v-117.248c-1.536-34.816 13.824-51.2 47.104-49.664h135.68c-40.448-73.216-116.224-123.392-227.328-151.040zM719.872 541.696c17.408 3.584 25.088-4.096 23.552-23.552v-75.776c0-17.408-7.68-25.088-23.552-23.552v0h-164.352c7.168 31.232 11.264 72.192 12.8 122.368h151.552zM433.152 676.864h143.36c7.168 0 11.264-1.024 12.8-2.56s1.024-5.12-2.56-10.24c-8.704-18.944-24.064-43.52-47.104-72.704h-179.712c24.576 22.528 49.152 51.2 73.216 85.504zM373.248 419.328c-17.408-1.536-26.112 6.144-26.112 23.552v77.824c1.536 13.824 10.24 20.992 26.112 20.992h140.8c-1.536-13.824-1.536-18.432 0-12.8-5.12-55.808-9.728-92.16-12.8-109.568h-128z" />
<glyph unicode="&#xe90c;" glyph-name="claer" d="M837.632 634.368h-209.408v162.816c0 39.424-30.208 69.632-69.632 69.632h-93.184c-39.424 0-69.632-30.208-69.632-69.632v-162.816h-209.408c-39.424 0-69.632-30.208-69.632-69.632v-93.184c0-30.208 18.432-55.808 46.592-65.024v-246.784c0-20.992-4.608-44.032-9.216-65.024l-2.56-4.608c-2.56-4.608-2.56-9.216-2.56-13.824 0-25.6 20.992-46.592 46.592-46.592h632.832c4.608 0 9.216 0 13.824 2.56 11.776 4.608 20.992 11.776 28.16 23.040 4.608 11.776 7.168 23.040 2.56 34.816l-2.56 4.608c-7.168 20.992-9.216 41.984-9.216 65.024v246.784c28.16 9.216 46.592 34.816 46.592 65.024v92.672c0 39.936-30.208 70.144-70.144 70.144zM698.368 75.776v162.816c0 13.824-9.216 23.040-23.040 23.040s-23.040-9.216-23.040-23.040v-162.816h-116.224v162.816c0 13.824-9.216 23.040-23.040 23.040s-23.040-9.216-23.040-23.040v-162.816h-117.76v162.816c0 13.824-9.216 23.040-23.040 23.040s-23.040-9.216-23.040-23.040v-162.816h-130.56l2.56 4.608c9.216 25.6 13.824 51.2 13.824 79.36v242.176h605.184v-242.176c0-28.16 4.608-53.76 13.824-79.36l2.56-4.608h-135.168zM861.184 471.040c0-13.824-9.216-23.040-23.040-23.040h-651.776c-13.824 0-23.040 9.216-23.040 23.040v93.184c0 13.824 9.216 23.040 23.040 23.040h256v209.92c0 13.824 9.216 23.040 23.040 23.040h93.184c13.824 0 23.040-9.216 23.040-23.040v-209.408h256c13.824 0 23.040-9.216 23.040-23.040l0.512-93.696z" />
<glyph unicode="&#xe90d;" glyph-name="calendar" d="M0 832.863v-830.706h1022.849v830.706h-1022.849zM958.993 59.11h-895.137v716.225h895.137v-716.225zM702.993 257.582h127.712v-127.712h-127.712v127.712zM702.993 449.151h127.712v-127.712h-127.712v127.712zM447.569 257.582h127.712v-127.712h-127.712v127.712zM447.569 449.151h127.712v-127.712h-127.712v127.712zM191.569 257.582h127.712v-127.712h-127.712v127.712zM191.569 449.151h127.712v-127.712h-127.712v127.712zM56.378 576.863h910.094v-63.856h-910.094v63.856zM702.993 896.719h63.856v-191.569h-63.856v191.569zM255.425 896.719h64.431v-191.569h-63.856z" />
<glyph unicode="&#xe90e;" glyph-name="shop" d="M145.92-12.288c-11.776 0-20.992 9.728-20.992 20.992v468.992l-12.8 2.048c-46.592 7.68-83.968 44.032-94.208 90.112-1.024 5.12-2.048 9.216-2.048 13.824 0 10.24 2.56 20.992 8.192 34.304l134.656 269.824c6.656 12.288 19.968 20.48 34.304 20.48h636.416c14.848 0 28.16-8.192 34.816-20.992l132.096-264.192c0-1.024 0.512-2.048 1.024-3.072 5.12-11.264 9.216-22.016 9.728-33.28v-1.024c0-3.584-0.512-6.656-1.024-9.216 0-1.024 0-1.536-0.512-2.56 0-0.512 0-0.512 0-1.024-9.216-47.104-47.104-84.48-94.72-92.16l-12.8-2.048v-468.48c0-11.776-9.728-20.992-20.992-20.992h-731.136zM215.552 514.56c-11.264-11.776-24.576-20.992-38.912-27.136l-9.216-4.096v-452.608h689.152v452.608l-9.216 4.096c-14.336 6.144-27.136 15.36-38.912 27.136l-11.264 11.776-11.264-11.776c-7.168-7.68-15.872-14.336-26.112-19.968l-7.68-4.608v-297.984c0-11.776-9.728-20.992-20.992-20.992h-438.784c-11.776 0-20.992 9.728-20.992 20.992v297.984l-7.68 4.096c-10.24 6.144-18.432 12.288-26.112 19.968l-11.264 11.776-10.752-11.264zM405.504 514.56c-20.48-21.504-47.616-33.792-77.312-35.328l-14.336-1.024v-264.704h396.288v264.192l-14.336 1.024c-29.696 1.536-57.344 14.336-77.312 35.84l-11.264 11.776-11.264-11.776c-22.528-23.552-52.224-36.352-83.968-36.352s-61.44 12.8-83.968 36.352l-11.264 11.776-11.264-11.776zM438.784 586.24c4.096-37.376 35.328-65.536 73.216-65.536s69.12 28.672 73.216 66.56c2.048 10.24 10.752 17.92 21.504 17.92 11.264 0 20.48-8.192 22.016-18.944v-1.024l2.56-12.288h0.512c9.216-30.208 37.376-51.712 70.144-51.712 33.28 0 61.44 22.016 70.656 52.224h1.536l1.536 13.312c2.048 10.24 10.752 17.92 21.504 17.92 11.264 0 20.48-8.192 22.016-18.944v0c4.608-36.864 36.352-64.512 73.216-64.512s68.608 27.648 73.216 64.512l0.512 4.608-137.728 275.968h-632.32l-138.24-276.48 0.512-4.608c4.608-36.864 35.84-65.024 73.216-65.024 33.28 0 61.952 22.528 70.656 53.248h0.512l2.048 12.8c1.536 10.752 10.752 18.432 21.504 18.432 11.264 0 20.48-8.192 22.016-18.944v0c4.608-37.376 35.84-65.536 73.216-65.536 33.792 0 61.952 22.528 70.656 53.248h1.024l2.048 13.312c1.536 10.24 10.752 17.92 21.504 17.92 11.264 0 20.48-7.68 22.016-18.432z" />
<glyph unicode="&#xe90f;" glyph-name="business" d="M856.387 411.891v-377.263h-689.853v377.263h-48.505v-398.821c0-15.091 11.857-26.947 26.947-26.947v0h732.968c15.091 0 26.947 11.857 26.947 26.947v398.821h-48.505zM68.985 862.989v21.558c0 15.091 11.857 26.947 26.947 26.947h831.596c15.091 0 26.947-11.857 26.947-26.947v-21.558h-885.491zM68.985 758.973v21.558c0 15.091 11.857 26.947 26.947 26.947h831.596c15.091 0 26.947-11.857 26.947-26.947v-21.558h-885.491zM68.985 863.528h48.505v-104.556h-48.505v104.556zM905.971 863.528h48.505v-104.556h-48.505v104.556zM4.312 564.952h48.505l64.674 194.021h-48.505zM1019.149 564.952h-48.505l-64.674 194.021h48.505zM4.312 564.952l-4.312-32.337 49.044-6.467 4.851 45.811zM970.644 564.952l3.773-31.259 48.505 3.773-3.773 27.486z" />
<glyph unicode="&#xe910;" glyph-name="goods" d="M796.201-62.357h-570.593c-66.806 0-94.734 48.188-100.21 73.378-2.738 16.428-68.997 387.149-82.687 489.001-4.928 37.236 2.19 66.806 20.809 88.163 17.523 20.261 45.998 31.213 78.853 31.213 5.476 0 11.499-0.548 16.975-1.095h704.205c5.476 0.548 11.499 1.095 16.975 1.095 32.856 0 60.783-10.952 78.853-31.213 18.618-21.356 25.737-50.926 20.809-88.163-13.69-101.852-79.949-472.573-82.687-487.906-6.024-26.284-33.951-74.473-101.305-74.473v0zM141.827 561.352c-9.309 0-26.284-1.643-35.046-11.499s-8.761-28.475-6.571-42.165c13.69-100.21 81.591-481.882 82.139-485.716 1.643-4.928 9.309-26.284 43.26-26.284h570.593c37.236 0 42.712 26.284 43.26 27.38 0.548 2.738 68.449 384.411 82.139 484.62 1.643 13.69 2.19 31.76-6.571 42.165s-25.737 11.499-35.046 11.499c-3.286 0-7.119 0-10.404-0.548-1.643 0-3.286-0.548-4.928-0.548h-707.491c-1.643 0-3.286 0-4.928 0.548-3.286 0.548-6.571 0.548-10.404 0.548v0zM223.966 405.835c0-16.428 6.571-31.76 18.071-43.26s26.832-17.523 43.26-18.071c16.428 0 31.76 6.571 43.26 18.071s17.523 26.832 18.071 43.26c0 16.428-6.571 31.76-18.071 43.26s-26.832 17.523-43.26 18.071c-16.428 0-31.76-6.571-43.26-18.071s-17.523-26.832-18.071-43.26zM675.73 405.835c0-16.428 6.571-31.76 18.071-43.26s26.832-17.523 43.26-18.071c16.428 0 31.76 6.571 43.26 18.071s17.523 26.832 18.071 43.26c0 16.428-6.571 31.76-18.071 43.26s-26.832 17.523-43.26 18.071c-16.428 0-31.76-6.571-43.26-18.071s-18.071-26.832-18.071-43.26v0zM771.559 659.371c-15.88 0-29.022 13.142-29.022 29.022v0c0 117.185-103.495 213.014-231.084 213.014s-231.632-95.281-231.632-213.014c0-15.88-13.142-29.022-29.022-29.022v0c-15.88 0-29.022 13.142-29.022 29.022v0c0 150.041 129.78 271.606 289.129 271.606s289.677-121.566 289.677-271.606c0.548-15.88-12.595-29.022-29.022-29.022v0 0z" />
<glyph unicode="&#xe911;" glyph-name="time" d="M512 896c-256 0-460.8-207.872-460.8-460.8s207.872-460.8 460.8-460.8 460.8 207.872 460.8 460.8-204.8 460.8-460.8 460.8zM512 18.944c-227.328 0-412.672 185.856-412.672 412.672s185.344 413.184 412.672 413.184 412.672-185.856 412.672-412.672-182.272-413.184-412.672-413.184zM809.472 415.744h-278.528v281.6c0 12.8-9.728 22.528-22.528 22.528s-22.016-9.728-22.016-22.528v-307.2c0-12.8 9.728-22.528 22.528-22.528h300.544c12.8 0 22.528 9.728 22.528 22.528 0 16.384-9.728 25.6-22.528 25.6z" />
<glyph unicode="&#xe912;" glyph-name="home" horiz-adv-x="1002" d="M213.248-64c-37.018 0-80.282 22.221-80.282 85.043v353.28h-73.267c-13.312 0-28.416 8.909-40.294 23.654-12.064 15.183-19.355 34.631-19.355 55.782 0 0.189 0.001 0.378 0.002 0.567v-0.029c0 0.011 0 0.024 0 0.036 0 6.213 2.459 11.852 6.458 15.996l-0.007-0.007 465.306 481.587c5.594 5.059 13.046 8.154 21.222 8.154 0.712 0 1.418-0.023 2.118-0.070l-0.095 0.005c0.764 0.060 1.653 0.095 2.551 0.095 8.712 0 16.667-3.238 22.729-8.575l-0.038 0.033 475.238-483.686c4.021-4.113 6.502-9.746 6.502-15.959 0-0.005 0-0.011 0-0.016v0.001c0-21.35-3.584-37.837-11.059-50.176-9.163-15.435-25.745-25.618-44.705-25.618-0.484 0-0.966 0.007-1.446 0.020l0.071-0.002h-71.322l-1.126-358.4-0.563-2.56c-3.993-14.526-9.953-27.24-17.696-38.646l0.288 0.45c-17.92-26.982-43.008-40.96-72.704-40.96h-174.387v22.938c0 90.061 0.307 325.939 0 336.282 0 5.12-5.427 19.046-11.469 19.046h-188.928c-4.147 0-12.595-7.885-12.595-18.33v-359.936h-175.514c-1.28 0-3.174 0-5.581 0zM62.157 419.942h116.89v-398.95c0-9.728 0-39.168 34.406-39.168h135.066v314.368c0 34.15 27.392 64.256 58.522 64.256h189.133c19.18-0.247 35.882-10.626 45.024-26.021l0.135-0.245c6.828-10.587 11.2-23.344 12.022-37.058l0.010-0.216c0.307-11.315 0-240.026 0-314.778h128.358c29.696 0 41.882 32.973 44.749 42.138l1.075 398.131h116.89c5.12 0 6.042 1.434 7.014 3.021 2.572 5.091 4.113 11.085 4.198 17.431v0.028c-53.658 54.528-401.408 408.576-459.571 467.917l-449.28-465.203c1.542-10.568 7.195-19.584 15.254-25.526l0.106-0.074z" />
<glyph unicode="&#xe913;" glyph-name="data" d="M162.812 421.436c-11.997 0-21.423-9.426-21.423-21.423v-369.754h38.561v352.616h214.226v-352.616h38.561v544.562h214.226v-544.562h38.561v739.508h214.226v-739.508h38.561v756.646c0 11.997-9.426 21.423-21.423 21.423h-248.502c-11.997 0-21.423-9.426-21.423-21.423v-173.523h-233.506c-10.711 0-19.28-8.569-19.28-19.28v0-172.666h-231.364zM0 30.259h1004.72c10.711 0 19.28-8.569 19.28-19.28v0 0c0-10.711-8.569-19.28-19.28-19.28h-1004.72v38.561zM0 30.259v854.762c0 10.711 8.569 19.28 19.28 19.28v0c10.711 0 19.28-8.569 19.28-19.28v-854.762h-38.561z" />
<glyph unicode="&#xe914;" glyph-name="search" d="M966.656 35.328l-230.4 227.328c60.928 67.072 96.256 156.672 96.256 256 0 217.6-176.128 390.656-390.656 390.656-217.6-0.512-390.656-176.64-390.656-390.656 0-217.6 176.128-390.656 390.656-390.656 99.328 0 188.928 35.328 256 96.256l230.4-227.328c9.728-9.728 28.672-9.728 38.4 0 12.8 12.8 12.8 28.672 0 38.4zM678.912 274.944c-60.928-57.344-143.872-92.672-233.472-92.672-189.44-3.072-343.040 150.528-343.040 335.872 0 185.856 150.528 339.456 339.456 339.456s339.456-150.528 339.456-339.456c0-89.6-35.328-173.056-92.672-233.472l-9.728-9.728z" />
<glyph unicode="&#xe915;" glyph-name="pic" d="M128 106.496h768v682.496h-768v-682.496zM128 832h768c23.552 0 42.496-18.944 42.496-42.496v-682.496c0-23.552-18.944-42.496-42.496-42.496h-768c-23.552 0-42.496 18.944-42.496 42.496 0 0 0 0 0 0v682.496c0 23.552 18.944 42.496 42.496 42.496zM328.192 305.152c23.040 19.456 68.608 36.352 98.816 36.352h20.992c40.448 0 95.744 20.48 126.464 46.592l52.224 45.056c23.040 19.456 68.608 36.352 98.816 36.352h84.992c11.776 0 21.504 9.728 21.504 21.504s-9.728 21.504-21.504 21.504h-84.992c-40.448 0-95.744-20.48-126.464-46.592l-52.224-45.056c-23.040-19.456-68.608-36.352-98.816-36.352h-20.992c-40.448 0-95.744-20.48-126.464-46.592l-100.864-87.040c-9.216-7.68-10.24-20.992-2.56-30.208s20.992-10.24 30.208-2.56c0 0 0 0 0.512 0.512l100.352 86.528zM298.496 586.752c0-29.696 24.064-53.248 53.248-53.248s53.248 24.064 53.248 53.248c0 0 0 0 0 0 0 29.696-24.064 53.248-53.248 53.248s-53.248-24.064-53.248-53.248c0 0 0 0 0 0z" />
<glyph unicode="&#xe916;" glyph-name="finish" d="M486.4 329.728c-19.456-19.456-48.128-19.456-67.072-3.072l-137.728 131.072-32.256-35.328 137.728-131.072c38.4-35.328 96.256-35.328 134.144 3.072l281.6 297.472-35.328 32.256-281.088-294.4zM512 908.8c-252.928 0-460.8-204.8-460.8-460.8s204.8-460.8 460.8-460.8 460.8 204.8 460.8 460.8-207.872 460.8-460.8 460.8zM512 35.328c-227.328 0-412.672 185.856-412.672 412.672s185.344 412.672 412.672 412.672 412.672-185.856 412.672-412.672-185.344-412.672-412.672-412.672z" />
<glyph unicode="&#xe917;" glyph-name="article" d="M778.113 864.99h-527.114c-72.675 0-131.777-58.102-131.777-129.495v-597.604c0-71.39 59.102-129.495 131.777-129.495h527.114c72.65 0 131.78 58.105 131.78 129.495v597.605c0 71.392-59.13 129.494-131.78 129.494zM849.053 137.892c0-38.45-31.815-69.72-70.94-69.72h-527.114c-39.12 0-70.97 31.27-70.97 69.72v597.604c0 38.445 31.85 69.717 70.97 69.717h527.114c39.125 0 70.94-31.272 70.94-69.717v-597.604zM299.579 603.491h227.234c16.795 0 30.405 13.385 30.405 29.857 0 16.535-13.61 29.887-30.405 29.887h-227.234c-16.792 0-30.402-13.352-30.402-29.887 0-16.472 13.612-29.857 30.402-29.857zM729.533 466.566h-429.954c-16.792 0-30.402-13.385-30.402-29.89s13.61-29.885 30.402-29.885h429.954c16.795 0 30.44 13.38 30.44 29.885s-13.645 29.89-30.44 29.89zM729.533 269.897h-429.954c-16.792 0-30.402-13.39-30.402-29.89 0-16.505 13.61-29.89 30.402-29.89h429.954c16.795 0 30.44 13.385 30.44 29.89 0 16.5-13.645 29.89-30.44 29.89z" />
<glyph unicode="&#xe918;" glyph-name="help" d="M512.798 831.909c-213.59 0-386.688-173.098-386.688-386.688s173.098-386.688 386.688-386.688c213.59 0 386.688 173.098 386.688 386.688s-173.098 386.688-386.688 386.688zM342.874 542.886c0 0-12.702 172.698 169.526 172.698s171.112-171.112 171.112-171.112 1.586-53.994-59.952-101.24c-61.538-47.636-74.24-44.064-74.24-115.532h-84.956c0 0-25.804 104.016 94.886 164.367 25.404 12.702 34.934 26.996 34.934 74.24s-29.776 76.226-74.24 76.226-90.122-7.944-90.122-98.058l-86.942-1.586zM463.164 261.012h85.356v-85.356h-85.356c0 0 0 85.356 0 85.356z" />
<glyph unicode="&#xe919;" glyph-name="feedback" d="M425.663 322.51c18.071 0 32.125-14.557 32.125-32.125v-9.035c0-18.071-14.557-32.125-32.125-32.125-18.071 0-32.125 14.557-32.125 32.125v9.035c0 17.569 14.557 32.125 32.125 32.125zM276.58 579.012c2.008-13.553 14.055-22.588 27.106-22.086 13.553-1.004 25.098 8.533 26.604 22.086-2.51 70.776 31.122 112.439 99.388 103.906 52.204-6.525 72.282-27.608 72.784-79.31 0-20.078-22.588-47.184-53.208-79.31-40.157-41.161-61.239-77.302-61.239-109.929v-33.129c2.51-12.047 13.553-20.58 25.6-20.078 12.549-0.502 23.592 8.031 25.6 20.078v23.592c0 27.106 19.576 59.733 58.227 97.38 41.161 37.145 61.239 71.78 61.239 102.4-3.012 85.333-47.686 130.008-134.024 133.020-98.886 1.506-148.078-51.2-148.078-158.62v0zM752.439 932.894h-662.086c-29.616-0.502-53.71-24.596-54.212-54.212v-769.506c0.502-29.616 24.596-53.71 54.212-54.212h446.243l268.549 397.553v402.071h1.004v24.596c-0.502 29.114-24.596 52.706-53.71 53.71zM758.463 466.573l-246.965-364.925h-422.651c-3.012 0.502-5.522 3.012-5.522 5.522v773.020c0.502 3.012 3.012 5.522 5.522 5.522h665.098c2.008 0 4.016-1.506 4.518-3.012v-416.125zM624.941 126.243c-1.004-1.506-1.506-3.514-2.008-5.522l-1.506-123.482v-21.082c0-7.027 7.027-12.047 13.553-9.537l19.576 7.529 114.949 46.682c2.008 0.502 3.514 2.008 4.518 3.514l216.345 316.235c3.012 4.518 2.008 11.043-2.51 14.055l-132.518 89.851c-4.518 3.012-10.541 2.008-14.055-2.51l-216.345-315.733zM736.878 49.443l-63.247-25.6c-7.027-2.51-15.059 2.008-14.557 10.039l1.004 63.749c0 2.008 0.502 4.016 1.506 6.024l189.741 277.082c3.012 5.020 10.039 6.024 15.059 2.51l59.231-40.157c5.020-3.012 6.024-10.039 2.51-15.059l-191.247-278.588zM744.91 45.427l-89.851 61.741 27.106 39.655 89.851-61.741-27.106-39.655z" />
<glyph unicode="&#xe91a;" glyph-name="set" d="M659.394-30.384c-19.653 0-38.788 6.723-45.511 19.653-12.929 19.653-64.646 64.646-103.434 64.646s-90.505-45.511-103.434-58.44c-12.412-11.895-28.444-18.618-45.511-19.653-6.723 0-19.653 0-25.859 6.723l-123.087 71.37c-19.653 12.929-32.582 45.511-19.653 71.37 7.758 16.032 11.895 33.616 12.929 51.717 0 71.37-57.923 129.293-129.293 129.293h-19.653c-19.653 0-38.788 19.653-45.511 45.511 0 0-12.929 58.44-12.929 97.228 1.034 32.582 5.172 65.164 12.929 97.228 6.723 32.582 25.859 51.717 45.511 51.717h6.723c71.37 0 129.293 57.923 129.293 129.293-0.517 17.584-2.586 34.651-6.723 51.717-12.929 25.859 0 58.44 19.653 71.37l130.327 69.301c6.723 0 12.929 6.723 25.859 6.723 19.653 0 38.788-6.723 45.511-19.653 12.929-19.135 64.646-57.923 102.917-57.923s90.505 38.788 103.434 58.44c12.412 11.895 28.444 18.618 45.511 19.653 6.206 0 19.135 0 25.859-6.723l129.293-71.37c19.653-12.929 32.582-45.511 19.653-71.37-7.758-16.032-11.895-33.616-12.929-51.717 0-71.37 57.923-129.293 129.293-129.293h12.929c19.653 0 38.788-19.653 45.511-45.511 0 0 12.929-58.44 12.929-97.228-1.034-32.582-5.172-65.164-12.929-97.228-6.723-25.859-25.859-45.511-45.511-45.511h-6.723c-71.37 0-129.293-57.923-129.293-129.293 1.034-18.101 5.172-35.685 12.929-51.717 12.929-25.859 0-58.44-19.653-71.37l-129.293-71.37c-12.412-17.584-19.135-17.584-32.065-17.584zM659.394 27.539l122.57 64.646c0 6.723-12.929 38.788-12.929 71.37-1.034 102.4 78.61 188.251 181.010 193.939 0 6.723 6.723 51.717 6.723 84.299s-6.723 77.576-6.723 84.299c-102.4 5.689-182.044 91.539-181.010 193.939 0 32.582 12.929 64.646 12.929 71.37l-116.364 64.646h-6.723c-14.481-13.964-29.479-26.893-45.511-38.788-32.582-12.929-71.37-25.859-103.434-25.859s-64.646 12.929-103.434 38.788c-19.653 12.929-38.788 32.582-38.788 38.788h-5.689l-123.087-65.681c0-6.723 12.929-38.788 12.929-71.37 1.552-101.883-78.093-187.733-181.010-193.422 0-6.723-6.723-51.717-6.723-84.299s6.723-77.576 6.723-84.299c102.4-5.689 182.044-91.539 181.010-193.939 0-32.582-12.929-64.646-12.929-71.37l116.364-64.646h6.723c14.481 13.964 29.479 26.893 45.511 38.788 38.788 25.859 71.37 38.788 103.434 38.788s71.37-12.929 103.434-38.788c25.341-25.341 38.271-44.477 44.994-51.2zM510.448 273.196c-96.194-0.517-174.287 77.059-174.287 173.253 0 0.517 0 1.034 0 1.552-0.517 96.194 77.059 174.287 173.253 174.287 0.517 0 1.034 0 1.552 0 96.194 0.517 174.287-77.059 174.804-173.253 0-0.517 0-1.034 0-1.552 0.517-96.194-77.059-174.287-173.253-174.804-1.034 0.517-1.552 0.517-2.069 0.517zM510.448 564.364c-64.129 0-116.364-51.2-116.364-115.329 0-0.517 0-0.517 0-1.034 0-64.129 51.2-116.364 115.329-116.364 0.517 0 0.517 0 1.034 0 64.129 0 116.364 51.2 116.364 115.329 0 0.517 0 0.517 0 1.034-6.206 64.646-57.923 116.364-116.364 116.364z" />
<glyph unicode="&#xe91b;" glyph-name="drop-down" d="M990.621 734.833c-16.407 16.407-39.036 22.064-61.101 22.064l-831.646-5.657c-22.064 0-44.128-5.657-61.101-22.064-33.379-33.379-33.379-83.165 0-116.544l415.823-415.823c5.657-5.657 16.407-11.315 22.064-16.407l5.657-5.657c27.722-11.315 66.758-5.657 88.822 16.407l415.823 421.481c39.036 39.036 33.379 88.822 5.657 122.201z" />
<glyph unicode="&#xe91c;" glyph-name="up-arrow" d="M966.656 291.328l-435.2 432.128c-9.728 9.728-25.6 9.728-35.328 0l-441.856-432.128c-9.728-9.728-9.728-25.6 0-35.328s25.6-9.728 35.328 0l425.472 416.256 416.256-416.256c9.728-9.728 25.6-9.728 35.328 0 9.216 9.728 9.216 25.6 0 35.328z" />
<glyph unicode="&#xe91d;" glyph-name="down-arrow" d="M966.656 636.928c-9.728 9.728-25.6 9.728-35.328 0l-416.256-416.256-425.472 416.256c-9.728 9.728-25.6 9.728-35.328 0s-9.728-25.6 0-35.328l441.856-432.128c9.728-9.728 25.6-9.728 35.328 0l435.2 432.128c9.216 12.8 9.216 25.6 0 35.328z" />
<glyph unicode="&#xe91e;" glyph-name="right-arrow" d="M761.856 470.528l-432.128 435.2c-9.728 9.728-25.6 9.728-35.328 0s-9.728-25.6 0-35.328l416.256-415.744-416.256-425.472c-9.728-9.728-9.728-25.6 0-35.328s25.6-9.728 35.328 0l432.128 441.856c9.216 9.216 9.216 25.088 0 34.816z" />
<glyph unicode="&#xe91f;" glyph-name="left-arrow" d="M729.6 28.672l-416.256 425.472 416.256 416.256c9.728 9.728 9.728 25.6 0 35.328s-25.6 9.728-35.328 0l-432.128-435.2c-9.728-9.728-9.728-25.6 0-35.328l432.128-441.856c9.728-9.728 25.6-9.728 35.328 0s9.728 25.6 0 35.328z" />
<glyph unicode="&#xe920;" glyph-name="message" d="M585.728 54.272v0c25.6 32.256 38.4 45.056 41.472 45.056 207.872 38.4 345.6 198.656 345.6 396.8 3.072 227.328-204.8 406.528-460.8 406.528s-463.872-179.712-463.872-406.528c0-198.656 140.8-358.4 345.6-396.8 3.072 0 15.872-12.8 41.472-45.056v0c32.256-41.472 51.2-64 73.728-64s41.472 22.528 76.8 64M621.056 156.672c-19.456-3.072-32.256-19.456-67.072-64v0c-22.528-25.6-41.472-45.056-41.472-45.056l-9.728 9.728c-6.656 6.656-15.872 19.456-25.6 32.256-38.4 48.128-51.2 64-70.656 67.072-185.856 32.256-307.2 172.544-307.2 345.6 0 192 185.856 352.256 416.256 352.256s415.744-159.744 415.744-352.256c-3.072-175.616-124.928-313.344-310.272-345.6zM281.6 489.472c0-26.624 19.968-48.128 45.056-48.128s44.544 21.504 44.544 48.128-19.968 48.128-44.544 48.128-45.056-21.504-45.056-48.128zM467.456 489.472c0-26.624 19.968-48.128 45.056-48.128 24.576 0 45.056 21.504 45.056 48.128s-19.968 48.128-45.056 48.128-45.056-21.504-45.056-48.128zM652.8 489.472c0-26.624 19.968-48.128 45.056-48.128 24.576 0 45.056 21.504 45.056 48.128s-19.968 48.128-45.056 48.128c-25.088 0-45.056-21.504-45.056-48.128v0z" />
<glyph unicode="&#xe921;" glyph-name="edit" d="M873.472 684.544c-15.872 0-25.6-12.8-25.6-25.6v-550.4c0-28.672-22.528-51.2-51.2-51.2h-643.072c-28.672 0-51.2 22.528-51.2 51.2v646.656c0 28.672 22.528 51.2 51.2 51.2h521.728c15.872 0 25.6 12.8 25.6 25.6s-12.8 25.6-25.6 25.6h-521.728c-57.856 0-105.472-48.128-105.472-102.4v-646.656c0-57.856 48.128-102.4 105.472-102.4h643.072c57.856 0 105.472 45.056 105.472 102.4v550.4c-3.072 16.384-12.288 25.6-28.672 25.6zM483.328 598.528h-278.528c-15.872 0-25.6-12.8-25.6-25.6s12.8-25.6 25.6-25.6h278.528c15.872 0 25.6 12.8 25.6 25.6 0 15.872-12.8 25.6-25.6 25.6zM179.2 393.728c0-12.8 12.8-25.6 25.6-25.6h460.8c15.872 0 25.6 12.8 25.6 25.6s-12.8 25.6-25.6 25.6h-460.8c-12.8 0-25.6-12.8-25.6-25.6zM969.728 902.144c-9.728 9.728-25.6 9.728-38.4 0l-326.656-323.072c-9.728-9.728-9.728-25.6 0-35.328s25.6-9.728 38.4 0l326.656 323.072c9.728 9.728 9.728 26.112 0 35.328z" />
<glyph unicode="&#xe922;" glyph-name="application" d="M961 788.4c0 58.3-47.3 105.6-105.6 105.6h-191.8c-58.3 0-105.6-47.3-105.6-105.6v-191.8c0-58.3 47.3-105.6 105.6-105.6h191.8c58.3 0 105.6 47.3 105.6 105.6v191.8zM897 590.5c0-19.4-32-35.5-51.5-35.5h-187.5c-19.4 0-35 16-35 35.5v203.6c0 19.4 15.6 34.9 35 34.9h203.6c19.4 0 35.3-15.5 35.3-34.9v-203.6zM961 304.4c0 58.3-47.3 105.6-105.6 105.6h-191.8c-58.3 0-105.6-47.3-105.6-105.6v-191.8c0-58.3 47.3-105.6 105.6-105.6h191.8c58.3 0 105.6 47.3 105.6 105.6v191.8zM897 107.2c0-19.4-15.8-35.2-35.2-35.2h-203.6c-19.4 0-35.2 15.8-35.2 35.2v203.6c0 19.4 15.8 35.2 35.2 35.2h203.6c19.4 0 35.2-15.8 35.2-35.2v-203.6zM462 304.4c0 58.3-47.3 105.6-105.6 105.6h-191.8c-58.3 0-105.6-47.3-105.6-105.6v-191.8c0-58.3 47.3-105.6 105.6-105.6h191.8c58.3 0 105.6 47.3 105.6 105.6v191.8zM397 107.2c0-19.4-15.8-35.2-35.2-35.2h-203.6c-19.4 0-35.2 15.8-35.2 35.2v203.6c0 19.4 15.8 35.2 35.2 35.2h203.6c19.4 0 35.2-15.8 35.2-35.2v-203.6zM462 788.4c0 58.3-47.3 105.6-105.6 105.6h-191.8c-58.3 0-105.6-47.3-105.6-105.6v-191.8c0-58.3 47.3-105.6 105.6-105.6h191.8c58.3 0 105.6 47.3 105.6 105.6v191.8zM397 590.2c0-19.4-15.8-35.2-35.2-35.2h-203.6c-19.4 0-35.2 15.8-35.2 35.2v203.6c0 19.4 15.8 35.2 35.2 35.2h203.6c19.4 0 35.2-15.8 35.2-35.2v-203.6z" />
<glyph unicode="&#xe923;" glyph-name="mail" d="M975.101 770.157h-969.348v-646.616h1010.769v646.616h-41.42zM934.831 729.888l-390.616-390.616c-18.409-17.834-47.748-17.834-66.733 0l-390.040 390.616h847.389zM46.022 713.78l262.328-262.903-262.328-262.328v525.231zM78.813 163.811l258.876 258.876 111.604-112.18c16.108-16.683 38.544-25.888 62.13-25.888 23.011 0 45.447 9.204 62.13 25.888l111.029 112.18 258.876-258.876h-864.647zM976.252 188.548l-262.903 262.328 262.328 262.328 0.575-524.656z" />
<glyph unicode="&#xe924;" glyph-name="correct" d="M969.728 752.128c-9.728 9.728-25.6 9.728-35.328 0l-508.928-537.6c-19.456-19.456-48.128-19.456-70.144-3.072l-265.728 252.416c-9.728 9.728-25.6 9.728-35.328 0s-9.728-25.6 0-35.328l265.728-252.928c38.4-38.4 102.4-35.328 137.728 3.072l508.928 537.6c12.8 10.24 12.8 26.112 3.072 35.84z" />
<glyph unicode="&#xe925;" glyph-name="account" d="M881.664 91.136c-4.096 0-8.192 0-11.776 0.512l-130.56 12.8c-10.24 1.024-18.944 9.216-20.48 19.456-16.384 107.008-96.256 194.56-203.776 222.72-9.216 2.56-15.872 10.24-16.896 19.456s3.072 18.432 11.264 23.040c26.624 15.36 50.176 36.864 69.632 63.488 4.096 6.144 11.264 9.216 18.432 9.216 8.192 0 16.384-0.512 24.576-1.024 0 0 0.512 0 1.024 0l163.328-15.872c141.312-14.336 245.248-137.728 231.424-274.944-1.024-10.752-6.144-27.136-25.088-42.496-27.648-23.040-76.288-36.352-111.104-36.352zM761.344 148.48l113.152-11.264c0 0 0 0 0 0 23.552-2.56 68.096 8.192 89.088 25.088 5.12 4.096 8.192 8.192 8.192 11.264 11.264 112.64-74.24 212.992-190.464 224.768l-162.816 15.872c-3.584 0-6.656 0.512-10.24 0.512-11.776-14.336-24.064-27.648-37.888-38.912 98.304-40.448 169.472-124.928 190.976-227.328zM694.272 473.088c-29.696 0-59.392 6.144-86.016 17.408-9.728 4.096-15.872 14.848-13.824 25.6 3.072 16.896 4.608 31.744 4.608 46.080 0 68.096-32.768 134.656-88.064 177.664-8.704 6.656-11.264 18.944-6.144 28.672 36.352 71.168 108.544 115.2 188.416 115.2 0.512 0 0.512 0 1.024 0 115.712 0 209.92-91.648 210.432-204.8 0.512-53.76-20.992-104.96-59.392-143.872-39.936-39.936-93.696-61.952-151.040-61.952zM643.072 526.848c16.384-5.12 33.792-7.68 51.2-7.68 45.056 0 87.040 17.408 118.272 48.64 29.696 29.696 46.080 69.12 46.080 111.104-0.512 87.552-74.24 158.72-164.352 158.72-56.832 0-108.544-28.16-139.264-74.752 57.344-51.712 90.112-123.904 90.624-201.216 0-11.264-1.024-22.528-2.56-34.816zM345.088 345.088c-116.224 0-210.944 92.16-210.944 205.312s94.72 205.312 210.944 205.312 210.944-92.16 210.944-205.312-94.72-205.312-210.944-205.312zM345.088 709.632c-91.136 0-164.864-71.68-164.864-159.232s73.728-159.232 164.864-159.232 164.864 71.68 164.864 159.232-73.728 159.232-164.864 159.232zM544.256-8.192h-398.336c-40.96 0-140.288 32.256-140.288 91.648 0 138.24 115.712 250.88 257.536 250.88h163.84c141.824 0 257.536-112.64 257.536-250.88 0-59.392-99.328-91.648-140.288-91.648zM263.168 288.256c-116.736 0-211.456-91.648-211.456-204.8 0-15.872 56.32-45.568 94.208-45.568h398.336c37.888 0 94.208 29.696 94.208 45.568 0 113.152-94.72 204.8-211.456 204.8h-163.84z" />
<glyph unicode="&#xe926;" glyph-name="order-success" d="M647.68 721.92c0-12.288-6.656-22.528-14.848-22.528h-429.568c-8.192 0-14.848 10.24-14.848 22.528v0c0 12.288 6.656 22.528 14.848 22.528h429.056c8.704 0 15.36-10.24 15.36-22.528v0zM647.68 574.464c0-12.288-6.656-22.528-14.848-22.528h-429.568c-8.192 0-14.848 10.24-14.848 22.528v0c0 12.288 6.656 22.528 14.848 22.528h429.056c8.704 0 15.36-10.24 15.36-22.528v0zM401.408 419.84c0-12.288-3.072-22.528-6.656-22.528h-199.168c-3.584 0-6.656 10.24-6.656 22.528v0c0 12.288 3.072 22.528 6.656 22.528h199.168c3.584 0 6.656-10.24 6.656-22.528v0zM340.48 275.456c0-12.288-2.048-22.528-5.12-22.528h-141.824c-2.56 0-5.12 10.24-5.12 22.528v0c0 12.288 2.048 22.528 5.12 22.528h141.824c3.072-0.512 5.12-10.24 5.12-22.528v0zM957.44 267.264c0-148.992-120.832-269.312-269.312-269.312-148.992 0-269.312 120.832-269.312 269.312 0 148.992 120.832 269.312 269.312 269.312 114.176 0 269.312-99.328 269.312-269.312zM687.104 496.128c-126.464 0-228.864-102.4-228.864-228.864s102.4-228.864 228.864-228.864c126.464 0 228.864 102.4 228.864 228.864s-102.912 228.864-228.864 228.864zM151.552 899.072c0 0-89.088 5.632-86.528-95.744 0-58.368 0-700.928 0-700.928s-11.264-61.44 87.040-64c98.304-2.048 307.712-1.024 307.712-1.024s-13.312 25.6-9.728 49.152c-30.72 0-285.696 3.072-285.696 3.072s-50.176-15.36-50.176 96.256c0 112.128 3.072 589.824 3.072 589.824s-5.632 64.512 78.848 66.56c80.384 2.048 80.896 2.048 587.776 3.072 0 0 39.424 5.632 39.424-54.784s-1.536-270.336-1.536-270.336 36.864-1.024 47.104-12.8c0 33.28 0 286.208 0 286.208s1.024 101.888-60.416 104.96c-61.952 4.096-656.896 0.512-656.896 0.512zM559.616 279.552l82.432-90.112 173.056 173.568c0 0 22.528 4.608 25.088-25.6-13.312-13.824-196.608-196.096-196.608-196.096l-107.008 111.104c0 0-3.584 25.6 23.040 27.136z" />
<glyph unicode="&#xe927;" glyph-name="shop1" d="M205.312 344.576c-33.792 0-64 6.656-89.088 20.48-61.952 32.768-100.352 97.28-100.352 167.424 0 19.968 3.072 39.936 9.216 59.392v1.024c0 1.024 0.512 2.048 1.024 3.072v0.512l92.16 217.6v0.512c12.8 37.888 48.128 61.44 92.672 61.44h602.112c45.568 0 83.456-25.088 96.256-63.488l86.016-214.016c0.512-1.024 1.024-2.048 1.024-3.072 0-0.512 0-0.512 0-1.024v-1.024l0.512-1.536c6.144-18.944 9.216-38.912 9.216-57.856 0-69.632-37.888-133.12-98.816-166.4-25.6-13.824-56.32-20.992-90.624-21.504-56.32 0-109.056 24.576-144.896 67.072l-9.216 10.752-9.216-10.752c-35.328-42.496-87.552-67.072-142.848-67.584-55.808 0.512-108.032 25.088-143.872 67.072l-9.216 10.752-8.704-10.752c-34.304-43.52-87.040-68.096-143.36-68.096v0zM74.24 580.096v-1.024c0-0.512 0-1.024-0.512-1.536-5.12-15.36-7.68-30.72-7.68-46.080 0-51.712 28.16-99.328 74.24-123.392 18.432-9.728 40.448-14.336 65.536-14.336 48.64 0 92.672 25.088 118.272 66.048l0.512 0.512 0.512 1.024c1.536 3.584 4.096 8.192 8.192 13.312 5.12 6.144 14.848 9.728 25.6 9.728 11.264 0 21.504-4.096 27.648-10.752 3.584-4.096 5.632-8.704 7.168-11.264l1.024-1.024c25.6-41.472 69.632-66.56 118.272-66.56 48.128 0 91.648 25.088 117.248 66.56l1.024 1.024c2.048 4.096 4.096 8.192 7.68 12.288 5.632 7.168 15.872 11.264 26.624 11.264s19.968-3.584 26.112-10.752c3.584-4.096 6.144-8.192 7.68-11.776l1.024-1.536 0.512-0.512c25.6-41.472 70.144-66.56 118.784-66.56 26.112 0 48.64 5.12 67.072 15.36 44.544 24.576 72.704 71.68 73.216 122.88 0 15.36-2.56 30.72-7.68 45.568-0.512 1.024-0.512 2.048-1.024 3.072v1.024l-84.992 212.48c-9.728 28.672-38.4 30.72-49.152 31.232h-605.184c-16.896 0-38.4-5.12-46.592-29.696l-91.136-216.576zM167.424-20.992c-45.056 0-81.92 36.864-81.92 81.92v196.096c0 13.824 11.264 25.088 25.088 25.088s25.088-11.264 25.088-25.088v-196.096c0-17.92 14.336-32.256 32.256-32.256l688.128 0.512c17.92 0 32.256 14.336 32.256 32.256v199.68c0 13.824 11.264 25.088 25.088 25.088s25.088-11.264 25.088-25.088v-199.68c0-45.056-36.864-81.92-81.92-81.92l-689.152-0.512zM804.352 608.768h-585.216c-20.48 0-36.352 4.608-36.352 25.088s16.384 25.088 36.352 25.088h584.704c20.48 0 36.352-4.608 36.352-25.088 0.512-20.48-15.872-25.088-35.84-25.088z" />
<glyph unicode="&#xe928;" glyph-name="achieve" horiz-adv-x="1025" d="M641.536 960c-17.92 0-32.256-14.336-32.256-32.256s14.336-32.256 32.256-32.256h272.896l-360.448-358.4-190.976 197.12c-6.144 6.144-14.336 9.728-22.528 9.728s-16.896-3.072-23.040-9.216l-307.712-308.224c-12.288-12.288-12.288-32.768 0-45.056 6.144-6.144 14.336-9.216 22.528-9.216s16.384 3.072 22.528 9.216l284.672 284.672 191.488-196.096c6.144-6.144 14.336-9.728 22.528-9.728 8.704 0 16.896 3.072 23.040 9.216l384 381.44v-273.92c0-17.92 14.336-32.256 32.256-32.256s32.256 14.336 32.256 32.256v382.976h-383.488zM64 315.904h64v-379.904h-64v379.904zM192 455.168h64v-519.168h-64v519.168zM320 515.072h64v-579.072h-64v579.072zM448 382.976h64v-446.976h-64v446.976zM576 347.136h64v-411.136h-64v411.136zM704 499.2h64v-563.2h-64v563.2zM832 638.976h64v-702.976h-64v702.976z" />
<glyph unicode="&#xe929;" glyph-name="add-user" d="M957.44 223.744h-128v128c0 15.872-12.8 32.256-32.256 32.256s-32.256-12.8-32.256-32.256v-128h-128c-15.872 0-32.256-12.8-32.256-32.256s12.8-32.256 32.256-32.256h128v-128c0-15.872 12.8-32.256 32.256-32.256s32.256 12.8 32.256 32.256v128h128c15.872 0 32.256 12.8 32.256 32.256s-12.8 32.256-32.256 32.256zM797.696 640c0 140.8-115.2 256-256 256s-256-115.2-256-256c0-89.6 45.056-169.472 115.2-214.528-179.2-57.344-307.2-227.328-307.2-425.472h64c0 211.456 173.056 384 384 384 140.8 0 256 115.2 256 256zM541.696 448c-105.472 0-192 86.528-192 192s86.016 192 192 192 192-86.528 192-192-86.528-192-192-192z" />
<glyph unicode="&#xe92a;" glyph-name="plus" d="M125.331 475.234h773.392v-54.468h-773.392v54.468zM484.766 61.277v773.392h54.468v-773.392h-54.468z" />
<glyph unicode="&#xe92b;" glyph-name="reduce" d="M125.331 475.234h773.392v-54.468h-773.392v54.468z" />
<glyph unicode="&#xe92c;" glyph-name="full-cut" d="M1013.248 558.592h-0.512v124.416c0 17.408-14.336 31.744-31.744 31.744h-125.952v205.824c0 22.016-22.016 37.376-43.008 29.696l-608.256-239.104c-4.608-2.048-9.728-2.56-14.848-2.56v0-312.32c-102.912-20.992-180.736-112.128-180.736-221.184 0-124.416 101.376-225.792 225.792-225.792 6.144 0 12.288 0 18.432 0.512v0h728.064c17.408 0 31.744 14.336 31.744 31.744v204.8h0.512l0.512 372.224zM955.392 243.2h-226.304c-17.408 0-31.744 14.336-31.744 31.744v195.072c0 17.408 14.336 31.744 31.744 31.744h226.304v-258.56zM797.696 890.368v-181.76h-448.512l448.512 181.76zM60.416 153.088c-13.824 110.080 85.504 209.92 196.096 196.096 75.264-9.728 142.336-76.288 152.064-152.064 13.824-110.080-85.504-209.92-196.096-196.096-75.776 9.728-142.848 76.8-152.064 152.064zM955.392 6.656h-583.68c46.592 41.472 88.064 101.376 88.064 168.448 0 120.32-94.72 219.136-214.016 225.28v213.504c0 17.408 14.336 31.744 31.744 31.744h646.656c17.408 0 31.744-14.336 31.744-31.744v-68.096h-270.336c-17.408 0-31.744-14.336-31.744-31.744v-283.648c0-17.408 14.336-31.744 31.744-31.744h270.336l-0.512-192zM172.544 201.216h123.392v-56.832h-123.392v56.832zM787.456 402.432h78.848v-56.832h-78.848v56.832z" />
<glyph unicode="&#xe92d;" glyph-name="region" d="M510.976-53.76c-198.656 0-359.424 69.632-359.424 155.648 0 55.808 67.584 104.448 168.96 132.096 9.728-13.312 19.456-27.136 28.672-39.936-89.6-18.944-150.016-52.736-150.016-92.16 0-59.392 139.264-108.032 311.296-108.032s311.296 48.128 311.296 108.032c0 38.912-60.416 73.216-150.016 92.16 9.728 12.8 18.944 26.112 28.672 39.936 101.376-27.648 168.96-76.288 168.96-132.096 0.512-86.016-160.256-155.648-358.4-155.648zM510.976 113.664c0 0-335.36 317.952-335.36 503.296s150.016 335.36 335.36 335.36 335.36-150.016 335.36-335.36c0-185.344-335.36-503.296-335.36-503.296zM510.976 904.192c-158.72 0-287.232-126.464-287.232-282.112s287.232-436.224 287.232-436.224 287.232 280.576 287.232 436.224-128.512 282.112-287.232 282.112zM510.976 449.024c-92.672 0-167.936 75.264-167.936 167.936s75.264 167.424 167.936 167.424 167.936-75.264 167.936-167.424-75.776-167.936-167.936-167.936zM510.976 736.768c-66.048 0-119.808-53.76-119.808-119.808s53.76-119.808 119.808-119.808c66.048 0 119.808 53.76 119.808 119.808s-53.76 119.808-119.808 119.808z" />
<glyph unicode="&#xe92e;" glyph-name="global" d="M512 960c-282.624 0-512-229.376-512-511.488 0-261.12 195.584-476.16 448-507.392 14.336-3.072 31.744-4.608 52.224-4.608 5.632 0 11.264 0.512 16.896 1.024 280.064 3.072 506.368 230.912 506.368 511.488 0.512 281.6-228.864 510.976-511.488 510.976zM431.104-13.312c-220.16 38.4-387.584 230.4-387.584 461.824 0 33.28 3.584 65.536 10.24 96.768 20.48-21.504 68.096-20.992 79.872 11.264 20.992-12.288 48.64-14.848 48.64-39.424 0-81.92 3.072-169.472 77.312-171.008 2.048 0 41.472-14.848 60.416-63.488 6.656-16.896 32.256 0 60.416 0 13.824 0 0-23.552 0-74.752 0-50.688 110.080-129.536 110.080-129.536-0.512-33.792 1.024-60.928 3.584-82.944-25.6 0-46.592-3.072-62.976-8.704v0zM628.224-6.144c-2.56 11.776-13.312 18.432-32.256 13.312 15.36 66.048 23.040 102.912 55.296 131.072 46.592 40.448 5.632 85.504-30.208 80.384-28.16-4.096-10.24 34.816-35.328 36.864s-57.856 51.712-93.696 69.12c-18.944 9.216-37.888 33.28-67.584 34.304-26.112 1.024-64-22.016-64-4.096 0 57.344-5.632 98.304-7.168 114.688-1.024 13.312-8.704 4.608 26.624 3.584 19.456-0.512 9.728 38.4 28.672 39.936 18.432 1.536 62.976-17.408 74.24-9.728 10.752 7.168 77.312-175.616 77.312-30.208 0 17.408-9.216 47.104 0 63.488 35.328 64.512 68.608 117.248 65.536 124.928-1.536 4.096-36.352 7.68-63.488-1.536-9.216-3.072 3.072-17.92-10.24-20.992-50.176-11.264-94.208 13.824-78.848 37.376 15.872 24.064 73.216 10.752 78.336 58.88 3.072 27.648 5.12 59.904 6.656 83.968 67.584-10.752 59.904 87.552-40.448 97.792 202.752-2.56 374.784-133.12 437.76-314.88-3.072 3.072-7.168 4.608-11.264 5.12-30.208 75.776-103.936 20.992-78.848-46.080-133.12-102.912-98.816-174.592-55.296-215.552 23.040-21.504 45.056-53.76 59.392-77.312-15.872-45.568 57.344-27.136 93.696 50.176-46.080-160.256-173.568-283.648-334.848-324.608v0zM941.056 540.672c7.168-32.768 10.24-66.048 9.728-99.328-1.536 25.088-4.608 50.176-9.728 74.752 0 8.704 0 16.896 0 24.576z" />
<glyph unicode="&#xe92f;" glyph-name="commission" d="M920.567 187.306l-6.777 1.389-2.111 6.61c-19.764 61.853-52.109 114.887-94.256 158.364l0.1-0.103c-36.006 36.164-78.948 65.39-126.666 85.518l-2.598 0.973c-42.33 18.274-91.405 30.672-142.836 34.674l-1.593 0.1-11.11 0.778v117.154c0.022 0.398 0.034 0.864 0.034 1.333s-0.012 0.935-0.037 1.398l0.003-0.065-1.444 11.11 11.11 1.944c82.59 15.177 144.345 86.609 144.345 172.464 0 96.762-78.441 175.203-175.203 175.203s-175.203-78.441-175.203-175.203c0-85.856 61.755-157.288 143.269-172.3l1.077-0.165 11.11-2-1.333-11.11c-0.033-0.457-0.051-0.99-0.051-1.528s0.019-1.071 0.055-1.599l-0.004 0.071v-116.543l-11.11-0.778c-53.269-4.108-102.571-16.587-148.112-36.149l3.017 1.153c-107.351-44.588-188.799-133.054-222.961-242.403l-0.737-2.737-2.111-6.444-6.666-1.444c-56.999-12.501-99.032-62.563-99.032-122.442 0-69.151 56.058-125.209 125.209-125.209s125.209 56.058 125.209 125.209c0 55.869-36.592 103.192-87.117 119.309l-0.887 0.244-11.999 3.722 4.388 11.776c33.341 91.168 101.853 162.632 188.682 199.142l2.242 0.837c37.631 16.367 81.26 27.763 126.967 31.982l1.685 0.126 12.832 1.111v-244.418l-8.999-2.278c-54.865-14.070-94.767-63.080-94.767-121.408 0-69.12 56.033-125.153 125.153-125.153s125.153 56.033 125.153 125.153c0 58.329-39.903 107.338-93.9 121.219l-0.868 0.189-8.943 2.222v244.418l12.832-1.111c46.357-4.303 89.018-15.377 128.6-32.274l-2.78 1.055c90.34-37.059 159.861-109.19 192.614-199.002l0.754-2.365 4.333-11.665-11.776-3.833c-50.554-16.807-86.367-63.677-86.367-118.911 0-69.059 55.983-125.042 125.042-125.042s125.042 55.983 125.042 125.042c0 60.414-42.845 110.821-99.807 122.494l-0.806 0.138zM210.255 64.264c-0.095-45.395-36.916-82.158-82.324-82.158-45.467 0-82.324 36.858-82.324 82.324s36.858 82.324 82.324 82.324v0c45.487-0.095 82.324-36.991 82.324-82.491 0 0 0 0 0 0v0zM379.792 781.297c0 73.078 59.241 132.319 132.319 132.319s132.319-59.241 132.319-132.319c0-73.078-59.241-132.319-132.319-132.319-0.039 0-0.078 0-0.117 0h0.006c-72.966 0.221-132.050 59.344-132.208 132.304v0.015zM593.713 63.986c-0.252-45.275-37.013-81.88-82.323-81.88-45.467 0-82.324 36.858-82.324 82.324s36.858 82.324 82.324 82.324c0.019 0 0.038 0 0.057 0h-0.003c45.487-0.095 82.324-36.991 82.324-82.491 0 0 0 0 0 0v0zM896.014-18.505c-45.511 0.063-82.38 36.972-82.38 82.491 0 45.559 36.933 82.491 82.491 82.491 45.48 0 82.364-36.806 82.491-82.257v-0.012c-0.032-45.535-36.952-82.436-82.491-82.436-0.039 0-0.078 0-0.117 0h0.006z" />
<glyph unicode="&#xe930;" glyph-name="add1" d="M590.033 14.222c0-0.028 0-0.062 0-0.095 0-43.115-34.925-78.073-78.027-78.127h-0.005c-43.201 0-78.222 35.021-78.222 78.222v0 867.556c0 43.201 35.021 78.222 78.222 78.222v0 0c43.149 0 78.127-34.979 78.127-78.127 0-0.033 0-0.067 0-0.1v0.005-867.65zM945.778 526.127c43.168 0 78.168-34.967 78.222-78.122v-0.005c-0.054-43.16-35.055-78.127-78.222-78.127h-867.65c-43.149 0-78.127 34.979-78.127 78.127v0 0c0 43.149 34.979 78.127 78.127 78.127v0z" />
<glyph unicode="&#xe931;" glyph-name="limit" d="M124.928 721.92l123.904 123.904c10.752 10.752 10.752 28.16 0 38.912s-28.16 10.752-38.912 0l-123.904-123.904c-10.752-10.752-10.752-28.16 0-38.912s28.16-10.752 38.912 0zM937.984 760.832l-123.904 123.904c-10.752 10.752-28.16 10.752-38.912 0s-10.752-28.16 0-38.912l123.904-123.904c10.752-10.752 28.16-10.752 38.912 0s10.752 28.16 0 38.912zM367.616 545.792c-13.312 0-23.040-6.656-29.184-19.968-4.608-10.24-6.656-25.088-6.656-45.056 0-18.944 2.048-33.792 6.656-44.544 6.144-13.312 15.872-19.968 29.184-19.968 12.8 0 22.016 7.168 28.16 20.992 4.608 11.776 6.656 26.112 6.656 43.52 0 18.432-2.56 33.28-7.168 44.544-5.632 13.824-14.848 20.48-27.648 20.48zM630.784 380.416c-13.312 0-23.040-6.656-29.184-19.968-4.608-10.24-6.656-25.088-6.656-45.056 0-18.944 2.048-33.792 6.656-44.544 6.144-13.312 15.872-19.968 29.184-19.968 12.8 0 22.016 7.168 28.16 20.992 4.608 11.776 6.656 26.112 6.656 43.52 0 18.432-2.56 33.28-7.168 44.544-5.12 13.824-14.336 20.48-27.648 20.48zM766.464 107.52c4.608 4.096 8.704 8.192 13.312 12.8 75.264 75.776 116.224 176.64 116.224 284.16v0c0 107.52-41.472 207.872-116.224 284.16-75.264 75.776-175.104 117.76-281.088 117.76s-205.824-41.984-281.088-117.76c-75.264-75.776-116.224-176.64-116.224-284.16s41.472-207.872 116.224-284.16c6.144-6.144 12.288-12.288 18.944-17.92l-63.488-98.304c-8.704-12.8-4.608-30.72 8.192-38.912 4.608-3.072 9.728-4.608 15.36-4.608 9.216 0 18.432 4.608 23.552 12.8l61.44 94.72c64-42.496 139.264-65.536 217.6-65.536 80.896 0 158.72 24.576 223.744 69.632l64.512-99.328c5.12-8.192 13.824-12.8 23.552-12.8 5.632 0 10.752 1.536 15.36 4.608 12.8 8.704 16.384 26.112 8.192 38.912l-68.096 103.936zM301.568 410.624c-13.824 17.92-20.48 41.472-20.48 70.144 0 29.696 6.656 53.248 20.48 70.144 14.848 19.968 36.864 30.208 66.048 30.208 28.16 0 50.176-10.24 65.024-30.208 13.824-17.92 20.48-40.96 20.48-70.144 0-28.16-6.656-51.712-20.48-70.144-15.872-19.968-37.376-29.696-65.024-29.696-28.16 0-50.176 9.728-66.048 29.696zM416.768 208.384h-41.472l204.8 379.904h41.984l-205.312-379.904zM695.808 245.248c-15.872-19.968-37.376-29.696-65.024-29.696-28.16 0-50.176 9.728-66.048 29.696-13.824 17.92-20.48 41.472-20.48 70.144 0 29.696 6.656 53.248 20.48 70.144 14.848 19.968 36.864 30.208 66.048 30.208 28.16 0 50.176-10.24 65.024-30.208 13.824-17.92 20.48-40.96 20.48-70.144 0-28.16-6.656-51.712-20.48-70.144z" />
<glyph unicode="&#xe932;" glyph-name="weapp" d="M289.792 7.168c-2.56 0-5.12 0-7.168 0-150.528 5.632-258.56 130.048-256.512 295.936 4.096 95.744 111.104 156.16 174.080 183.296 15.872 7.168 29.696 10.752 41.472 10.752s27.136-3.584 39.424-29.696c6.144-12.8 7.68-23.040 5.12-29.696-5.632-14.336-31.232-25.088-51.712-33.792l-1.024-0.512c-55.296-23.552-90.624-55.296-105.472-94.72-12.8-34.304-9.216-72.704 10.24-113.152 28.672-59.904 80.384-92.672 144.896-92.672 24.064 0 49.664 4.608 76.288 13.824 50.176 17.408 110.080 60.928 107.52 168.96s-2.56 220.16 0 342.528c2.56 124.416 59.392 205.312 174.080 246.272 27.648 9.728 57.856 14.848 89.088 14.848 84.48 0 167.936-36.864 218.112-95.744 50.176-59.392 62.976-144.384 34.304-226.816-29.184-83.456-95.744-145.408-173.568-161.28-8.192-1.536-15.36-2.56-22.016-2.56-21.504 0-34.304 7.68-43.008 26.624-6.656 14.848-4.608 28.16 25.6 54.784 6.656 5.632 15.872 10.752 25.6 15.872 4.096 2.048 8.192 4.096 11.776 6.656 36.864 21.504 134.656 78.336 91.648 188.928-25.088 64.512-78.336 98.816-153.6 98.816-11.776 0-24.064-1.024-36.352-2.56-94.208-12.288-146.432-71.168-146.432-165.888 0-41.472 0-83.456 0.512-123.904 0.512-83.968 1.536-170.496-2.56-255.488-5.12-123.392-137.216-239.616-270.336-239.616z" />
<glyph unicode="&#xe933;" glyph-name="user" d="M536.576 449.536c-8.192-1.024-16.384-1.536-24.576-1.536-105.984 0-192 86.016-192 192s86.016 192 192 192 192-86.016 192-192c0-50.176-19.456-97.792-54.272-133.632 27.136 6.144 55.296 7.168 82.944 4.096 23.040 39.424 35.328 83.968 35.328 129.536 0 141.312-114.688 256-256 256s-256-114.688-256-256c0-86.528 43.52-166.912 116.224-214.528-178.688-58.88-308.224-227.328-308.224-425.472h64c0 201.728 155.648 367.104 353.792 382.976 14.336 25.088 32.768 47.616 54.784 66.56zM935.424 146.432c-11.776-25.088-28.16-48.128-47.616-68.608 5.12-25.6 8.192-51.712 8.192-78.336h64c0 50.176-8.192 99.84-24.576 146.944zM158.208 149.504c82.432 195.584 307.712 287.232 502.784 204.8 142.336-59.904 235.008-199.68 235.008-354.304h64c0 198.656-129.024 367.104-308.224 425.472 72.192 47.104 116.224 128 116.224 214.528 0 141.312-114.688 256-256 256s-256-114.688-256-256c0-86.528 43.52-166.912 116.224-214.528-178.688-58.88-308.224-227.328-308.224-425.472h64c0 51.2 10.24 102.4 30.208 149.504zM320 640c0 105.984 86.016 192 192 192s192-86.016 192-192-86.016-192-192-192c-50.688 0-99.84 20.48-135.68 56.32-36.352 35.84-56.32 84.48-56.32 135.68z" />
<glyph unicode="&#xe934;" glyph-name="coupon" d="M48.128 71.68c-16.384 0-30.208 13.312-30.208 30.208v194.048c44.032 26.112 71.168 74.24 71.168 126.464s-26.624 98.816-71.168 126.464v195.584c0 16.384 13.312 30.208 30.208 30.208h928.256c16.384 0 30.208-13.312 30.208-30.208v-195.584c-44.032-26.112-71.168-74.24-71.168-126.464s26.624-98.816 71.168-126.464v-194.048c0-16.384-13.312-30.208-30.208-30.208h-928.256zM77.824 580.096l2.048-1.536c44.032-39.936 69.632-96.256 69.632-155.648s-25.088-115.712-69.632-155.648l-2.048-1.536v-134.144h868.352v133.12l-2.048 1.536c-44.032 39.936-69.632 96.256-69.632 155.648s25.088 115.712 69.632 155.648l2.048 1.536v135.168h-868.352v-134.144zM481.792 179.2v107.008h-107.008v59.904h107.008v82.944h-107.008v59.904h114.176l-125.952 125.44 43.008 43.008 107.008-107.008 105.984 105.984 43.008-43.008-124.416-124.416h111.616v-59.904h-107.008v-82.944h107.008v-59.904h-107.008v-107.008h-60.416z" />
<glyph unicode="&#xe935;" glyph-name="market" horiz-adv-x="1137" d="M270.336-58.88c-52.224 0-94.208 41.984-94.208 93.696v379.392h-57.856c-4.096 0-7.68 3.584-7.68 7.68v171.52c0 51.712 42.496 93.696 94.208 93.696h56.832c1.024 0 2.048 0 3.072-0.512 14.848-6.144 29.184-12.8 43.008-20.48 13.312-7.168 27.648-14.336 44.032-22.016 3.072-1.536 5.12-4.096 5.12-7.168 0-4.096-3.584-7.68-7.68-7.68h-143.872c-19.968 0-35.84-15.872-35.84-35.328v-121.344h419.84v156.16h-59.392c-1.536 0-3.072 0.512-4.096 1.536l-3.584 2.048-3.584-0.512c-6.656-1.024-12.288-1.024-18.432-1.024-48.64 0-108.544 19.456-178.688 57.856-60.416 32.768-115.2 49.664-162.816 49.664-64.512 0-92.672-30.208-95.744-33.792-5.632-7.168-13.824-10.752-23.040-10.752-6.656 0-13.312 2.048-18.432 6.656-6.144 4.608-9.728 11.776-10.752 19.456s1.536 15.36 6.144 21.504c5.12 5.632 50.176 54.784 142.336 54.784 57.344 0 121.344-18.944 189.952-56.32 74.752-41.472 121.344-50.688 147.456-51.2l16.384-0.512-6.656 14.848c-3.072 6.144-4.096 12.8-4.096 18.944 0 1.024 0 2.048 0.512 3.072v2.048c0.512 6.144 2.56 11.776 5.12 16.896l2.048 4.096-2.048 4.096c-26.112 60.928-69.632 134.144-128.512 134.144-46.592 0-87.040-31.744-98.304-76.8-0.512-2.048-2.048-3.584-3.584-4.608-1.024-0.512-2.56-1.024-3.584-1.024s-1.536 0-2.048 0.512c-14.336 4.608-28.16 8.192-41.472 10.752-2.048 0.512-3.584 1.536-4.608 3.584-1.024 1.536-1.536 4.096-1.024 5.632 17.92 71.168 81.408 120.32 154.624 120.32 40.96 0 78.848-18.432 112.128-54.272 23.040-24.576 44.032-57.856 62.464-98.304l3.584-8.192 8.704 2.56c16.384 5.12 33.792 7.68 51.712 7.68s35.328-2.56 51.712-7.68l8.704-2.56 3.584 8.192c18.432 40.448 39.936 73.728 62.464 98.304 33.792 35.84 71.168 54.272 112.64 54.272 42.496 0 82.432-16.384 112.64-46.080s46.592-69.632 46.592-111.616c0-30.208-8.704-59.392-24.576-83.968l-10.24-15.872h49.152c52.224 0 94.208-41.984 94.208-93.696l0.512-172.032c0-2.048-1.024-4.096-2.048-5.12-1.536-1.536-3.072-2.048-5.12-2.048h-57.856v-378.88c0-51.712-42.496-93.696-94.208-93.696h-695.808zM647.68-1.024h318.464c19.968 0 35.84 15.872 35.84 35.328v379.392h-354.304v-414.72zM234.496 34.304c0-19.456 16.384-35.328 35.84-35.328h318.464v414.72h-354.304v-379.392zM647.68 472.064h419.84v121.344c0 19.456-16.384 35.328-35.84 35.328h-383.488v-156.672zM857.088 887.296c-58.88 0-102.4-72.704-128.512-134.144l-2.048-4.608 2.048-4.096c3.584-7.168 5.632-14.848 5.632-22.016s-1.536-13.824-4.608-20.48l-7.168-14.848h134.144c55.808 0 101.376 45.056 101.376 99.84 0 55.296-45.056 100.352-100.864 100.352zM618.496 736.256c-7.68 0-15.36-0.512-22.528-1.536l-26.624-3.584 22.016-15.36c1.536-1.024 3.072-2.56 4.608-4.096l2.56-3.072 4.096-0.512c5.12-0.512 10.752-0.512 15.872-0.512 16.896 0 29.696 2.048 37.376 4.096v19.968c-8.192 2.56-20.48 4.608-37.376 4.608v0z" />
<glyph unicode="&#xe936;" glyph-name="shops" horiz-adv-x="1004" d="M536.721 367.523c-43.147 0.024-81.691 19.715-107.154 50.593l-0.19 0.237c-25.668-31.101-64.223-50.774-107.372-50.774-45.46 0-85.821 21.837-111.163 55.594l-0.258 0.358c-22.319-22.568-53.286-36.544-87.517-36.544-67.968 0-123.067 55.099-123.067 123.067 0 0.016 0 0.033 0 0.049v-0.002c0 3.993 0.741 7.813 2.094 11.329l-0.073-0.216 108.923 288.945c4.643 12.022 16.107 20.395 29.527 20.395 0.008 0 0.017 0 0.025 0h577.763c13.444 0 24.925-8.403 29.478-20.242l0.073-0.216 106.839-283.262c2.54-6.351 4.013-13.712 4.013-21.418 0-1.195-0.035-2.382-0.105-3.56l0.008 0.162c-4.308-64.452-57.644-115.101-122.809-115.101-34.265 0-65.26 14.004-87.573 36.601l-0.013 0.013c-25.596-34.144-65.969-56.004-111.448-56.008h-0.001zM429.377 538.011c17.437 0 31.572-14.135 31.572-31.572v0c0-41.848 33.924-75.772 75.772-75.772s75.772 33.924 75.772 75.772v0 3.662c0 17.437 14.135 31.572 31.572 31.572s31.572-14.135 31.572-31.572v0c-0.036-0.773-0.056-1.678-0.056-2.589 0-33.16 26.882-60.042 60.042-60.042 32.25 0 58.561 25.426 59.982 57.325l0.005 0.128-99.451 262.488h-533.816l-98.946-262.425c1.425-32.028 27.737-57.453 59.986-57.453 33.16 0 60.042 26.882 60.042 60.042 0 0.911-0.020 1.816-0.060 2.717l0.005-0.128c0 17.437 14.135 31.572 31.572 31.572s31.572-14.135 31.572-31.572v0-3.725c0-41.848 33.924-75.772 75.772-75.772s75.772 33.924 75.772 75.772v0c0 0 0 0.001 0 0.001 0 17.348 13.992 31.428 31.306 31.571h0.014zM769.973 339.109c-9.877-0.345-17.752-8.435-17.752-18.364 0-0.204 0.003-0.406 0.010-0.608l-0.001 0.029v-330.431h-645.707v330.431c0.040 0.449 0.063 0.971 0.063 1.498 0 9.834-7.972 17.806-17.806 17.806s-17.806-7.972-17.806-17.806c0-0.527 0.023-1.049 0.068-1.565l-0.005 0.067v-349.374c-0.006-0.173-0.009-0.375-0.009-0.579 0-9.929 7.876-18.019 17.721-18.363l0.031-0.001h681.193c9.877 0.345 17.752 8.435 17.752 18.364 0 0.204-0.003 0.406-0.010 0.608l0.001-0.029v349.374c0.006 0.173 0.009 0.375 0.009 0.579 0 9.929-7.876 18.019-17.721 18.363l-0.031 0.001zM769.973-63.937h-681.193c-18.595 0.352-33.534 15.509-33.534 34.155 0 0.202 0.002 0.403 0.005 0.604v-0.030 349.374c0 18.518 15.012 33.529 33.529 33.529s33.529-15.012 33.529-33.529v0-314.645h614.135v314.645c0 18.518 15.012 33.529 33.529 33.529s33.529-15.012 33.529-33.529v0-349.374c0.003-0.171 0.005-0.372 0.005-0.574 0-18.646-14.939-33.803-33.501-34.154h-0.033zM88.78 323.323c-0.821 0-1.957-1.2-1.957-3.157v-349.374c0-1.957 1.137-3.157 1.957-3.157h681.193c0.821 0 1.957 1.2 1.957 3.157v349.374c0 1.957-1.137 3.157-1.957 3.157s-1.957-1.2-1.957-3.157v-346.216h-677.278v346.216c0 1.957-1.137 3.157-1.957 3.157zM880.79 478.53c-17.437 0-31.572 14.135-31.572 31.572s14.135 31.572 31.572 31.572v0c31.31 0.013 57.016 23.985 59.78 54.576l0.017 0.232-117.637 300.374h-160.006c-17.437 0-31.572 14.135-31.572 31.572s14.135 31.572 31.572 31.572v0h181.538c0.006 0 0.012 0 0.019 0 13.301 0 24.681-8.225 29.331-19.867l0.075-0.213 125.719-321.085c2.62-6.468 4.14-13.97 4.14-21.827 0-1.207-0.036-2.405-0.107-3.594l0.008 0.164c-4.492-64.383-57.763-114.926-122.865-115.048h-0.012zM250.806 854.676c-0.007 0-0.015 0-0.024 0-17.437 0-31.572 14.135-31.572 31.572 0 4.017 0.75 7.858 2.118 11.392l-0.073-0.216 15.912 42.243c4.66 11.989 16.107 20.332 29.503 20.332 0.039 0 0.078 0 0.117 0h434.106c17.437 0 31.572-14.135 31.572-31.572s-14.135-31.572-31.572-31.572v0h-412.328l-8.209-21.785c-4.643-12.022-16.107-20.395-29.527-20.395-0.008 0-0.017 0-0.025 0h0.001zM819.288 68.665c0-10.462 8.481-18.943 18.943-18.943v0h76.909c9.877 0.345 17.752 8.435 17.752 18.364 0 0.204-0.003 0.406-0.010 0.608l0.001-0.029v349.374c0.040 0.449 0.063 0.971 0.063 1.498 0 9.834-7.972 17.806-17.806 17.806s-17.806-7.972-17.806-17.806c0-0.527 0.023-1.049 0.068-1.565l-0.005 0.067v-330.431h-59.166c-10.462 0-18.943-8.481-18.943-18.943v0zM915.14 33.936h-76.909c-19.18 0-34.729 15.549-34.729 34.729s15.549 34.729 34.729 34.729v0h43.38v314.645c0 18.535 15.026 33.561 33.561 33.561s33.561-15.026 33.561-33.561v0-349.374c0.003-0.17 0.005-0.371 0.005-0.573 0-18.668-14.975-33.839-33.568-34.156h-0.030zM838.231 71.822c-1.744 0-3.157-1.414-3.157-3.157s1.414-3.157 3.157-3.157v0h76.909c0.821 0 1.957 1.2 1.957 3.157v349.374c0 1.957-1.137 3.157-1.957 3.157s-1.957-1.2-1.957-3.157v-346.216z" />
<glyph unicode="&#xe937;" glyph-name="danger" d="M772.206 708.206c-143.704 143.704-376.71 143.704-520.444 0-143.704-143.704-143.704-376.71 0-520.444s376.71-143.704 520.444 0c143.734 143.734 143.734 376.74 0 520.444zM642.118 274.518l-130.118 130.118-130.118-130.118c-5.585-5.775-13.403-9.361-22.057-9.361-16.937 0-30.666 13.731-30.666 30.666 0 8.656 3.586 16.474 9.354 22.051l130.127 130.127-130.118 130.118c-5.775 5.585-9.361 13.403-9.361 22.057 0 16.937 13.731 30.666 30.666 30.666 8.656 0 16.474-3.586 22.051-9.354l130.127-130.127 130.118 130.118c5.548 5.548 13.215 8.981 21.682 8.981 16.934 0 30.661-13.729 30.661-30.661 0-8.467-3.431-16.132-8.981-21.682l-130.118-130.118 130.118-130.118c5.548-5.548 8.981-13.215 8.981-21.682 0-16.934-13.729-30.661-30.661-30.661-8.467 0-16.132 3.431-21.682 8.981v0z" />
<glyph unicode="&#xe938;" glyph-name="goods1" d="M853.504 738.816v24.576l-0.512 113.664c0 19.456-5.12 36.864-15.872 50.688s-28.672 22.016-46.080 22.016c-14.336 0-28.672-4.608-42.496-12.8l-122.368-71.168c-26.112 33.792-66.56 56.32-113.152 56.32v0h-1.024c-0.512 0-1.536 0-2.56 0-46.080-1.024-86.016-23.552-111.616-57.344l-122.88 70.144c-13.824 7.68-27.648 12.288-42.496 12.288-17.408 0-35.328-7.68-46.080-21.504s-15.872-31.232-15.872-50.688c0 0 0-0.512 0-0.512l0.512-136.192h682.496zM232.448 898.56c3.584 0 9.728-1.536 17.92-6.144l165.376-94.72 11.776 22.528c16.896 31.744 47.616 52.736 83.968 52.736v0c36.352 0 67.584-20.992 84.48-51.712l12.288-22.528 164.352 95.744c7.68 4.608 13.824 6.144 17.92 5.632 6.656-1.024 10.752-0.512 12.8-23.552v-89.088h-583.168v88.064c2.048 22.528 5.632 21.504 12.288 23.040zM32.256 686.080v-344.576h102.4v-399.36l754.176-6.656v405.504h102.4v345.088h-958.976zM487.424-11.264l-303.104 2.56v350.208h303.104v-352.768zM487.424 390.656h-406.016v245.76h405.504l0.512-245.76zM839.68-14.336l-303.104 2.56v353.28h303.104v-355.84zM942.080 390.656h-405.504v245.76h405.504v-245.76z" />
<glyph unicode="&#xe939;" glyph-name="warning" d="M510.976 813.568c-201.728 0-365.568-163.84-365.568-365.568s163.84-365.568 365.568-365.568 365.568 163.84 365.568 365.568-163.84 365.568-365.568 365.568v0zM470.016 630.784c0 16.896 24.064 35.84 40.96 35.84s40.96-18.944 40.96-35.84l-10.24-216.576c0-16.896-13.824-30.72-30.72-30.72s-30.72 13.824-30.72 30.72l-10.24 216.576zM510.976 265.216c-23.552 0-43.008 18.944-43.008 43.008s18.944 43.008 43.008 43.008c23.552 0 43.008-18.944 43.008-43.008s-19.456-43.008-43.008-43.008v0z" />
<glyph unicode="&#xe93a;" glyph-name="info" d="M454.144 813.568c-201.728 0-365.568-163.84-365.568-365.568s163.84-365.568 365.568-365.568 365.568 163.84 365.568 365.568-163.328 365.568-365.568 365.568zM504.32 323.072c-21.504-38.912-45.056-67.584-82.944-67.584-25.088 4.096-35.84 26.624-30.72 47.104l48.64 184.32c2.048 4.096-2.048 10.24-5.632 10.24-3.584 2.048-10.752-4.096-16.384-12.288l-28.672-40.96c-2.048 6.144 0 18.432 0 22.528 21.504 38.912 59.392 67.584 82.944 67.584 23.552-2.048 34.304-24.576 30.72-47.104l-48.64-186.368c0-4.096 2.048-8.192 5.632-10.24s10.752 4.096 17.92 12.288l28.672 40.96c-1.536-4.096-1.536-16.384-1.536-20.48v0zM478.72 558.592c-22.528 0-40.96 16.384-40.96 40.96s18.432 40.96 40.96 40.96c22.528 0 40.96-16.384 40.96-40.96s-18.432-40.96-40.96-40.96z" />
<glyph unicode="&#xe93b;" glyph-name="success" d="M512 849.992c-211.968 0-384-172.032-384-384s172.032-384 384-384 384 172.032 384 384-172.032 384-384 384zM743.28 573.072l-265.943-271.657c-0.88-1.321-1.753-2.632-3.072-3.952-10.535-10.535-27.208-10.535-37.744 0l-132.096 134.288c-10.535 10.537-10.535 27.648 0 38.185s27.208 10.537 37.744 0l113.224-114.104 250.585 255.856c10.535 10.537 27.208 10.537 37.744 0 10.096-10.537 10.096-28.088-0.44-38.615v0z" />
<glyph unicode="&#xe93c;" glyph-name="order1" d="M295.424 552.448h434.176c14.336 0 26.624 12.288 26.624 26.624s-12.288 26.624-26.624 26.624h-434.176c-14.336 0-26.624-12.288-26.624-26.624s10.752-26.624 26.624-26.624zM295.424 366.592h434.176c14.336 0 26.624 12.288 26.624 26.624s-12.288 26.624-26.624 26.624h-434.176c-14.336 0-26.624-12.288-26.624-26.624s10.752-26.624 26.624-26.624zM295.424 180.224h434.176c14.336 0 26.624 12.288 26.624 26.624s-12.288 26.624-26.624 26.624h-434.176c-14.336 0-26.624-12.288-26.624-26.624s10.752-26.624 26.624-26.624zM302.592 954.88h56.832v-161.28h-56.832v161.28zM398.336 871.424h237.568v-53.248h-237.568v53.248zM836.096 871.424h-67.584v-53.248h67.584c24.576 0 44.544-19.456 44.544-44.544v-735.232c0-24.576-19.456-44.544-44.544-44.544h-647.168c-24.576 0-44.544 19.456-44.544 44.544v735.744c0 24.576 19.456 44.544 44.544 44.544h76.288v52.736h-76.288c-53.248 0-97.28-44.544-97.28-97.28v-735.744c0-53.248 44.544-97.28 97.28-97.28h646.656c53.248 0 97.28 44.544 97.28 97.28v735.744c0.512 54.784-43.52 97.28-96.768 97.28v0zM672.768 954.88h56.832v-161.28h-56.832v161.28z" />
<glyph unicode="&#xe93d;" glyph-name="money" d="M512 960c-282.77 0-512-229.23-512-512s229.23-512 512-512c282.77 0 512 229.23 512 512v0c0 282.77-229.23 512-512 512v0zM512-5.371c-250.39 0-453.371 202.981-453.371 453.371s202.981 453.371 453.371 453.371c250.39 0 453.371-202.981 453.371-453.371v0c0-250.39-202.981-453.371-453.371-453.371v0zM628.846 569.689c-5.152 25.76-10.304 38.64-22.514 53.426-20.608 24.472-53.426 37.352-95.259 37.352-66.305 0-112.621-35.394-112.621-87.583 0-33.488 18.032-57.29 56.002-72.745 17.362-7.058 18.032-7.058 92.065-23.184 103.039-21.896 144.254-61.154 144.254-135.805 0-90.777-62.442-142.245-173.157-142.245-72.127 0-125.501 21.226-155.125 61.154-16.744 22.514-23.802 42.504-30.242 84.956l56.105 7.11c1.906-30.912 6.44-46.367 19.938-63.73 21.226-28.336 59.866-44.41 107.47-44.41 76.609 0 122.925 36.064 122.925 95.929 0 31.53-12.88 55.332-37.352 68.881-21.226 12.21-28.336 14.168-106.182 31.53-40.546 8.346-65.636 17.362-87.583 29.624-39.825 22.514-60.020 56.62-60.020 101.699 0 81.092 65.018 133.229 164.862 133.229 63.73 0 113.343-20.608 142.245-59.196 14.786-19.32 21.226-35.394 28.336-68.212zM482.737 769.842h58.526v-643.684h-58.526z" />
<glyph unicode="&#xe93e;" glyph-name="sale" d="M977.92 577.536v-155.136c0-41.472-36.352-77.824-77.824-77.824s-77.824 36.352-77.824 77.824v155.136c0 20.48 10.24 41.472 20.48 51.712-61.952 134.656-176.128 232.96-326.144 232.96h-5.12c-155.136 0-269.312-98.304-331.264-232.96 10.24-10.24 20.48-31.232 20.48-51.712v-155.136c0-41.472-36.352-77.824-77.824-77.824s-76.8 36.352-76.8 77.312v155.648c0 42.496 34.816 77.824 77.824 77.824h5.12c61.952 150.016 211.968 258.56 382.976 258.56s321.024-108.544 382.976-259.072h5.12c43.008 0 77.824-34.816 77.824-77.312zM977.92-17.92h-931.84c0 119.296 206.848 259.072 465.92 259.072s465.92-139.776 465.92-259.072zM905.216 33.792c-51.712 72.704-206.848 155.136-393.216 155.136s-341.504-82.944-393.216-155.136h786.432zM566.784 246.272c-188.416-36.352-344.576 119.808-308.224 308.224 19.456 100.352 98.816 179.712 199.168 199.168 188.416 36.352 344.576-119.808 308.224-308.224-19.968-100.352-98.816-179.712-199.168-199.168zM717.824 477.184c14.336 131.584-96.768 242.688-228.352 228.352-95.744-10.24-173.056-87.552-183.296-183.296-14.336-131.584 96.768-242.688 228.352-228.352 95.744 10.24 173.056 87.552 183.296 183.296z" />
<glyph unicode="&#xe93f;" glyph-name="custom-blank" d="M0 866.816h93.184v-46.49h-93.184v46.49zM0 75.674h93.184v-46.49h-93.184v46.49zM186.163 75.674h93.184v-46.49h-93.184v46.49zM372.326 75.674h93.184v-46.49h-93.184v46.49zM558.49 75.674h93.184v-46.49h-93.184v46.49zM930.816 75.674h93.184v-46.49h-93.184v46.49zM744.653 75.674h93.184v-46.49h-93.184v46.49zM1024 773.837v-93.184h-46.49v93.184h46.49zM46.49 773.837v-93.184h-46.49v93.184h46.49zM1024 587.674v-93.184h-46.49v93.184h46.49zM46.49 587.674v-93.184h-46.49v93.184h46.49zM1024 401.51v-93.184h-46.49v93.184h46.49zM46.49 401.51v-93.184h-46.49v93.184h46.49zM46.49 215.347v-93.184h-46.49v93.184h46.49zM1024 215.347v-93.184h-46.49v93.184h46.49zM186.163 866.816h93.184v-46.49h-93.184v46.49zM372.326 866.816h93.184v-46.49h-93.184v46.49zM558.49 866.816h93.184v-46.49h-93.184v46.49zM744.653 866.816h93.184v-46.49h-93.184v46.49zM930.816 866.816h93.184v-46.49h-93.184v46.49z" />
<glyph unicode="&#xe940;" glyph-name="custom-line" d="M177.562 888.115h677.274v-61.44h-677.274v61.44zM5.734 474.829h245.555v-61.44h-245.555v61.44zM392.192 474.829h245.555v-61.44h-245.555v61.44zM778.445 474.829h245.555v-61.44h-245.555v61.44zM5.734 61.747h400.998v-61.44h-400.998v61.44zM392.192 61.747h400.998v-61.44h-400.998v61.44zM778.445 61.747h245.555v-61.44h-245.555v61.44z" />
<glyph unicode="&#xe941;" glyph-name="custom-notice" d="M99.328-63.386c-26.010 0-50.79 10.65-68.813 29.286-18.432 19.456-28.672 45.261-28.467 72.090v490.086c0 52.838 44.646 97.28 97.28 97.28h53.043l302.080 281.19c4.915 31.744 28.262 52.838 58.573 52.838 14.95 0 29.491-6.144 39.936-16.998 9.626-9.83 16.179-22.323 18.637-35.84l302.080-281.19h53.043c25.805 0 50.381-10.24 68.608-28.467 18.432-18.022 28.877-42.598 28.877-68.198v-494.797c0-25.805-10.24-50.381-28.467-68.608-18.022-18.432-42.598-28.672-68.198-28.877h-828.211zM99.328 575.59c-27.443 0-46.694-19.251-46.694-46.694v-490.086c-0.205-12.083 3.891-23.962 11.469-33.382 7.168-8.806 17.818-13.722 29.082-13.722 1.843 0 3.891 0.205 5.734 0.41h827.802c27.443 0 46.694 19.251 46.694 46.694v4.096h0.614v485.99c0 27.443-19.251 46.694-46.694 46.694h-828.006zM798.106 625.562l-246.579 230.4c-11.674-13.722-32.154-14.95-38.502-14.95-14.131 0-26.419 5.12-37.888 15.36l-247.194-230.81h570.163zM162.202 119.296c-14.95 0-24.986 10.035-24.986 24.986s10.035 24.986 24.986 24.986h397.517c6.758 0.205 13.312-2.458 18.227-7.373 4.506-4.915 6.758-11.264 6.144-17.818 0-14.95-10.035-24.986-24.986-24.986l-396.902 0.205zM162.202 259.174c-14.95 0-24.986 10.035-24.986 24.986 0 14.746 10.24 24.986 24.986 24.986h692.838c8.602 0 16.794-3.277 22.938-9.421 4.096-4.096 6.349-9.83 6.144-15.77 0-14.95-10.035-24.986-24.986-24.986l-696.934 0.205zM162.202 402.534c-14.95 0-24.986 10.035-24.986 24.986s10.035 24.986 24.986 24.986h692.838c9.011 0 17.613-3.482 22.938-9.216 4.096-4.301 6.349-10.035 5.939-15.974 0-14.95-10.035-24.986-24.986-24.986l-696.73 0.205z" />
<glyph unicode="&#xe942;" glyph-name="custom-shop" d="M216.883 894.464l-209.715-296.141-3.277-2.458 0.819-1.024-0.41-0.41h0.819l492.339-634.061h33.792l492.339 634.061h0.614l-0.41 0.41 0.819 1.024-3.277 2.458-209.51 296.141h-594.944zM575.488 852.48h214.016l153.19-216.064h-225.28l-141.926 216.064zM361.882 636.416l141.926 216.269h21.299l141.926-216.269h-305.152zM239.002 852.48h214.016l-141.722-216.269h-225.28l152.986 216.269zM723.149 594.432h246.784l-402.637-518.554 155.853 518.554zM349.798 594.432h329.114l-164.454-547.43-164.659 547.43zM58.573 594.432h246.784l155.853-518.554-402.637 518.554z" />
<glyph unicode="&#xe943;" glyph-name="custom-listmenu" d="M283.853 837.939h709.427c15.565 0 28.262 12.698 28.262 28.262s-12.493 28.262-28.262 28.262h-709.427c-15.565 0-28.262-12.698-28.262-28.262s12.493-28.262 28.262-28.262zM124.928 894.464h-96.666c-15.565 0-28.262-12.493-28.262-28.262s12.698-28.262 28.262-28.262h96.666c15.565 0 28.262 12.698 28.262 28.262s-12.698 28.262-28.262 28.262zM993.28 613.683h-709.427c-15.565 0-28.262-12.698-28.262-28.262s12.698-28.262 28.262-28.262h709.427c15.565 0 28.262 12.698 28.262 28.262 0.205 15.565-12.493 28.262-28.262 28.262v0zM124.928 613.683h-96.666c-15.565 0-28.262-12.698-28.262-28.467 0-15.565 12.698-28.262 28.262-28.262h96.666c15.565 0 28.262 12.698 28.262 28.262 0 15.77-12.698 28.467-28.262 28.467zM584.704 51.712h-300.851c-15.565 0-28.262-12.698-28.262-28.262s12.698-28.467 28.262-28.467h300.851c15.565 0 28.262 12.698 28.262 28.467 0 15.565-12.698 28.262-28.262 28.262zM124.928 51.712h-96.666c-15.565 0-28.262-12.698-28.262-28.262s12.698-28.467 28.262-28.467h96.666c15.565 0 28.262 12.698 28.262 28.467 0 15.565-12.698 28.262-28.262 28.262zM584.704 332.698h-300.851c-15.565 0-28.262-12.698-28.262-28.262s12.698-28.467 28.262-28.467h300.851c15.565 0 28.262 12.698 28.262 28.467 0 15.565-12.698 28.262-28.262 28.262zM124.928 332.698h-96.666c-15.565 0-28.262-12.698-28.262-28.262s12.698-28.467 28.262-28.467h96.666c15.565 0 28.262 12.698 28.262 28.467 0 15.565-12.698 28.262-28.262 28.262v0zM993.28 227.635h-122.061v122.061c0 15.565-12.698 28.262-28.262 28.262s-28.262-12.698-28.262-28.262v-122.061h-122.061c-15.565 0-28.262-12.698-28.262-28.262s12.698-28.262 28.262-28.262h122.061v-122.061c0-15.565 12.698-28.262 28.262-28.262s28.262 12.698 28.262 28.262v122.061h122.061c15.565 0 28.262 12.698 28.262 28.262 0.205 15.565-12.493 28.262-28.262 28.262v0z" />
<glyph unicode="&#xe944;" glyph-name="custom-search" d="M1013.965-21.606l-231.014 231.014c34.611 38.298 61.85 81.92 81.306 129.638 21.504 53.248 32.563 109.363 32.563 167.117s-10.854 113.869-32.563 167.117c-22.323 55.091-55.091 104.448-97.485 146.842s-91.75 75.162-146.842 97.485c-53.248 21.504-109.363 32.563-167.117 32.563s-113.869-10.854-167.117-32.563c-55.091-22.323-104.448-55.091-146.842-97.485-42.598-42.189-75.366-91.75-97.69-146.842-21.504-53.248-32.563-109.363-32.563-167.117s10.854-113.869 32.563-167.117c22.323-54.886 55.091-104.448 97.485-146.842s91.75-75.162 146.842-97.485c53.248-21.504 109.363-32.563 167.117-32.563s113.869 10.854 167.117 32.563c47.923 19.456 91.341 46.694 129.638 81.306l231.014-231.014c9.216-9.216 24.166-9.216 33.382 0 9.421 9.216 9.421 24.166 0.205 33.382zM452.813 110.49c-105.677 0-205.21 41.165-279.962 115.917s-115.917 174.080-115.917 279.962c0 105.677 41.165 205.21 115.917 279.962s174.080 115.917 279.962 115.917c105.677 0 205.21-41.165 279.962-115.917s115.917-174.080 115.917-279.962c0-105.677-41.165-205.21-115.917-279.962-74.957-74.752-174.285-115.917-279.962-115.917z" />
<glyph unicode="&#xe945;" glyph-name="custom-goods" d="M231.424 643.789c-30.925 0-56.115 25.395-56.115 56.32 0 31.13 25.19 56.32 56.115 56.32 31.13 0 56.115-25.19 56.115-56.32 0.205-31.13-24.986-56.32-56.115-56.32zM793.6 643.789c-30.925 0-56.115 25.395-56.115 56.32 0 31.13 25.19 56.32 56.115 56.32 31.13 0 56.115-25.19 56.115-56.32 0.205-31.13-24.986-56.32-56.115-56.32zM906.035-60.723h-787.046c-62.054 0-112.435 50.586-112.435 112.64v789.094c0 62.054 50.381 112.64 112.435 112.64h787.046c62.054 0 112.435-50.586 112.435-112.64v-788.89c0-62.259-50.586-112.845-112.435-112.845zM976.486 855.552c0 31.13-25.19 56.32-56.115 56.32h-815.923c-30.925 0-56.115-25.395-56.115-56.32v-817.766c0-31.13 25.19-56.32 56.115-56.32h815.923c30.925 0 56.115 25.19 56.115 56.32v817.766zM512.41 390.246c-170.394 0-309.043 139.059-309.043 309.862 0 15.565 12.493 28.262 28.058 28.262s28.262-12.698 28.262-28.262c0-139.878 113.459-260.71 252.723-260.71 139.469 0 252.928 120.832 252.928 260.71 0 15.565 12.493 28.262 28.058 28.262s28.262-12.698 28.262-28.262c0.205-171.008-138.65-309.862-309.248-309.862v0z" />
<glyph unicode="&#xe946;" glyph-name="custom-menus" d="M4.506 805.171v-199.68c0-19.866 16.179-35.84 35.84-35.84h199.68c19.866 0 35.84 16.179 35.84 35.84v199.68c0 19.866-16.179 35.84-35.84 35.84h-199.68c-19.661 0-35.84-15.974-35.84-35.84zM214.426 595.251h-148.275c-19.866 0-35.84 16.179-35.84 35.84v148.48c0 19.866 16.179 35.84 35.84 35.84h148.275c19.866 0 35.84-16.179 35.84-35.84v-148.275c0.205-19.866-15.974-36.045-35.84-36.045zM253.133 805.171v-199.68c0-19.866 16.179-35.84 35.84-35.84h199.68c19.866 0 35.84 16.179 35.84 35.84v199.68c0 19.866-16.179 35.84-35.84 35.84h-199.68c-19.661 0-35.84-15.974-35.84-35.84zM463.053 595.251h-148.275c-19.866 0-35.84 16.179-35.84 35.84v148.48c0 19.866 16.179 35.84 35.84 35.84h148.275c19.866 0 35.84-16.179 35.84-35.84v-148.275c0.205-19.866-15.974-36.045-35.84-36.045zM501.76 805.171v-199.68c0-19.866 16.179-35.84 35.84-35.84h199.68c19.866 0 35.84 16.179 35.84 35.84v199.68c0 19.866-16.179 35.84-35.84 35.84h-199.68c-19.661 0-35.84-15.974-35.84-35.84zM711.68 595.251h-148.275c-19.866 0-35.84 16.179-35.84 35.84v148.48c0 19.866 16.179 35.84 35.84 35.84h148.275c19.866 0 35.84-16.179 35.84-35.84v-148.275c0.205-19.866-15.974-36.045-35.84-36.045zM4.506 558.592v-199.68c0-19.866 16.179-35.84 35.84-35.84h199.68c19.866 0 35.84 16.179 35.84 35.84v199.68c0 19.866-16.179 35.84-35.84 35.84h-199.68c-19.661 0-35.84-15.974-35.84-35.84zM214.426 348.672h-148.275c-19.866 0-35.84 16.179-35.84 35.84v148.275c0 19.866 16.179 35.84 35.84 35.84h148.275c19.866 0 35.84-16.179 35.84-35.84v-148.275c0.205-19.866-15.974-35.84-35.84-35.84zM253.133 558.592v-199.68c0-19.866 16.179-35.84 35.84-35.84h199.68c19.866 0 35.84 16.179 35.84 35.84v199.68c0 19.866-16.179 35.84-35.84 35.84h-199.68c-19.661 0-35.84-15.974-35.84-35.84zM463.053 348.672h-148.275c-19.866 0-35.84 16.179-35.84 35.84v148.275c0 19.866 16.179 35.84 35.84 35.84h148.275c19.866 0 35.84-16.179 35.84-35.84v-148.275c0.205-19.866-15.974-35.84-35.84-35.84zM501.76 558.592v-199.68c0-19.866 16.179-35.84 35.84-35.84h199.68c19.866 0 35.84 16.179 35.84 35.84v199.68c0 19.866-16.179 35.84-35.84 35.84h-199.68c-19.661 0-35.84-15.974-35.84-35.84zM711.68 348.672h-148.275c-19.866 0-35.84 16.179-35.84 35.84v148.275c0 19.866 16.179 35.84 35.84 35.84h148.275c19.866 0 35.84-16.179 35.84-35.84v-148.275c0.205-19.866-15.974-35.84-35.84-35.84zM747.93 805.171v-199.68c0-19.866 16.179-35.84 35.84-35.84h199.68c19.866 0 35.84 16.179 35.84 35.84v199.68c0 19.866-16.179 35.84-35.84 35.84h-199.68c-19.866 0-35.84-15.974-35.84-35.84zM957.85 595.251h-148.275c-19.866 0-35.84 16.179-35.84 35.84v148.48c0 19.866 16.179 35.84 35.84 35.84h148.275c19.866 0 35.84-16.179 35.84-35.84v-148.275c0-19.866-15.974-36.045-35.84-36.045zM747.93 558.592v-199.68c0-19.866 16.179-35.84 35.84-35.84h199.68c19.866 0 35.84 16.179 35.84 35.84v199.68c0 19.866-16.179 35.84-35.84 35.84h-199.68c-19.866 0-35.84-15.974-35.84-35.84zM957.85 348.672h-148.275c-19.866 0-35.84 16.179-35.84 35.84v148.275c0 19.866 16.179 35.84 35.84 35.84h148.275c19.866 0 35.84-16.179 35.84-35.84v-148.275c0-19.866-15.974-35.84-35.84-35.84zM4.506 313.651v-199.68c0-19.866 16.179-35.84 35.84-35.84h199.68c19.866 0 35.84 16.179 35.84 35.84v199.68c0 19.866-16.179 35.84-35.84 35.84h-199.68c-19.661 0-35.84-15.974-35.84-35.84zM214.426 103.731h-148.275c-19.866 0-35.84 16.179-35.84 35.84v148.275c0 19.866 16.179 35.84 35.84 35.84h148.275c19.866 0 35.84-16.179 35.84-35.84v-148.275c0.205-19.661-15.974-35.84-35.84-35.84zM253.133 313.651v-199.68c0-19.866 16.179-35.84 35.84-35.84h199.68c19.866 0 35.84 16.179 35.84 35.84v199.68c0 19.866-16.179 35.84-35.84 35.84h-199.68c-19.661 0-35.84-15.974-35.84-35.84zM463.053 103.731h-148.275c-19.866 0-35.84 16.179-35.84 35.84v148.275c0 19.866 16.179 35.84 35.84 35.84h148.275c19.866 0 35.84-16.179 35.84-35.84v-148.275c0.205-19.661-15.974-35.84-35.84-35.84zM501.76 313.651v-199.68c0-19.866 16.179-35.84 35.84-35.84h199.68c19.866 0 35.84 16.179 35.84 35.84v199.68c0 19.866-16.179 35.84-35.84 35.84h-199.68c-19.661 0-35.84-15.974-35.84-35.84zM711.68 103.731h-148.275c-19.866 0-35.84 16.179-35.84 35.84v148.275c0 19.866 16.179 35.84 35.84 35.84h148.275c19.866 0 35.84-16.179 35.84-35.84v-148.275c0.205-19.661-15.974-35.84-35.84-35.84zM747.93 313.651v-199.68c0-19.866 16.179-35.84 35.84-35.84h199.68c19.866 0 35.84 16.179 35.84 35.84v199.68c0 19.866-16.179 35.84-35.84 35.84h-199.68c-19.866 0-35.84-15.974-35.84-35.84zM957.85 103.731h-148.275c-19.866 0-35.84 16.179-35.84 35.84v148.275c0 19.866 16.179 35.84 35.84 35.84h148.275c19.866 0 35.84-16.179 35.84-35.84v-148.275c0-19.661-15.974-35.84-35.84-35.84z" />
<glyph unicode="&#xe947;" glyph-name="custom-picturew" d="M351.642-67.482h-217.293c-71.885 0-130.458 58.573-130.458 130.458v217.498c0 71.885 58.573 130.458 130.458 130.458h217.498c71.885 0 130.458-58.573 130.458-130.458v-217.498c-0.205-71.885-58.573-130.458-130.662-130.458zM134.349 367.309c-47.923 0-87.040-38.912-87.040-87.040v-217.293c0-47.923 38.912-87.040 87.040-87.040h217.498c47.923 0 87.040 38.912 87.040 87.040v217.498c0 47.923-38.912 87.040-87.040 87.040h-217.498zM351.642 476.058h-217.293c-71.885 0-130.458 58.573-130.458 130.458v217.498c0 71.885 58.573 130.458 130.458 130.458h217.498c71.885 0 130.458-58.573 130.458-130.458v-217.498c-0.205-71.885-58.573-130.458-130.662-130.458zM134.349 911.053c-47.923 0-87.040-38.912-87.040-87.040v-217.498c0-47.923 38.912-87.040 87.040-87.040h217.498c47.923 0 87.040 38.912 87.040 87.040v217.498c0 47.923-38.912 87.040-87.040 87.040h-217.498zM892.314-63.386h-215.654c-71.27 0-129.434 57.958-129.434 129.434v215.45c0 71.27 57.958 129.434 129.434 129.434h215.654c71.27 0 129.434-57.958 129.434-129.434v-215.654c0-71.27-58.163-129.229-129.434-129.229zM676.659 367.718c-47.514 0-86.221-38.707-86.221-86.221v-215.654c0-47.514 38.707-86.221 86.221-86.221h215.654c47.514 0 86.221 38.707 86.221 86.221v215.654c0 47.514-38.707 86.221-86.221 86.221h-215.654zM745.267 518.656c-9.011 0-17.818 3.277-24.781 9.216l-165.683 143.974c-9.011 7.782-10.035 21.709-2.253 30.72s21.709 10.035 30.72 2.253l160.768-139.674 242.074 347.546c6.758 9.83 20.48 12.288 30.31 5.53s12.288-20.48 5.53-30.31l-245.76-353.075c-6.144-8.806-15.77-14.541-26.214-15.974-1.638 0-3.072-0.205-4.71-0.205z" />
<glyph unicode="&#xe948;" glyph-name="custom-picture" d="M595.558 733.901c16.384-10.445 36.659-10.445 53.043 0s26.624 29.696 26.624 50.79-10.24 40.141-26.624 50.79-36.659 10.445-53.043 0c-16.384-10.445-26.419-29.901-26.419-50.79s10.035-40.346 26.419-50.79zM887.194 960h-742.4c-29.082 0-52.838-26.214-52.838-58.573v-906.854c0-32.358 23.962-58.573 53.043-58.573h742.4c29.286 0 53.043 26.214 53.043 58.573v906.854c0 32.358-23.962 58.573-53.248 58.573zM887.194-5.427h-742.4v906.854h742.4v-906.854zM701.645 608.973l-79.667-116.941-211.968 234.086-212.173-351.027h636.518l-132.71 233.882zM569.139 287.027h-371.302v-58.368h371.302v58.368zM834.355 140.8h-636.518v-58.573h636.518v58.573z" />
<glyph unicode="&#xe949;" glyph-name="custom-banner" d="M942.285 915.763h-860.365c-45.261 0-81.92-36.864-81.92-81.92v-786.227c0-45.261 36.864-81.92 81.92-81.92h860.16c45.261 0 81.92 36.864 81.92 81.92v786.022c0.205 45.261-36.659 82.125-81.715 82.125zM81.92 873.779h860.16c21.914 0 39.936-18.022 39.936-39.936v-320.922l-151.552 151.757c-8.192 8.192-21.504 8.192-29.696 0l-364.134-358.4-140.902 192.102c-3.482 4.71-8.602 7.782-14.541 8.397-5.734 0.614-11.674-1.024-16.179-4.915l-223.232-190.464v522.24c0.205 22.118 18.227 40.141 40.141 40.141zM982.221 47.411c0-21.914-18.022-39.936-39.936-39.936h-860.365c-21.914 0-39.936 18.022-39.936 39.936v162.406h940.237v-162.406zM41.984 229.888v26.214l233.267 199.066 141.926-193.536c3.686-4.915 9.216-7.987 15.36-8.602s12.083 1.638 16.384 5.939l366.592 360.858 164.659-164.864c0.614-0.614 1.229-1.024 1.843-1.638v-223.642h-940.032zM268.288 619.008c41.37 0 74.957 33.587 74.957 74.957s-33.587 74.957-74.957 74.957-74.957-33.587-74.957-74.957 33.587-74.957 74.957-74.957zM268.288 726.938c18.022 0 32.973-14.746 32.973-32.973s-14.95-32.973-32.973-32.973-32.973 14.746-32.973 32.973 14.746 32.973 32.973 32.973zM347.75 207.974h20.070v-196.403h-20.070v196.403zM669.696 207.974h20.070v-196.403h-20.070v196.403zM104.653 30.003c2.458 0 4.71 0.819 6.758 2.458l42.598 38.093 24.576-35.021c1.638-2.458 4.301-4.096 7.373-4.301s5.939 0.819 7.987 3.072l68.813 70.861 28.672-29.901c3.891-4.096 10.035-4.096 14.131-0.205s4.096 10.035 0.205 14.131l-35.635 37.478c-1.843 2.048-4.506 3.072-7.168 3.072s-5.325-1.024-7.168-3.072l-67.584-69.632-24.371 34.406c-1.638 2.253-4.301 3.891-6.963 4.301s-5.734-0.614-7.782-2.458l-50.995-45.67c-4.096-3.686-4.506-10.035-0.819-14.131 1.843-2.253 4.71-3.482 7.373-3.482zM104.653 151.245c0-16.589 13.517-30.106 30.106-30.106s30.106 13.517 30.106 30.106c0 16.589-13.517 30.106-30.106 30.106s-30.106-13.517-30.106-30.106zM422.707 151.245c0-16.589 13.517-30.106 30.106-30.106s30.106 13.517 30.106 30.106c0 16.589-13.517 30.106-30.106 30.106-16.589-0.205-30.106-13.517-30.106-30.106zM422.707 30.003c2.458 0 4.71 0.819 6.758 2.458l42.598 38.093 24.576-35.021c1.638-2.458 4.301-4.096 7.373-4.301s5.939 0.819 7.987 3.072l68.813 70.861 28.672-29.901c3.891-4.096 10.035-4.096 14.131-0.205s4.096 10.035 0.205 14.131l-35.635 37.478c-1.843 2.048-4.506 3.072-7.168 3.072s-5.325-1.024-7.168-3.072l-67.584-69.632-23.962 34.406c-1.638 2.253-4.301 3.891-6.963 4.301-2.867 0.205-5.734-0.614-7.782-2.458l-50.995-45.67c-4.096-3.686-4.506-10.035-0.819-14.131 1.638-2.253 4.301-3.482 6.963-3.482v0zM746.906 151.245c0-16.589 13.517-30.106 30.106-30.106s29.901 13.517 29.901 30.106c0 16.589-13.517 30.106-30.106 30.106s-29.901-13.517-29.901-30.106zM746.906 30.003c2.458 0 4.71 0.819 6.758 2.458l42.598 38.093 24.576-35.021c1.638-2.458 4.301-4.096 7.373-4.301s5.939 0.819 7.987 3.072l68.813 70.861 28.672-29.901c3.891-4.096 10.035-4.096 14.131-0.205s4.096 10.035 0.205 14.131l-35.635 37.478c-1.843 2.048-4.506 3.072-7.168 3.072s-5.325-1.024-7.168-3.072l-67.584-69.632-23.962 34.406c-1.638 2.253-4.301 3.891-6.963 4.301s-5.734-0.614-7.782-2.458l-50.995-45.67c-4.096-3.686-4.506-10.035-0.819-14.131 1.434-2.253 4.301-3.482 6.963-3.482z" />
<glyph unicode="&#xe94a;" glyph-name="custom-title" d="M689.562 617.984h-338.739c-14.541 0-24.166-9.626-24.166-24.166s9.626-24.166 24.166-24.166h145.203v-338.739c0-14.541 9.626-24.166 24.166-24.166s24.166 9.626 24.166 24.166v338.739h145.203c14.541 0 24.166 9.626 24.166 24.166s-9.626 24.166-24.166 24.166zM921.6 743.731l-174.080 178.995c-19.251 19.251-57.958 33.792-82.33 33.792h-483.533c-53.248 0-96.666-43.622-96.666-96.666v-822.272c0-53.248 43.622-96.666 96.666-96.666h677.274c53.248 0 96.666 43.622 96.666 96.666v624.026c0 24.166-14.541 62.874-33.997 82.125v0zM907.264 37.581c0-24.166-19.251-48.333-48.333-48.333h-677.274c-24.166 0-48.538 24.166-48.538 48.333v822.272c0 24.166 19.251 48.333 48.333 48.333h483.738c14.541 0 38.707-9.626 48.333-19.251l174.080-178.995c9.626-9.626 19.251-33.792 19.251-48.333l0.41-624.026z" />
</font>
</defs>
</svg>
